<?xml version="1.0" encoding="utf-8" standalone="no"?>
<!DOCTYPE svg PUBLIC "-//W3C//DTD SVG 1.1//EN"
  "http://www.w3.org/Graphics/SVG/1.1/DTD/svg11.dtd">
<svg xmlns:xlink="http://www.w3.org/1999/xlink" width="720pt" height="432pt" viewBox="0 0 720 432" xmlns="http://www.w3.org/2000/svg" version="1.1">
 <metadata>
  <rdf:RDF xmlns:dc="http://purl.org/dc/elements/1.1/" xmlns:cc="http://creativecommons.org/ns#" xmlns:rdf="http://www.w3.org/1999/02/22-rdf-syntax-ns#">
   <cc:Work>
    <dc:type rdf:resource="http://purl.org/dc/dcmitype/StillImage"/>
    <dc:date>2026-04-21T01:02:28.489562</dc:date>
    <dc:format>image/svg+xml</dc:format>
    <dc:creator>
     <cc:Agent>
      <dc:title>Matplotlib v3.9.2, https://matplotlib.org/</dc:title>
     </cc:Agent>
    </dc:creator>
   </cc:Work>
  </rdf:RDF>
 </metadata>
 <defs>
  <style type="text/css">*{stroke-linejoin: round; stroke-linecap: butt}</style>
 </defs>
 <g id="figure_1">
  <g id="patch_1">
   <path d="M 0 432 
L 720 432 
L 720 0 
L 0 0 
z
" style="fill: #ffffff"/>
  </g>
  <g id="axes_1">
   <g id="patch_2">
    <path d="M 90 384.48 
L 648 384.48 
L 648 51.84 
L 90 51.84 
z
" style="fill: #ffffff"/>
   </g>
   <g id="matplotlib.axis_1">
    <g id="xtick_1">
     <g id="line2d_1">
      <defs>
       <path id="m431c72dd93" d="M 0 0 
L 0 3.5 
" style="stroke: #000000; stroke-width: 0.8"/>
      </defs>
      <g>
       <use xlink:href="#m431c72dd93" x="90" y="384.48" style="stroke: #000000; stroke-width: 0.8"/>
      </g>
     </g>
     <g id="text_1">
      <!-- 0.0 -->
      <g transform="translate(82.048438 399.078438) scale(0.1 -0.1)">
       <defs>
        <path id="DejaVuSans-30" d="M 2034 4250 
Q 1547 4250 1301 3770 
Q 1056 3291 1056 2328 
Q 1056 1369 1301 889 
Q 1547 409 2034 409 
Q 2525 409 2770 889 
Q 3016 1369 3016 2328 
Q 3016 3291 2770 3770 
Q 2525 4250 2034 4250 
z
M 2034 4750 
Q 2819 4750 3233 4129 
Q 3647 3509 3647 2328 
Q 3647 1150 3233 529 
Q 2819 -91 2034 -91 
Q 1250 -91 836 529 
Q 422 1150 422 2328 
Q 422 3509 836 4129 
Q 1250 4750 2034 4750 
z
" transform="scale(0.015625)"/>
        <path id="DejaVuSans-2e" d="M 684 794 
L 1344 794 
L 1344 0 
L 684 0 
L 684 794 
z
" transform="scale(0.015625)"/>
       </defs>
       <use xlink:href="#DejaVuSans-30"/>
       <use xlink:href="#DejaVuSans-2e" x="63.623047"/>
       <use xlink:href="#DejaVuSans-30" x="95.410156"/>
      </g>
     </g>
    </g>
    <g id="xtick_2">
     <g id="line2d_2">
      <g>
       <use xlink:href="#m431c72dd93" x="201.6" y="384.48" style="stroke: #000000; stroke-width: 0.8"/>
      </g>
     </g>
     <g id="text_2">
      <!-- 0.2 -->
      <g transform="translate(193.648438 399.078438) scale(0.1 -0.1)">
       <defs>
        <path id="DejaVuSans-32" d="M 1228 531 
L 3431 531 
L 3431 0 
L 469 0 
L 469 531 
Q 828 903 1448 1529 
Q 2069 2156 2228 2338 
Q 2531 2678 2651 2914 
Q 2772 3150 2772 3378 
Q 2772 3750 2511 3984 
Q 2250 4219 1831 4219 
Q 1534 4219 1204 4116 
Q 875 4013 500 3803 
L 500 4441 
Q 881 4594 1212 4672 
Q 1544 4750 1819 4750 
Q 2544 4750 2975 4387 
Q 3406 4025 3406 3419 
Q 3406 3131 3298 2873 
Q 3191 2616 2906 2266 
Q 2828 2175 2409 1742 
Q 1991 1309 1228 531 
z
" transform="scale(0.015625)"/>
       </defs>
       <use xlink:href="#DejaVuSans-30"/>
       <use xlink:href="#DejaVuSans-2e" x="63.623047"/>
       <use xlink:href="#DejaVuSans-32" x="95.410156"/>
      </g>
     </g>
    </g>
    <g id="xtick_3">
     <g id="line2d_3">
      <g>
       <use xlink:href="#m431c72dd93" x="313.2" y="384.48" style="stroke: #000000; stroke-width: 0.8"/>
      </g>
     </g>
     <g id="text_3">
      <!-- 0.4 -->
      <g transform="translate(305.248438 399.078438) scale(0.1 -0.1)">
       <defs>
        <path id="DejaVuSans-34" d="M 2419 4116 
L 825 1625 
L 2419 1625 
L 2419 4116 
z
M 2253 4666 
L 3047 4666 
L 3047 1625 
L 3713 1625 
L 3713 1100 
L 3047 1100 
L 3047 0 
L 2419 0 
L 2419 1100 
L 313 1100 
L 313 1709 
L 2253 4666 
z
" transform="scale(0.015625)"/>
       </defs>
       <use xlink:href="#DejaVuSans-30"/>
       <use xlink:href="#DejaVuSans-2e" x="63.623047"/>
       <use xlink:href="#DejaVuSans-34" x="95.410156"/>
      </g>
     </g>
    </g>
    <g id="xtick_4">
     <g id="line2d_4">
      <g>
       <use xlink:href="#m431c72dd93" x="424.8" y="384.48" style="stroke: #000000; stroke-width: 0.8"/>
      </g>
     </g>
     <g id="text_4">
      <!-- 0.6 -->
      <g transform="translate(416.848438 399.078438) scale(0.1 -0.1)">
       <defs>
        <path id="DejaVuSans-36" d="M 2113 2584 
Q 1688 2584 1439 2293 
Q 1191 2003 1191 1497 
Q 1191 994 1439 701 
Q 1688 409 2113 409 
Q 2538 409 2786 701 
Q 3034 994 3034 1497 
Q 3034 2003 2786 2293 
Q 2538 2584 2113 2584 
z
M 3366 4563 
L 3366 3988 
Q 3128 4100 2886 4159 
Q 2644 4219 2406 4219 
Q 1781 4219 1451 3797 
Q 1122 3375 1075 2522 
Q 1259 2794 1537 2939 
Q 1816 3084 2150 3084 
Q 2853 3084 3261 2657 
Q 3669 2231 3669 1497 
Q 3669 778 3244 343 
Q 2819 -91 2113 -91 
Q 1303 -91 875 529 
Q 447 1150 447 2328 
Q 447 3434 972 4092 
Q 1497 4750 2381 4750 
Q 2619 4750 2861 4703 
Q 3103 4656 3366 4563 
z
" transform="scale(0.015625)"/>
       </defs>
       <use xlink:href="#DejaVuSans-30"/>
       <use xlink:href="#DejaVuSans-2e" x="63.623047"/>
       <use xlink:href="#DejaVuSans-36" x="95.410156"/>
      </g>
     </g>
    </g>
    <g id="xtick_5">
     <g id="line2d_5">
      <g>
       <use xlink:href="#m431c72dd93" x="536.4" y="384.48" style="stroke: #000000; stroke-width: 0.8"/>
      </g>
     </g>
     <g id="text_5">
      <!-- 0.8 -->
      <g transform="translate(528.448438 399.078438) scale(0.1 -0.1)">
       <defs>
        <path id="DejaVuSans-38" d="M 2034 2216 
Q 1584 2216 1326 1975 
Q 1069 1734 1069 1313 
Q 1069 891 1326 650 
Q 1584 409 2034 409 
Q 2484 409 2743 651 
Q 3003 894 3003 1313 
Q 3003 1734 2745 1975 
Q 2488 2216 2034 2216 
z
M 1403 2484 
Q 997 2584 770 2862 
Q 544 3141 544 3541 
Q 544 4100 942 4425 
Q 1341 4750 2034 4750 
Q 2731 4750 3128 4425 
Q 3525 4100 3525 3541 
Q 3525 3141 3298 2862 
Q 3072 2584 2669 2484 
Q 3125 2378 3379 2068 
Q 3634 1759 3634 1313 
Q 3634 634 3220 271 
Q 2806 -91 2034 -91 
Q 1263 -91 848 271 
Q 434 634 434 1313 
Q 434 1759 690 2068 
Q 947 2378 1403 2484 
z
M 1172 3481 
Q 1172 3119 1398 2916 
Q 1625 2713 2034 2713 
Q 2441 2713 2670 2916 
Q 2900 3119 2900 3481 
Q 2900 3844 2670 4047 
Q 2441 4250 2034 4250 
Q 1625 4250 1398 4047 
Q 1172 3844 1172 3481 
z
" transform="scale(0.015625)"/>
       </defs>
       <use xlink:href="#DejaVuSans-30"/>
       <use xlink:href="#DejaVuSans-2e" x="63.623047"/>
       <use xlink:href="#DejaVuSans-38" x="95.410156"/>
      </g>
     </g>
    </g>
    <g id="xtick_6">
     <g id="line2d_6">
      <g>
       <use xlink:href="#m431c72dd93" x="648" y="384.48" style="stroke: #000000; stroke-width: 0.8"/>
      </g>
     </g>
     <g id="text_6">
      <!-- 1.0 -->
      <g transform="translate(640.048437 399.078438) scale(0.1 -0.1)">
       <defs>
        <path id="DejaVuSans-31" d="M 794 531 
L 1825 531 
L 1825 4091 
L 703 3866 
L 703 4441 
L 1819 4666 
L 2450 4666 
L 2450 531 
L 3481 531 
L 3481 0 
L 794 0 
L 794 531 
z
" transform="scale(0.015625)"/>
       </defs>
       <use xlink:href="#DejaVuSans-31"/>
       <use xlink:href="#DejaVuSans-2e" x="63.623047"/>
       <use xlink:href="#DejaVuSans-30" x="95.410156"/>
      </g>
     </g>
    </g>
    <g id="text_7">
     <!-- x -->
     <g transform="translate(363.08125 420.355) scale(0.2 -0.2)">
      <defs>
       <path id="DejaVuSans-78" d="M 3513 3500 
L 2247 1797 
L 3578 0 
L 2900 0 
L 1881 1375 
L 863 0 
L 184 0 
L 1544 1831 
L 300 3500 
L 978 3500 
L 1906 2253 
L 2834 3500 
L 3513 3500 
z
" transform="scale(0.015625)"/>
      </defs>
      <use xlink:href="#DejaVuSans-78"/>
     </g>
    </g>
   </g>
   <g id="matplotlib.axis_2">
    <g id="ytick_1">
     <g id="line2d_7">
      <defs>
       <path id="m55dc395147" d="M 0 0 
L -3.5 0 
" style="stroke: #000000; stroke-width: 0.8"/>
      </defs>
      <g>
       <use xlink:href="#m55dc395147" x="90" y="369.36" style="stroke: #000000; stroke-width: 0.8"/>
      </g>
     </g>
     <g id="text_8">
      <!-- 0 -->
      <g transform="translate(76.6375 373.159219) scale(0.1 -0.1)">
       <use xlink:href="#DejaVuSans-30"/>
      </g>
     </g>
    </g>
    <g id="ytick_2">
     <g id="line2d_8">
      <g>
       <use xlink:href="#m55dc395147" x="90" y="315.688631" style="stroke: #000000; stroke-width: 0.8"/>
      </g>
     </g>
     <g id="text_9">
      <!-- 2 -->
      <g transform="translate(76.6375 319.48785) scale(0.1 -0.1)">
       <use xlink:href="#DejaVuSans-32"/>
      </g>
     </g>
    </g>
    <g id="ytick_3">
     <g id="line2d_9">
      <g>
       <use xlink:href="#m55dc395147" x="90" y="262.017263" style="stroke: #000000; stroke-width: 0.8"/>
      </g>
     </g>
     <g id="text_10">
      <!-- 4 -->
      <g transform="translate(76.6375 265.816481) scale(0.1 -0.1)">
       <use xlink:href="#DejaVuSans-34"/>
      </g>
     </g>
    </g>
    <g id="ytick_4">
     <g id="line2d_10">
      <g>
       <use xlink:href="#m55dc395147" x="90" y="208.345894" style="stroke: #000000; stroke-width: 0.8"/>
      </g>
     </g>
     <g id="text_11">
      <!-- 6 -->
      <g transform="translate(76.6375 212.145113) scale(0.1 -0.1)">
       <use xlink:href="#DejaVuSans-36"/>
      </g>
     </g>
    </g>
    <g id="ytick_5">
     <g id="line2d_11">
      <g>
       <use xlink:href="#m55dc395147" x="90" y="154.674525" style="stroke: #000000; stroke-width: 0.8"/>
      </g>
     </g>
     <g id="text_12">
      <!-- 8 -->
      <g transform="translate(76.6375 158.473744) scale(0.1 -0.1)">
       <use xlink:href="#DejaVuSans-38"/>
      </g>
     </g>
    </g>
    <g id="ytick_6">
     <g id="line2d_12">
      <g>
       <use xlink:href="#m55dc395147" x="90" y="101.003157" style="stroke: #000000; stroke-width: 0.8"/>
      </g>
     </g>
     <g id="text_13">
      <!-- 10 -->
      <g transform="translate(70.275 104.802375) scale(0.1 -0.1)">
       <use xlink:href="#DejaVuSans-31"/>
       <use xlink:href="#DejaVuSans-30" x="63.623047"/>
      </g>
     </g>
    </g>
    <g id="text_14">
     <!-- f(x) -->
     <g transform="translate(62.115625 235.402187) rotate(-90) scale(0.2 -0.2)">
      <defs>
       <path id="DejaVuSans-66" d="M 2375 4863 
L 2375 4384 
L 1825 4384 
Q 1516 4384 1395 4259 
Q 1275 4134 1275 3809 
L 1275 3500 
L 2222 3500 
L 2222 3053 
L 1275 3053 
L 1275 0 
L 697 0 
L 697 3053 
L 147 3053 
L 147 3500 
L 697 3500 
L 697 3744 
Q 697 4328 969 4595 
Q 1241 4863 1831 4863 
L 2375 4863 
z
" transform="scale(0.015625)"/>
       <path id="DejaVuSans-28" d="M 1984 4856 
Q 1566 4138 1362 3434 
Q 1159 2731 1159 2009 
Q 1159 1288 1364 580 
Q 1569 -128 1984 -844 
L 1484 -844 
Q 1016 -109 783 600 
Q 550 1309 550 2009 
Q 550 2706 781 3412 
Q 1013 4119 1484 4856 
L 1984 4856 
z
" transform="scale(0.015625)"/>
       <path id="DejaVuSans-29" d="M 513 4856 
L 1013 4856 
Q 1481 4119 1714 3412 
Q 1947 2706 1947 2009 
Q 1947 1309 1714 600 
Q 1481 -109 1013 -844 
L 513 -844 
Q 928 -128 1133 580 
Q 1338 1288 1338 2009 
Q 1338 2731 1133 3434 
Q 928 4138 513 4856 
z
" transform="scale(0.015625)"/>
      </defs>
      <use xlink:href="#DejaVuSans-66"/>
      <use xlink:href="#DejaVuSans-28" x="35.205078"/>
      <use xlink:href="#DejaVuSans-78" x="74.21875"/>
      <use xlink:href="#DejaVuSans-29" x="133.398438"/>
     </g>
    </g>
   </g>
   <g id="line2d_13">
    <path d="M 90.558559 99.236095 
L 91.117117 178.257788 
L 91.675676 213.247387 
L 92.234234 234.09459 
L 92.792793 248.314097 
L 93.351351 258.805089 
L 94.468468 273.520074 
L 95.585586 283.551533 
L 96.702703 290.948621 
L 97.81982 296.691506 
L 98.936937 301.315733 
L 100.054054 305.141888 
L 101.171171 308.375152 
L 102.846847 312.404002 
L 104.522523 315.708089 
L 106.198198 318.480431 
L 107.873874 320.849018 
L 109.54955 322.902509 
L 111.783784 325.257788 
L 114.018018 327.271338 
L 116.252252 329.017678 
L 119.045045 330.905105 
L 121.837838 332.533079 
L 125.189189 334.218517 
L 129.099099 335.896496 
L 133.009009 337.332911 
L 137.477477 338.744192 
L 142.504505 340.102307 
L 148.09009 341.389508 
L 154.792793 342.69639 
L 162.054054 343.887369 
L 170.432432 345.039977 
L 180.486486 346.185624 
L 191.657658 347.229992 
L 204.504505 348.208503 
L 219.585586 349.130432 
L 236.900901 349.96403 
L 257.009009 350.707215 
L 280.468468 351.344839 
L 306.720721 351.833636 
L 336.324324 352.157487 
L 367.603604 352.275659 
L 399.441441 352.173264 
L 429.603604 351.857982 
L 456.972973 351.357511 
L 481.54955 350.689276 
L 502.774775 349.892087 
L 520.648649 349.006754 
L 536.288288 348.01285 
L 549.693694 346.938119 
L 560.864865 345.82836 
L 570.36036 344.678494 
L 578.738739 343.453221 
L 586 342.17932 
L 592.702703 340.771627 
L 598.288288 339.374411 
L 603.315315 337.887913 
L 607.783784 336.328966 
L 611.693694 334.726357 
L 615.045045 333.124158 
L 618.396396 331.249488 
L 621.189189 329.41914 
L 623.423423 327.730589 
L 625.657658 325.789856 
L 627.891892 323.528518 
L 629.567568 321.564968 
L 631.243243 319.309805 
L 632.918919 316.683941 
L 634.594595 313.574624 
L 636.27027 309.814463 
L 637.387387 306.822797 
L 638.504505 303.313762 
L 639.621622 299.119902 
L 640.738739 293.986591 
L 641.855856 287.503443 
L 642.972973 278.955627 
L 643.531532 273.520074 
L 644.09009 266.954464 
L 644.648649 258.805089 
L 645.207207 248.314097 
L 645.765766 234.09459 
L 646.324324 213.247387 
L 646.882883 178.257788 
L 647.441441 99.236095 
L 647.441441 99.236095 
" clip-path="url(#pe19e99e72d)" style="fill: none; stroke: #1f77b4; stroke-width: 1.5; stroke-linecap: square"/>
   </g>
   <g id="line2d_14">
    <path d="M 90 342.524316 
L 648 342.524316 
L 648 342.524316 
" clip-path="url(#pe19e99e72d)" style="fill: none; stroke-dasharray: 5.55,2.4; stroke-dashoffset: 0; stroke: #ff7f0e; stroke-width: 1.5"/>
   </g>
   <g id="line2d_15">
    <path d="M 90 369.36 
L 165.963964 369.253328 
L 179.369369 369.002694 
L 188.864865 368.622591 
L 196.684685 368.106556 
L 203.945946 367.400803 
L 210.09009 366.587362 
L 215.675676 365.641106 
L 221.261261 364.467245 
L 226.288288 363.192155 
L 231.315315 361.689272 
L 236.342342 359.940639 
L 241.369369 357.930994 
L 245.837838 355.915869 
L 250.306306 353.679516 
L 254.774775 351.21928 
L 259.801802 348.18478 
L 264.828829 344.873962 
L 269.855856 341.29899 
L 275.441441 337.039528 
L 281.585586 332.044946 
L 288.288288 326.294408 
L 297.225225 318.297224 
L 315.099099 302.207189 
L 321.243243 296.998376 
L 326.828829 292.552124 
L 331.855856 288.851564 
L 336.324324 285.846336 
L 340.234234 283.464788 
L 344.144144 281.337214 
L 348.054054 279.482953 
L 351.405405 278.12409 
L 354.756757 276.987808 
L 358.108108 276.081877 
L 361.459459 275.412517 
L 364.810811 274.98434 
L 368.162162 274.800306 
L 371.513514 274.861686 
L 374.864865 275.168056 
L 378.216216 275.717299 
L 381.567568 276.505623 
L 384.918919 277.527605 
L 388.27027 278.776243 
L 391.621622 280.243022 
L 395.531532 282.216642 
L 399.441441 284.455556 
L 403.351351 286.939511 
L 407.81982 290.049819 
L 412.846847 293.852194 
L 418.432432 298.390005 
L 424.576577 303.672344 
L 433.513514 311.688732 
L 450.27027 326.783571 
L 457.531532 332.974789 
L 463.675676 337.914177 
L 469.261261 342.115414 
L 474.288288 345.633052 
L 479.315315 348.883302 
L 484.342342 351.855354 
L 489.369369 354.54431 
L 493.837838 356.697226 
L 498.306306 358.630685 
L 503.333333 360.551828 
L 508.36036 362.2167 
L 513.387387 363.641545 
L 518.414414 364.845054 
L 524 365.947534 
L 529.585586 366.831297 
L 535.72973 367.586248 
L 542.432432 368.194201 
L 550.252252 368.67956 
L 559.747748 369.034028 
L 572.036036 369.253328 
L 591.585586 369.349517 
L 648 369.36 
L 648 369.36 
" clip-path="url(#pe19e99e72d)" style="fill: none; stroke-dasharray: 9.6,2.4,1.5,2.4; stroke-dashoffset: 0; stroke: #2ca02c; stroke-width: 1.5"/>
   </g>
   <g id="line2d_16">
    <path d="M 90 369.36 
L 291.63964 369.250085 
L 297.225225 369.015952 
L 301.135135 368.638305 
L 303.927928 368.169398 
L 306.162162 367.612675 
L 308.396396 366.833318 
L 310.072072 366.060065 
L 311.747748 365.085256 
L 313.423423 363.867224 
L 315.099099 362.358733 
L 316.774775 360.507024 
L 318.45045 358.254094 
L 320.126126 355.537272 
L 321.801802 352.290108 
L 323.477477 348.443629 
L 325.153153 343.927981 
L 326.828829 338.67446 
L 328.504505 332.617913 
L 330.18018 325.699489 
L 331.855856 317.869659 
L 333.531532 309.091433 
L 335.207207 299.343642 
L 337.441441 284.837837 
L 339.675676 268.664323 
L 341.90991 250.960389 
L 344.702703 227.028871 
L 348.612613 191.356053 
L 353.63964 145.433181 
L 356.432432 122.018686 
L 358.666667 105.358669 
L 360.342342 94.441593 
L 362.018018 85.116437 
L 363.135135 79.877824 
L 364.252252 75.478277 
L 365.369369 71.958252 
L 366.486486 69.350406 
L 367.045045 68.396496 
L 367.603604 67.679095 
L 368.162162 67.199887 
L 368.720721 66.96 
L 369.279279 66.96 
L 369.837838 67.199887 
L 370.396396 67.679095 
L 370.954955 68.396496 
L 371.513514 69.350406 
L 372.630631 71.958252 
L 373.747748 75.478277 
L 374.864865 79.877824 
L 375.981982 85.116437 
L 377.657658 94.441593 
L 379.333333 105.358669 
L 381.009009 117.653917 
L 383.243243 135.786158 
L 386.036036 160.420832 
L 395.531532 246.319611 
L 398.324324 268.664323 
L 400.558559 284.837837 
L 402.792793 299.343642 
L 405.027027 312.124554 
L 406.702703 320.583447 
L 408.378378 328.104678 
L 410.054054 334.729782 
L 411.72973 340.511744 
L 413.405405 345.511839 
L 415.081081 349.796693 
L 416.756757 353.435645 
L 418.432432 356.49846 
L 420.108108 359.053432 
L 421.783784 361.165873 
L 423.459459 362.896982 
L 425.135135 364.30306 
L 426.810811 365.435045 
L 428.486486 366.338312 
L 430.720721 367.254954 
L 432.954955 367.914965 
L 435.747748 368.475806 
L 439.099099 368.884656 
L 443.567568 369.163124 
L 450.27027 369.313406 
L 465.90991 369.359103 
L 648 369.36 
L 648 369.36 
" clip-path="url(#pe19e99e72d)" style="fill: none; stroke-dasharray: 1.5,2.475; stroke-dashoffset: 0; stroke: #d62728; stroke-width: 1.5"/>
   </g>
   <g id="patch_3">
    <path d="M 90 384.48 
L 90 51.84 
" style="fill: none; stroke: #000000; stroke-width: 0.8; stroke-linejoin: miter; stroke-linecap: square"/>
   </g>
   <g id="patch_4">
    <path d="M 648 384.48 
L 648 51.84 
" style="fill: none; stroke: #000000; stroke-width: 0.8; stroke-linejoin: miter; stroke-linecap: square"/>
   </g>
   <g id="patch_5">
    <path d="M 90 384.48 
L 648 384.48 
" style="fill: none; stroke: #000000; stroke-width: 0.8; stroke-linejoin: miter; stroke-linecap: square"/>
   </g>
   <g id="patch_6">
    <path d="M 90 51.84 
L 648 51.84 
" style="fill: none; stroke: #000000; stroke-width: 0.8; stroke-linejoin: miter; stroke-linecap: square"/>
   </g>
   <g id="legend_1">
    <g id="patch_7">
     <path d="M 466.35 152.64 
L 637.5 152.64 
Q 640.5 152.64 640.5 149.64 
L 640.5 62.34 
Q 640.5 59.34 637.5 59.34 
L 466.35 59.34 
Q 463.35 59.34 463.35 62.34 
L 463.35 149.64 
Q 463.35 152.64 466.35 152.64 
z
" style="fill: #ffffff; opacity: 0.8; stroke: #cccccc; stroke-linejoin: miter"/>
    </g>
    <g id="line2d_17">
     <path d="M 469.35 71.64 
L 484.35 71.64 
L 499.35 71.64 
" style="fill: none; stroke: #1f77b4; stroke-width: 1.5; stroke-linecap: square"/>
    </g>
    <g id="text_15">
     <!-- $\alpha=$0.5, $\beta=$0.5 -->
     <g transform="translate(511.35 76.89) scale(0.15 -0.15)">
      <defs>
       <path id="DejaVuSans-Oblique-3b1" d="M 2619 1628 
L 2622 2350 
Q 2625 3088 2069 3091 
Q 1653 3094 1394 2747 
Q 1069 2319 959 1747 
Q 825 1059 994 731 
Q 1169 397 1547 397 
Q 1966 397 2319 1063 
L 2619 1628 
z
M 2166 3578 
Q 3141 3594 3128 2584 
Q 3128 2584 3616 3500 
L 4128 3500 
L 3119 1603 
L 3109 919 
Q 3109 766 3194 638 
Q 3291 488 3391 488 
L 3669 488 
L 3575 0 
L 3228 0 
Q 2934 0 2722 263 
Q 2622 394 2619 669 
Q 2416 334 2066 50 
Q 1900 -81 1453 -78 
Q 722 -72 456 397 
Q 184 884 353 1747 
Q 534 2675 1009 3097 
Q 1544 3569 2166 3578 
z
" transform="scale(0.015625)"/>
       <path id="DejaVuSans-3d" d="M 678 2906 
L 4684 2906 
L 4684 2381 
L 678 2381 
L 678 2906 
z
M 678 1631 
L 4684 1631 
L 4684 1100 
L 678 1100 
L 678 1631 
z
" transform="scale(0.015625)"/>
       <path id="DejaVuSans-35" d="M 691 4666 
L 3169 4666 
L 3169 4134 
L 1269 4134 
L 1269 2991 
Q 1406 3038 1543 3061 
Q 1681 3084 1819 3084 
Q 2600 3084 3056 2656 
Q 3513 2228 3513 1497 
Q 3513 744 3044 326 
Q 2575 -91 1722 -91 
Q 1428 -91 1123 -41 
Q 819 9 494 109 
L 494 744 
Q 775 591 1075 516 
Q 1375 441 1709 441 
Q 2250 441 2565 725 
Q 2881 1009 2881 1497 
Q 2881 1984 2565 2268 
Q 2250 2553 1709 2553 
Q 1456 2553 1204 2497 
Q 953 2441 691 2322 
L 691 4666 
z
" transform="scale(0.015625)"/>
       <path id="DejaVuSans-2c" d="M 750 794 
L 1409 794 
L 1409 256 
L 897 -744 
L 494 -744 
L 750 256 
L 750 794 
z
" transform="scale(0.015625)"/>
       <path id="DejaVuSans-20" transform="scale(0.015625)"/>
       <path id="DejaVuSans-Oblique-3b2" d="M 872 216 
L 572 -1331 
L -6 -1331 
L 928 3478 
Q 1206 4903 2538 4903 
Q 3888 4903 3659 3700 
Q 3503 2844 2894 2531 
Q 3713 2250 3553 1416 
Q 3272 -69 1759 -66 
Q 1097 -63 872 216 
z
M 1019 966 
Q 1259 422 1875 425 
Q 2775 425 2966 1406 
Q 3138 2288 1675 2219 
L 1778 2750 
Q 2909 2731 3106 3750 
Q 3241 4438 2509 4434 
Q 1691 4434 1503 3459 
L 1019 966 
z
" transform="scale(0.015625)"/>
      </defs>
      <use xlink:href="#DejaVuSans-Oblique-3b1" transform="translate(0 0.390625)"/>
      <use xlink:href="#DejaVuSans-3d" transform="translate(85.400391 0.390625)"/>
      <use xlink:href="#DejaVuSans-30" transform="translate(188.671875 0.390625)"/>
      <use xlink:href="#DejaVuSans-2e" transform="translate(252.294922 0.390625)"/>
      <use xlink:href="#DejaVuSans-35" transform="translate(284.082031 0.390625)"/>
      <use xlink:href="#DejaVuSans-2c" transform="translate(347.705078 0.390625)"/>
      <use xlink:href="#DejaVuSans-20" transform="translate(379.492188 0.390625)"/>
      <use xlink:href="#DejaVuSans-Oblique-3b2" transform="translate(411.279297 0.390625)"/>
      <use xlink:href="#DejaVuSans-3d" transform="translate(494.580078 0.390625)"/>
      <use xlink:href="#DejaVuSans-30" transform="translate(597.851562 0.390625)"/>
      <use xlink:href="#DejaVuSans-2e" transform="translate(661.474609 0.390625)"/>
      <use xlink:href="#DejaVuSans-35" transform="translate(693.261719 0.390625)"/>
     </g>
    </g>
    <g id="line2d_18">
     <path d="M 469.35 93.84 
L 484.35 93.84 
L 499.35 93.84 
" style="fill: none; stroke-dasharray: 5.55,2.4; stroke-dashoffset: 0; stroke: #ff7f0e; stroke-width: 1.5"/>
    </g>
    <g id="text_16">
     <!-- $\alpha=$1, $\beta=$1 -->
     <g transform="translate(511.35 99.09) scale(0.15 -0.15)">
      <use xlink:href="#DejaVuSans-Oblique-3b1" transform="translate(0 0.390625)"/>
      <use xlink:href="#DejaVuSans-3d" transform="translate(85.400391 0.390625)"/>
      <use xlink:href="#DejaVuSans-31" transform="translate(188.671875 0.390625)"/>
      <use xlink:href="#DejaVuSans-2c" transform="translate(252.294922 0.390625)"/>
      <use xlink:href="#DejaVuSans-20" transform="translate(284.082031 0.390625)"/>
      <use xlink:href="#DejaVuSans-Oblique-3b2" transform="translate(315.869141 0.390625)"/>
      <use xlink:href="#DejaVuSans-3d" transform="translate(399.169922 0.390625)"/>
      <use xlink:href="#DejaVuSans-31" transform="translate(502.441406 0.390625)"/>
     </g>
    </g>
    <g id="line2d_19">
     <path d="M 469.35 116.04 
L 484.35 116.04 
L 499.35 116.04 
" style="fill: none; stroke-dasharray: 9.6,2.4,1.5,2.4; stroke-dashoffset: 0; stroke: #2ca02c; stroke-width: 1.5"/>
    </g>
    <g id="text_17">
     <!-- $\alpha=$10, $\beta=$10 -->
     <g transform="translate(511.35 121.29) scale(0.15 -0.15)">
      <use xlink:href="#DejaVuSans-Oblique-3b1" transform="translate(0 0.390625)"/>
      <use xlink:href="#DejaVuSans-3d" transform="translate(85.400391 0.390625)"/>
      <use xlink:href="#DejaVuSans-31" transform="translate(188.671875 0.390625)"/>
      <use xlink:href="#DejaVuSans-30" transform="translate(252.294922 0.390625)"/>
      <use xlink:href="#DejaVuSans-2c" transform="translate(315.917969 0.390625)"/>
      <use xlink:href="#DejaVuSans-20" transform="translate(347.705078 0.390625)"/>
      <use xlink:href="#DejaVuSans-Oblique-3b2" transform="translate(379.492188 0.390625)"/>
      <use xlink:href="#DejaVuSans-3d" transform="translate(462.792969 0.390625)"/>
      <use xlink:href="#DejaVuSans-31" transform="translate(566.064453 0.390625)"/>
      <use xlink:href="#DejaVuSans-30" transform="translate(629.6875 0.390625)"/>
     </g>
    </g>
    <g id="line2d_20">
     <path d="M 469.35 138.24 
L 484.35 138.24 
L 499.35 138.24 
" style="fill: none; stroke-dasharray: 1.5,2.475; stroke-dashoffset: 0; stroke: #d62728; stroke-width: 1.5"/>
    </g>
    <g id="text_18">
     <!-- $\alpha=$100, $\beta=$100 -->
     <g transform="translate(511.35 143.49) scale(0.15 -0.15)">
      <use xlink:href="#DejaVuSans-Oblique-3b1" transform="translate(0 0.390625)"/>
      <use xlink:href="#DejaVuSans-3d" transform="translate(85.400391 0.390625)"/>
      <use xlink:href="#DejaVuSans-31" transform="translate(188.671875 0.390625)"/>
      <use xlink:href="#DejaVuSans-30" transform="translate(252.294922 0.390625)"/>
      <use xlink:href="#DejaVuSans-30" transform="translate(315.917969 0.390625)"/>
      <use xlink:href="#DejaVuSans-2c" transform="translate(379.541016 0.390625)"/>
      <use xlink:href="#DejaVuSans-20" transform="translate(411.328125 0.390625)"/>
      <use xlink:href="#DejaVuSans-Oblique-3b2" transform="translate(443.115234 0.390625)"/>
      <use xlink:href="#DejaVuSans-3d" transform="translate(526.416016 0.390625)"/>
      <use xlink:href="#DejaVuSans-31" transform="translate(629.6875 0.390625)"/>
      <use xlink:href="#DejaVuSans-30" transform="translate(693.310547 0.390625)"/>
      <use xlink:href="#DejaVuSans-30" transform="translate(756.933594 0.390625)"/>
     </g>
    </g>
   </g>
  </g>
 </g>
 <defs>
  <clipPath id="pe19e99e72d">
   <rect x="90" y="51.84" width="558" height="332.64"/>
  </clipPath>
 </defs>
</svg>
