<?xml version="1.0" encoding="utf-8" standalone="no"?>
<!DOCTYPE svg PUBLIC "-//W3C//DTD SVG 1.1//EN"
  "http://www.w3.org/Graphics/SVG/1.1/DTD/svg11.dtd">
<svg xmlns:xlink="http://www.w3.org/1999/xlink" width="720pt" height="432pt" viewBox="0 0 720 432" xmlns="http://www.w3.org/2000/svg" version="1.1">
 <metadata>
  <rdf:RDF xmlns:dc="http://purl.org/dc/elements/1.1/" xmlns:cc="http://creativecommons.org/ns#" xmlns:rdf="http://www.w3.org/1999/02/22-rdf-syntax-ns#">
   <cc:Work>
    <dc:type rdf:resource="http://purl.org/dc/dcmitype/StillImage"/>
    <dc:date>2026-04-13T20:12:52.798042</dc:date>
    <dc:format>image/svg+xml</dc:format>
    <dc:creator>
     <cc:Agent>
      <dc:title>Matplotlib v3.9.2, https://matplotlib.org/</dc:title>
     </cc:Agent>
    </dc:creator>
   </cc:Work>
  </rdf:RDF>
 </metadata>
 <defs>
  <style type="text/css">*{stroke-linejoin: round; stroke-linecap: butt}</style>
 </defs>
 <g id="figure_1">
  <g id="patch_1">
   <path d="M 0 432 
L 720 432 
L 720 0 
L 0 0 
z
" style="fill: #ffffff"/>
  </g>
  <g id="axes_1">
   <g id="patch_2">
    <path d="M 90 384.48 
L 648 384.48 
L 648 51.84 
L 90 51.84 
z
" style="fill: #ffffff"/>
   </g>
   <g id="patch_3">
    <path d="M 115.363636 384.48 
L 125.166008 384.48 
L 125.166008 384.48 
L 115.363636 384.48 
z
" clip-path="url(#p10d9812898)" style="fill: #808080"/>
   </g>
   <g id="patch_4">
    <path d="M 127.616601 384.48 
L 137.418972 384.48 
L 137.418972 384.48 
L 127.616601 384.48 
z
" clip-path="url(#p10d9812898)" style="fill: #808080"/>
   </g>
   <g id="patch_5">
    <path d="M 139.869565 384.48 
L 149.671937 384.48 
L 149.671937 384.48 
L 139.869565 384.48 
z
" clip-path="url(#p10d9812898)" style="fill: #808080"/>
   </g>
   <g id="patch_6">
    <path d="M 152.12253 384.48 
L 161.924901 384.48 
L 161.924901 384.48 
L 152.12253 384.48 
z
" clip-path="url(#p10d9812898)" style="fill: #808080"/>
   </g>
   <g id="patch_7">
    <path d="M 164.375494 384.48 
L 174.177866 384.48 
L 174.177866 384.48 
L 164.375494 384.48 
z
" clip-path="url(#p10d9812898)" style="fill: #808080"/>
   </g>
   <g id="patch_8">
    <path d="M 176.628458 384.48 
L 186.43083 384.48 
L 186.43083 384.48 
L 176.628458 384.48 
z
" clip-path="url(#p10d9812898)" style="fill: #808080"/>
   </g>
   <g id="patch_9">
    <path d="M 188.881423 384.48 
L 198.683794 384.48 
L 198.683794 384.48 
L 188.881423 384.48 
z
" clip-path="url(#p10d9812898)" style="fill: #808080"/>
   </g>
   <g id="patch_10">
    <path d="M 201.134387 384.48 
L 210.936759 384.48 
L 210.936759 384.48 
L 201.134387 384.48 
z
" clip-path="url(#p10d9812898)" style="fill: #808080"/>
   </g>
   <g id="patch_11">
    <path d="M 213.387352 384.48 
L 223.189723 384.48 
L 223.189723 378.08 
L 213.387352 378.08 
z
" clip-path="url(#p10d9812898)" style="fill: #808080"/>
   </g>
   <g id="patch_12">
    <path d="M 225.640316 384.48 
L 235.442688 384.48 
L 235.442688 374.88 
L 225.640316 374.88 
z
" clip-path="url(#p10d9812898)" style="fill: #808080"/>
   </g>
   <g id="patch_13">
    <path d="M 237.893281 384.48 
L 247.695652 384.48 
L 247.695652 362.08 
L 237.893281 362.08 
z
" clip-path="url(#p10d9812898)" style="fill: #808080"/>
   </g>
   <g id="patch_14">
    <path d="M 250.146245 384.48 
L 259.948617 384.48 
L 259.948617 339.68 
L 250.146245 339.68 
z
" clip-path="url(#p10d9812898)" style="fill: #808080"/>
   </g>
   <g id="patch_15">
    <path d="M 262.399209 384.48 
L 272.201581 384.48 
L 272.201581 336.48 
L 262.399209 336.48 
z
" clip-path="url(#p10d9812898)" style="fill: #808080"/>
   </g>
   <g id="patch_16">
    <path d="M 274.652174 384.48 
L 284.454545 384.48 
L 284.454545 294.88 
L 274.652174 294.88 
z
" clip-path="url(#p10d9812898)" style="fill: #808080"/>
   </g>
   <g id="patch_17">
    <path d="M 286.905138 384.48 
L 296.70751 384.48 
L 296.70751 240.48 
L 286.905138 240.48 
z
" clip-path="url(#p10d9812898)" style="fill: #808080"/>
   </g>
   <g id="patch_18">
    <path d="M 299.158103 384.48 
L 308.960474 384.48 
L 308.960474 275.68 
L 299.158103 275.68 
z
" clip-path="url(#p10d9812898)" style="fill: #808080"/>
   </g>
   <g id="patch_19">
    <path d="M 311.411067 384.48 
L 321.213439 384.48 
L 321.213439 195.68 
L 311.411067 195.68 
z
" clip-path="url(#p10d9812898)" style="fill: #808080"/>
   </g>
   <g id="patch_20">
    <path d="M 323.664032 384.48 
L 333.466403 384.48 
L 333.466403 109.28 
L 323.664032 109.28 
z
" clip-path="url(#p10d9812898)" style="fill: #808080"/>
   </g>
   <g id="patch_21">
    <path d="M 335.916996 384.48 
L 345.719368 384.48 
L 345.719368 106.08 
L 335.916996 106.08 
z
" clip-path="url(#p10d9812898)" style="fill: #808080"/>
   </g>
   <g id="patch_22">
    <path d="M 348.16996 384.48 
L 357.972332 384.48 
L 357.972332 67.68 
L 348.16996 67.68 
z
" clip-path="url(#p10d9812898)" style="fill: #808080"/>
   </g>
   <g id="patch_23">
    <path d="M 360.422925 384.48 
L 370.225296 384.48 
L 370.225296 109.28 
L 360.422925 109.28 
z
" clip-path="url(#p10d9812898)" style="fill: #808080"/>
   </g>
   <g id="patch_24">
    <path d="M 372.675889 384.48 
L 382.478261 384.48 
L 382.478261 138.08 
L 372.675889 138.08 
z
" clip-path="url(#p10d9812898)" style="fill: #808080"/>
   </g>
   <g id="patch_25">
    <path d="M 384.928854 384.48 
L 394.731225 384.48 
L 394.731225 99.68 
L 384.928854 99.68 
z
" clip-path="url(#p10d9812898)" style="fill: #808080"/>
   </g>
   <g id="patch_26">
    <path d="M 397.181818 384.48 
L 406.98419 384.48 
L 406.98419 195.68 
L 397.181818 195.68 
z
" clip-path="url(#p10d9812898)" style="fill: #808080"/>
   </g>
   <g id="patch_27">
    <path d="M 409.434783 384.48 
L 419.237154 384.48 
L 419.237154 208.48 
L 409.434783 208.48 
z
" clip-path="url(#p10d9812898)" style="fill: #808080"/>
   </g>
   <g id="patch_28">
    <path d="M 421.687747 384.48 
L 431.490119 384.48 
L 431.490119 208.48 
L 421.687747 208.48 
z
" clip-path="url(#p10d9812898)" style="fill: #808080"/>
   </g>
   <g id="patch_29">
    <path d="M 433.940711 384.48 
L 443.743083 384.48 
L 443.743083 278.88 
L 433.940711 278.88 
z
" clip-path="url(#p10d9812898)" style="fill: #808080"/>
   </g>
   <g id="patch_30">
    <path d="M 446.193676 384.48 
L 455.996047 384.48 
L 455.996047 304.48 
L 446.193676 304.48 
z
" clip-path="url(#p10d9812898)" style="fill: #808080"/>
   </g>
   <g id="patch_31">
    <path d="M 458.44664 384.48 
L 468.249012 384.48 
L 468.249012 339.68 
L 458.44664 339.68 
z
" clip-path="url(#p10d9812898)" style="fill: #808080"/>
   </g>
   <g id="patch_32">
    <path d="M 470.699605 384.48 
L 480.501976 384.48 
L 480.501976 342.88 
L 470.699605 342.88 
z
" clip-path="url(#p10d9812898)" style="fill: #808080"/>
   </g>
   <g id="patch_33">
    <path d="M 482.952569 384.48 
L 492.754941 384.48 
L 492.754941 374.88 
L 482.952569 374.88 
z
" clip-path="url(#p10d9812898)" style="fill: #808080"/>
   </g>
   <g id="patch_34">
    <path d="M 495.205534 384.48 
L 505.007905 384.48 
L 505.007905 358.88 
L 495.205534 358.88 
z
" clip-path="url(#p10d9812898)" style="fill: #808080"/>
   </g>
   <g id="patch_35">
    <path d="M 507.458498 384.48 
L 517.26087 384.48 
L 517.26087 381.28 
L 507.458498 381.28 
z
" clip-path="url(#p10d9812898)" style="fill: #808080"/>
   </g>
   <g id="patch_36">
    <path d="M 519.711462 384.48 
L 529.513834 384.48 
L 529.513834 381.28 
L 519.711462 381.28 
z
" clip-path="url(#p10d9812898)" style="fill: #808080"/>
   </g>
   <g id="patch_37">
    <path d="M 531.964427 384.48 
L 541.766798 384.48 
L 541.766798 384.48 
L 531.964427 384.48 
z
" clip-path="url(#p10d9812898)" style="fill: #808080"/>
   </g>
   <g id="patch_38">
    <path d="M 544.217391 384.48 
L 554.019763 384.48 
L 554.019763 381.28 
L 544.217391 381.28 
z
" clip-path="url(#p10d9812898)" style="fill: #808080"/>
   </g>
   <g id="patch_39">
    <path d="M 556.470356 384.48 
L 566.272727 384.48 
L 566.272727 384.48 
L 556.470356 384.48 
z
" clip-path="url(#p10d9812898)" style="fill: #808080"/>
   </g>
   <g id="patch_40">
    <path d="M 568.72332 384.48 
L 578.525692 384.48 
L 578.525692 381.28 
L 568.72332 381.28 
z
" clip-path="url(#p10d9812898)" style="fill: #808080"/>
   </g>
   <g id="matplotlib.axis_1">
    <g id="xtick_1">
     <g id="line2d_1">
      <defs>
       <path id="mff05d48f1e" d="M 0 0 
L 0 3.5 
" style="stroke: #000000; stroke-width: 0.8"/>
      </defs>
      <g>
       <use xlink:href="#mff05d48f1e" x="120.264822" y="384.48" style="stroke: #000000; stroke-width: 0.8"/>
      </g>
     </g>
     <g id="text_1">
      <!-- 0 -->
      <g transform="translate(117.083572 399.078438) scale(0.1 -0.1)">
       <defs>
        <path id="DejaVuSans-30" d="M 2034 4250 
Q 1547 4250 1301 3770 
Q 1056 3291 1056 2328 
Q 1056 1369 1301 889 
Q 1547 409 2034 409 
Q 2525 409 2770 889 
Q 3016 1369 3016 2328 
Q 3016 3291 2770 3770 
Q 2525 4250 2034 4250 
z
M 2034 4750 
Q 2819 4750 3233 4129 
Q 3647 3509 3647 2328 
Q 3647 1150 3233 529 
Q 2819 -91 2034 -91 
Q 1250 -91 836 529 
Q 422 1150 422 2328 
Q 422 3509 836 4129 
Q 1250 4750 2034 4750 
z
" transform="scale(0.015625)"/>
       </defs>
       <use xlink:href="#DejaVuSans-30"/>
      </g>
     </g>
    </g>
    <g id="xtick_2">
     <g id="line2d_2">
      <g>
       <use xlink:href="#mff05d48f1e" x="242.794466" y="384.48" style="stroke: #000000; stroke-width: 0.8"/>
      </g>
     </g>
     <g id="text_2">
      <!-- 10 -->
      <g transform="translate(236.431966 399.078438) scale(0.1 -0.1)">
       <defs>
        <path id="DejaVuSans-31" d="M 794 531 
L 1825 531 
L 1825 4091 
L 703 3866 
L 703 4441 
L 1819 4666 
L 2450 4666 
L 2450 531 
L 3481 531 
L 3481 0 
L 794 0 
L 794 531 
z
" transform="scale(0.015625)"/>
       </defs>
       <use xlink:href="#DejaVuSans-31"/>
       <use xlink:href="#DejaVuSans-30" x="63.623047"/>
      </g>
     </g>
    </g>
    <g id="xtick_3">
     <g id="line2d_3">
      <g>
       <use xlink:href="#mff05d48f1e" x="365.324111" y="384.48" style="stroke: #000000; stroke-width: 0.8"/>
      </g>
     </g>
     <g id="text_3">
      <!-- 20 -->
      <g transform="translate(358.961611 399.078438) scale(0.1 -0.1)">
       <defs>
        <path id="DejaVuSans-32" d="M 1228 531 
L 3431 531 
L 3431 0 
L 469 0 
L 469 531 
Q 828 903 1448 1529 
Q 2069 2156 2228 2338 
Q 2531 2678 2651 2914 
Q 2772 3150 2772 3378 
Q 2772 3750 2511 3984 
Q 2250 4219 1831 4219 
Q 1534 4219 1204 4116 
Q 875 4013 500 3803 
L 500 4441 
Q 881 4594 1212 4672 
Q 1544 4750 1819 4750 
Q 2544 4750 2975 4387 
Q 3406 4025 3406 3419 
Q 3406 3131 3298 2873 
Q 3191 2616 2906 2266 
Q 2828 2175 2409 1742 
Q 1991 1309 1228 531 
z
" transform="scale(0.015625)"/>
       </defs>
       <use xlink:href="#DejaVuSans-32"/>
       <use xlink:href="#DejaVuSans-30" x="63.623047"/>
      </g>
     </g>
    </g>
    <g id="xtick_4">
     <g id="line2d_4">
      <g>
       <use xlink:href="#mff05d48f1e" x="487.853755" y="384.48" style="stroke: #000000; stroke-width: 0.8"/>
      </g>
     </g>
     <g id="text_4">
      <!-- 30 -->
      <g transform="translate(481.491255 399.078438) scale(0.1 -0.1)">
       <defs>
        <path id="DejaVuSans-33" d="M 2597 2516 
Q 3050 2419 3304 2112 
Q 3559 1806 3559 1356 
Q 3559 666 3084 287 
Q 2609 -91 1734 -91 
Q 1441 -91 1130 -33 
Q 819 25 488 141 
L 488 750 
Q 750 597 1062 519 
Q 1375 441 1716 441 
Q 2309 441 2620 675 
Q 2931 909 2931 1356 
Q 2931 1769 2642 2001 
Q 2353 2234 1838 2234 
L 1294 2234 
L 1294 2753 
L 1863 2753 
Q 2328 2753 2575 2939 
Q 2822 3125 2822 3475 
Q 2822 3834 2567 4026 
Q 2313 4219 1838 4219 
Q 1578 4219 1281 4162 
Q 984 4106 628 3988 
L 628 4550 
Q 988 4650 1302 4700 
Q 1616 4750 1894 4750 
Q 2613 4750 3031 4423 
Q 3450 4097 3450 3541 
Q 3450 3153 3228 2886 
Q 3006 2619 2597 2516 
z
" transform="scale(0.015625)"/>
       </defs>
       <use xlink:href="#DejaVuSans-33"/>
       <use xlink:href="#DejaVuSans-30" x="63.623047"/>
      </g>
     </g>
    </g>
    <g id="xtick_5">
     <g id="line2d_5">
      <g>
       <use xlink:href="#mff05d48f1e" x="610.383399" y="384.48" style="stroke: #000000; stroke-width: 0.8"/>
      </g>
     </g>
     <g id="text_5">
      <!-- 40 -->
      <g transform="translate(604.020899 399.078438) scale(0.1 -0.1)">
       <defs>
        <path id="DejaVuSans-34" d="M 2419 4116 
L 825 1625 
L 2419 1625 
L 2419 4116 
z
M 2253 4666 
L 3047 4666 
L 3047 1625 
L 3713 1625 
L 3713 1100 
L 3047 1100 
L 3047 0 
L 2419 0 
L 2419 1100 
L 313 1100 
L 313 1709 
L 2253 4666 
z
" transform="scale(0.015625)"/>
       </defs>
       <use xlink:href="#DejaVuSans-34"/>
       <use xlink:href="#DejaVuSans-30" x="63.623047"/>
      </g>
     </g>
    </g>
    <g id="text_6">
     <!-- k -->
     <g transform="translate(363.209375 420.355) scale(0.2 -0.2)">
      <defs>
       <path id="DejaVuSans-6b" d="M 581 4863 
L 1159 4863 
L 1159 1991 
L 2875 3500 
L 3609 3500 
L 1753 1863 
L 3688 0 
L 2938 0 
L 1159 1709 
L 1159 0 
L 581 0 
L 581 4863 
z
" transform="scale(0.015625)"/>
      </defs>
      <use xlink:href="#DejaVuSans-6b"/>
     </g>
    </g>
   </g>
   <g id="matplotlib.axis_2">
    <g id="ytick_1">
     <g id="line2d_6">
      <defs>
       <path id="m425534e9c8" d="M 0 0 
L -3.5 0 
" style="stroke: #000000; stroke-width: 0.8"/>
      </defs>
      <g>
       <use xlink:href="#m425534e9c8" x="90" y="384.48" style="stroke: #000000; stroke-width: 0.8"/>
      </g>
     </g>
     <g id="text_7">
      <!-- 0.00 -->
      <g transform="translate(60.734375 388.279219) scale(0.1 -0.1)">
       <defs>
        <path id="DejaVuSans-2e" d="M 684 794 
L 1344 794 
L 1344 0 
L 684 0 
L 684 794 
z
" transform="scale(0.015625)"/>
       </defs>
       <use xlink:href="#DejaVuSans-30"/>
       <use xlink:href="#DejaVuSans-2e" x="63.623047"/>
       <use xlink:href="#DejaVuSans-30" x="95.410156"/>
       <use xlink:href="#DejaVuSans-30" x="159.033203"/>
      </g>
     </g>
    </g>
    <g id="ytick_2">
     <g id="line2d_7">
      <g>
       <use xlink:href="#m425534e9c8" x="90" y="320.48" style="stroke: #000000; stroke-width: 0.8"/>
      </g>
     </g>
     <g id="text_8">
      <!-- 0.02 -->
      <g transform="translate(60.734375 324.279219) scale(0.1 -0.1)">
       <use xlink:href="#DejaVuSans-30"/>
       <use xlink:href="#DejaVuSans-2e" x="63.623047"/>
       <use xlink:href="#DejaVuSans-30" x="95.410156"/>
       <use xlink:href="#DejaVuSans-32" x="159.033203"/>
      </g>
     </g>
    </g>
    <g id="ytick_3">
     <g id="line2d_8">
      <g>
       <use xlink:href="#m425534e9c8" x="90" y="256.48" style="stroke: #000000; stroke-width: 0.8"/>
      </g>
     </g>
     <g id="text_9">
      <!-- 0.04 -->
      <g transform="translate(60.734375 260.279219) scale(0.1 -0.1)">
       <use xlink:href="#DejaVuSans-30"/>
       <use xlink:href="#DejaVuSans-2e" x="63.623047"/>
       <use xlink:href="#DejaVuSans-30" x="95.410156"/>
       <use xlink:href="#DejaVuSans-34" x="159.033203"/>
      </g>
     </g>
    </g>
    <g id="ytick_4">
     <g id="line2d_9">
      <g>
       <use xlink:href="#m425534e9c8" x="90" y="192.48" style="stroke: #000000; stroke-width: 0.8"/>
      </g>
     </g>
     <g id="text_10">
      <!-- 0.06 -->
      <g transform="translate(60.734375 196.279219) scale(0.1 -0.1)">
       <defs>
        <path id="DejaVuSans-36" d="M 2113 2584 
Q 1688 2584 1439 2293 
Q 1191 2003 1191 1497 
Q 1191 994 1439 701 
Q 1688 409 2113 409 
Q 2538 409 2786 701 
Q 3034 994 3034 1497 
Q 3034 2003 2786 2293 
Q 2538 2584 2113 2584 
z
M 3366 4563 
L 3366 3988 
Q 3128 4100 2886 4159 
Q 2644 4219 2406 4219 
Q 1781 4219 1451 3797 
Q 1122 3375 1075 2522 
Q 1259 2794 1537 2939 
Q 1816 3084 2150 3084 
Q 2853 3084 3261 2657 
Q 3669 2231 3669 1497 
Q 3669 778 3244 343 
Q 2819 -91 2113 -91 
Q 1303 -91 875 529 
Q 447 1150 447 2328 
Q 447 3434 972 4092 
Q 1497 4750 2381 4750 
Q 2619 4750 2861 4703 
Q 3103 4656 3366 4563 
z
" transform="scale(0.015625)"/>
       </defs>
       <use xlink:href="#DejaVuSans-30"/>
       <use xlink:href="#DejaVuSans-2e" x="63.623047"/>
       <use xlink:href="#DejaVuSans-30" x="95.410156"/>
       <use xlink:href="#DejaVuSans-36" x="159.033203"/>
      </g>
     </g>
    </g>
    <g id="ytick_5">
     <g id="line2d_10">
      <g>
       <use xlink:href="#m425534e9c8" x="90" y="128.48" style="stroke: #000000; stroke-width: 0.8"/>
      </g>
     </g>
     <g id="text_11">
      <!-- 0.08 -->
      <g transform="translate(60.734375 132.279219) scale(0.1 -0.1)">
       <defs>
        <path id="DejaVuSans-38" d="M 2034 2216 
Q 1584 2216 1326 1975 
Q 1069 1734 1069 1313 
Q 1069 891 1326 650 
Q 1584 409 2034 409 
Q 2484 409 2743 651 
Q 3003 894 3003 1313 
Q 3003 1734 2745 1975 
Q 2488 2216 2034 2216 
z
M 1403 2484 
Q 997 2584 770 2862 
Q 544 3141 544 3541 
Q 544 4100 942 4425 
Q 1341 4750 2034 4750 
Q 2731 4750 3128 4425 
Q 3525 4100 3525 3541 
Q 3525 3141 3298 2862 
Q 3072 2584 2669 2484 
Q 3125 2378 3379 2068 
Q 3634 1759 3634 1313 
Q 3634 634 3220 271 
Q 2806 -91 2034 -91 
Q 1263 -91 848 271 
Q 434 634 434 1313 
Q 434 1759 690 2068 
Q 947 2378 1403 2484 
z
M 1172 3481 
Q 1172 3119 1398 2916 
Q 1625 2713 2034 2713 
Q 2441 2713 2670 2916 
Q 2900 3119 2900 3481 
Q 2900 3844 2670 4047 
Q 2441 4250 2034 4250 
Q 1625 4250 1398 4047 
Q 1172 3844 1172 3481 
z
" transform="scale(0.015625)"/>
       </defs>
       <use xlink:href="#DejaVuSans-30"/>
       <use xlink:href="#DejaVuSans-2e" x="63.623047"/>
       <use xlink:href="#DejaVuSans-30" x="95.410156"/>
       <use xlink:href="#DejaVuSans-38" x="159.033203"/>
      </g>
     </g>
    </g>
    <g id="ytick_6">
     <g id="line2d_11">
      <g>
       <use xlink:href="#m425534e9c8" x="90" y="64.48" style="stroke: #000000; stroke-width: 0.8"/>
      </g>
     </g>
     <g id="text_12">
      <!-- 0.10 -->
      <g transform="translate(60.734375 68.279219) scale(0.1 -0.1)">
       <use xlink:href="#DejaVuSans-30"/>
       <use xlink:href="#DejaVuSans-2e" x="63.623047"/>
       <use xlink:href="#DejaVuSans-31" x="95.410156"/>
       <use xlink:href="#DejaVuSans-30" x="159.033203"/>
      </g>
     </g>
    </g>
    <g id="text_13">
     <!-- P(k) -->
     <g transform="translate(52.575 237.783437) rotate(-90) scale(0.2 -0.2)">
      <defs>
       <path id="DejaVuSans-50" d="M 1259 4147 
L 1259 2394 
L 2053 2394 
Q 2494 2394 2734 2622 
Q 2975 2850 2975 3272 
Q 2975 3691 2734 3919 
Q 2494 4147 2053 4147 
L 1259 4147 
z
M 628 4666 
L 2053 4666 
Q 2838 4666 3239 4311 
Q 3641 3956 3641 3272 
Q 3641 2581 3239 2228 
Q 2838 1875 2053 1875 
L 1259 1875 
L 1259 0 
L 628 0 
L 628 4666 
z
" transform="scale(0.015625)"/>
       <path id="DejaVuSans-28" d="M 1984 4856 
Q 1566 4138 1362 3434 
Q 1159 2731 1159 2009 
Q 1159 1288 1364 580 
Q 1569 -128 1984 -844 
L 1484 -844 
Q 1016 -109 783 600 
Q 550 1309 550 2009 
Q 550 2706 781 3412 
Q 1013 4119 1484 4856 
L 1984 4856 
z
" transform="scale(0.015625)"/>
       <path id="DejaVuSans-29" d="M 513 4856 
L 1013 4856 
Q 1481 4119 1714 3412 
Q 1947 2706 1947 2009 
Q 1947 1309 1714 600 
Q 1481 -109 1013 -844 
L 513 -844 
Q 928 -128 1133 580 
Q 1338 1288 1338 2009 
Q 1338 2731 1133 3434 
Q 928 4138 513 4856 
z
" transform="scale(0.015625)"/>
      </defs>
      <use xlink:href="#DejaVuSans-50"/>
      <use xlink:href="#DejaVuSans-28" x="60.302734"/>
      <use xlink:href="#DejaVuSans-6b" x="99.316406"/>
      <use xlink:href="#DejaVuSans-29" x="157.226562"/>
     </g>
    </g>
   </g>
   <g id="line2d_12">
    <path d="M 120.264822 384.479993 
L 132.517787 384.479868 
L 144.770751 384.478681 
L 157.023715 384.471206 
L 169.27668 384.436029 
L 181.529644 384.304115 
L 193.782609 383.893716 
L 206.035573 382.804904 
L 218.288538 380.292259 
L 230.541502 375.17391 
L 242.794466 365.867819 
L 255.047431 350.639671 
L 267.300395 328.079452 
L 279.55336 297.709926 
L 291.806324 260.522752 
L 304.059289 219.203669 
L 316.312253 177.884586 
L 328.565217 141.426572 
L 340.818182 114.420635 
L 353.071146 100.206984 
L 365.324111 100.206984 
L 377.577075 113.743795 
L 389.83004 138.356177 
L 402.083004 170.459284 
L 414.335968 206.129404 
L 426.588933 241.799523 
L 438.841897 274.725787 
L 451.094862 303.180583 
L 463.347826 326.408988 
L 475.600791 344.431026 
L 487.853755 357.780684 
L 500.106719 367.254635 
L 512.359684 373.714147 
L 524.612648 377.95524 
L 536.865613 380.641906 
L 549.118577 382.286804 
L 561.371542 383.261558 
L 573.624506 383.821382 
L 585.87747 384.133359 
L 598.130435 384.302235 
L 610.383399 384.391118 
L 622.636364 384.436643 
" clip-path="url(#p10d9812898)" style="fill: none; stroke-dasharray: 5.55,2.4; stroke-dashoffset: 0; stroke: #000000; stroke-width: 1.5"/>
   </g>
   <g id="line2d_13">
    <path d="M 120.264822 384.479995 
L 132.517787 384.47989 
L 144.770751 384.47888 
L 157.023715 384.472395 
L 169.27668 384.441313 
L 181.529644 384.322723 
L 193.782609 383.947711 
L 206.035573 382.937425 
L 218.288538 380.572354 
L 230.541502 375.689904 
L 242.794466 366.702278 
L 255.047431 351.826704 
L 267.300395 329.557534 
L 279.55336 299.293429 
L 291.806324 261.91476 
L 304.059289 220.058126 
L 316.312253 177.902977 
L 328.565217 140.455229 
L 340.818182 112.510501 
L 353.071146 97.611468 
L 365.324111 97.318446 
L 377.577075 110.992806 
L 389.83004 136.109236 
L 402.083004 168.946637 
L 414.335968 205.419256 
L 426.588933 241.81669 
L 438.841897 275.299467 
L 451.094862 304.101187 
L 463.347826 327.477077 
L 475.600791 345.488884 
L 487.853755 358.724888 
L 500.106719 368.033525 
L 512.359684 374.316448 
L 524.612648 378.395774 
L 536.865613 380.948568 
L 549.118577 382.490896 
L 561.371542 383.391874 
L 573.624506 383.901436 
L 585.87747 384.18078 
L 598.130435 384.329375 
L 610.383399 384.406149 
L 622.636364 384.444711 
" clip-path="url(#p10d9812898)" style="fill: none; stroke: #000000; stroke-width: 1.5; stroke-linecap: square"/>
   </g>
   <g id="patch_41">
    <path d="M 90 384.48 
L 90 51.84 
" style="fill: none; stroke: #000000; stroke-width: 0.8; stroke-linejoin: miter; stroke-linecap: square"/>
   </g>
   <g id="patch_42">
    <path d="M 648 384.48 
L 648 51.84 
" style="fill: none; stroke: #000000; stroke-width: 0.8; stroke-linejoin: miter; stroke-linecap: square"/>
   </g>
   <g id="patch_43">
    <path d="M 90 384.48 
L 648 384.48 
" style="fill: none; stroke: #000000; stroke-width: 0.8; stroke-linejoin: miter; stroke-linecap: square"/>
   </g>
   <g id="patch_44">
    <path d="M 90 51.84 
L 648 51.84 
" style="fill: none; stroke: #000000; stroke-width: 0.8; stroke-linejoin: miter; stroke-linecap: square"/>
   </g>
   <g id="legend_1">
    <g id="patch_45">
     <path d="M 415.495313 107.930625 
L 637.5 107.930625 
Q 640.5 107.930625 640.5 104.930625 
L 640.5 62.34 
Q 640.5 59.34 637.5 59.34 
L 415.495313 59.34 
Q 412.495313 59.34 412.495313 62.34 
L 412.495313 104.930625 
Q 412.495313 107.930625 415.495313 107.930625 
z
" style="fill: #ffffff; opacity: 0.8; stroke: #cccccc; stroke-linejoin: miter"/>
    </g>
    <g id="line2d_14">
     <path d="M 418.495313 71.515781 
L 433.495313 71.515781 
L 448.495313 71.515781 
" style="fill: none; stroke-dasharray: 5.55,2.4; stroke-dashoffset: 0; stroke: #000000; stroke-width: 1.5"/>
    </g>
    <g id="text_14">
     <!-- Distribuição de Poisson -->
     <g transform="translate(460.495313 76.765781) scale(0.15 -0.15)">
      <defs>
       <path id="DejaVuSans-44" d="M 1259 4147 
L 1259 519 
L 2022 519 
Q 2988 519 3436 956 
Q 3884 1394 3884 2338 
Q 3884 3275 3436 3711 
Q 2988 4147 2022 4147 
L 1259 4147 
z
M 628 4666 
L 1925 4666 
Q 3281 4666 3915 4102 
Q 4550 3538 4550 2338 
Q 4550 1131 3912 565 
Q 3275 0 1925 0 
L 628 0 
L 628 4666 
z
" transform="scale(0.015625)"/>
       <path id="DejaVuSans-69" d="M 603 3500 
L 1178 3500 
L 1178 0 
L 603 0 
L 603 3500 
z
M 603 4863 
L 1178 4863 
L 1178 4134 
L 603 4134 
L 603 4863 
z
" transform="scale(0.015625)"/>
       <path id="DejaVuSans-73" d="M 2834 3397 
L 2834 2853 
Q 2591 2978 2328 3040 
Q 2066 3103 1784 3103 
Q 1356 3103 1142 2972 
Q 928 2841 928 2578 
Q 928 2378 1081 2264 
Q 1234 2150 1697 2047 
L 1894 2003 
Q 2506 1872 2764 1633 
Q 3022 1394 3022 966 
Q 3022 478 2636 193 
Q 2250 -91 1575 -91 
Q 1294 -91 989 -36 
Q 684 19 347 128 
L 347 722 
Q 666 556 975 473 
Q 1284 391 1588 391 
Q 1994 391 2212 530 
Q 2431 669 2431 922 
Q 2431 1156 2273 1281 
Q 2116 1406 1581 1522 
L 1381 1569 
Q 847 1681 609 1914 
Q 372 2147 372 2553 
Q 372 3047 722 3315 
Q 1072 3584 1716 3584 
Q 2034 3584 2315 3537 
Q 2597 3491 2834 3397 
z
" transform="scale(0.015625)"/>
       <path id="DejaVuSans-74" d="M 1172 4494 
L 1172 3500 
L 2356 3500 
L 2356 3053 
L 1172 3053 
L 1172 1153 
Q 1172 725 1289 603 
Q 1406 481 1766 481 
L 2356 481 
L 2356 0 
L 1766 0 
Q 1100 0 847 248 
Q 594 497 594 1153 
L 594 3053 
L 172 3053 
L 172 3500 
L 594 3500 
L 594 4494 
L 1172 4494 
z
" transform="scale(0.015625)"/>
       <path id="DejaVuSans-72" d="M 2631 2963 
Q 2534 3019 2420 3045 
Q 2306 3072 2169 3072 
Q 1681 3072 1420 2755 
Q 1159 2438 1159 1844 
L 1159 0 
L 581 0 
L 581 3500 
L 1159 3500 
L 1159 2956 
Q 1341 3275 1631 3429 
Q 1922 3584 2338 3584 
Q 2397 3584 2469 3576 
Q 2541 3569 2628 3553 
L 2631 2963 
z
" transform="scale(0.015625)"/>
       <path id="DejaVuSans-62" d="M 3116 1747 
Q 3116 2381 2855 2742 
Q 2594 3103 2138 3103 
Q 1681 3103 1420 2742 
Q 1159 2381 1159 1747 
Q 1159 1113 1420 752 
Q 1681 391 2138 391 
Q 2594 391 2855 752 
Q 3116 1113 3116 1747 
z
M 1159 2969 
Q 1341 3281 1617 3432 
Q 1894 3584 2278 3584 
Q 2916 3584 3314 3078 
Q 3713 2572 3713 1747 
Q 3713 922 3314 415 
Q 2916 -91 2278 -91 
Q 1894 -91 1617 61 
Q 1341 213 1159 525 
L 1159 0 
L 581 0 
L 581 4863 
L 1159 4863 
L 1159 2969 
z
" transform="scale(0.015625)"/>
       <path id="DejaVuSans-75" d="M 544 1381 
L 544 3500 
L 1119 3500 
L 1119 1403 
Q 1119 906 1312 657 
Q 1506 409 1894 409 
Q 2359 409 2629 706 
Q 2900 1003 2900 1516 
L 2900 3500 
L 3475 3500 
L 3475 0 
L 2900 0 
L 2900 538 
Q 2691 219 2414 64 
Q 2138 -91 1772 -91 
Q 1169 -91 856 284 
Q 544 659 544 1381 
z
M 1991 3584 
L 1991 3584 
z
" transform="scale(0.015625)"/>
       <path id="DejaVuSans-e7" d="M 3122 3366 
L 3122 2828 
Q 2878 2963 2633 3030 
Q 2388 3097 2138 3097 
Q 1578 3097 1268 2742 
Q 959 2388 959 1747 
Q 959 1106 1268 751 
Q 1578 397 2138 397 
Q 2388 397 2633 464 
Q 2878 531 3122 666 
L 3122 134 
Q 2881 22 2623 -34 
Q 2366 -91 2075 -91 
Q 1284 -91 818 406 
Q 353 903 353 1747 
Q 353 2603 823 3093 
Q 1294 3584 2113 3584 
Q 2378 3584 2631 3529 
Q 2884 3475 3122 3366 
z
M 2309 0 
Q 2481 -194 2565 -358 
Q 2650 -522 2650 -672 
Q 2650 -950 2462 -1092 
Q 2275 -1234 1906 -1234 
Q 1763 -1234 1627 -1215 
Q 1491 -1197 1356 -1159 
L 1356 -750 
Q 1463 -803 1578 -826 
Q 1694 -850 1841 -850 
Q 2025 -850 2119 -775 
Q 2213 -700 2213 -556 
Q 2213 -463 2145 -327 
Q 2078 -191 1938 0 
L 2309 0 
z
" transform="scale(0.015625)"/>
       <path id="DejaVuSans-e3" d="M 2194 1759 
Q 1497 1759 1228 1600 
Q 959 1441 959 1056 
Q 959 750 1161 570 
Q 1363 391 1709 391 
Q 2188 391 2477 730 
Q 2766 1069 2766 1631 
L 2766 1759 
L 2194 1759 
z
M 3341 1997 
L 3341 0 
L 2766 0 
L 2766 531 
Q 2569 213 2275 61 
Q 1981 -91 1556 -91 
Q 1019 -91 701 211 
Q 384 513 384 1019 
Q 384 1609 779 1909 
Q 1175 2209 1959 2209 
L 2766 2209 
L 2766 2266 
Q 2766 2663 2505 2880 
Q 2244 3097 1772 3097 
Q 1472 3097 1187 3025 
Q 903 2953 641 2809 
L 641 3341 
Q 956 3463 1253 3523 
Q 1550 3584 1831 3584 
Q 2591 3584 2966 3190 
Q 3341 2797 3341 1997 
z
M 1844 4281 
L 1666 4453 
Q 1597 4516 1545 4545 
Q 1494 4575 1453 4575 
Q 1334 4575 1278 4461 
Q 1222 4347 1216 4091 
L 825 4091 
Q 831 4513 990 4742 
Q 1150 4972 1434 4972 
Q 1553 4972 1653 4928 
Q 1753 4884 1869 4781 
L 2047 4609 
Q 2116 4547 2167 4517 
Q 2219 4488 2259 4488 
Q 2378 4488 2434 4602 
Q 2491 4716 2497 4972 
L 2888 4972 
Q 2881 4550 2722 4320 
Q 2563 4091 2278 4091 
Q 2159 4091 2059 4134 
Q 1959 4178 1844 4281 
z
" transform="scale(0.015625)"/>
       <path id="DejaVuSans-6f" d="M 1959 3097 
Q 1497 3097 1228 2736 
Q 959 2375 959 1747 
Q 959 1119 1226 758 
Q 1494 397 1959 397 
Q 2419 397 2687 759 
Q 2956 1122 2956 1747 
Q 2956 2369 2687 2733 
Q 2419 3097 1959 3097 
z
M 1959 3584 
Q 2709 3584 3137 3096 
Q 3566 2609 3566 1747 
Q 3566 888 3137 398 
Q 2709 -91 1959 -91 
Q 1206 -91 779 398 
Q 353 888 353 1747 
Q 353 2609 779 3096 
Q 1206 3584 1959 3584 
z
" transform="scale(0.015625)"/>
       <path id="DejaVuSans-20" transform="scale(0.015625)"/>
       <path id="DejaVuSans-64" d="M 2906 2969 
L 2906 4863 
L 3481 4863 
L 3481 0 
L 2906 0 
L 2906 525 
Q 2725 213 2448 61 
Q 2172 -91 1784 -91 
Q 1150 -91 751 415 
Q 353 922 353 1747 
Q 353 2572 751 3078 
Q 1150 3584 1784 3584 
Q 2172 3584 2448 3432 
Q 2725 3281 2906 2969 
z
M 947 1747 
Q 947 1113 1208 752 
Q 1469 391 1925 391 
Q 2381 391 2643 752 
Q 2906 1113 2906 1747 
Q 2906 2381 2643 2742 
Q 2381 3103 1925 3103 
Q 1469 3103 1208 2742 
Q 947 2381 947 1747 
z
" transform="scale(0.015625)"/>
       <path id="DejaVuSans-65" d="M 3597 1894 
L 3597 1613 
L 953 1613 
Q 991 1019 1311 708 
Q 1631 397 2203 397 
Q 2534 397 2845 478 
Q 3156 559 3463 722 
L 3463 178 
Q 3153 47 2828 -22 
Q 2503 -91 2169 -91 
Q 1331 -91 842 396 
Q 353 884 353 1716 
Q 353 2575 817 3079 
Q 1281 3584 2069 3584 
Q 2775 3584 3186 3129 
Q 3597 2675 3597 1894 
z
M 3022 2063 
Q 3016 2534 2758 2815 
Q 2500 3097 2075 3097 
Q 1594 3097 1305 2825 
Q 1016 2553 972 2059 
L 3022 2063 
z
" transform="scale(0.015625)"/>
       <path id="DejaVuSans-6e" d="M 3513 2113 
L 3513 0 
L 2938 0 
L 2938 2094 
Q 2938 2591 2744 2837 
Q 2550 3084 2163 3084 
Q 1697 3084 1428 2787 
Q 1159 2491 1159 1978 
L 1159 0 
L 581 0 
L 581 3500 
L 1159 3500 
L 1159 2956 
Q 1366 3272 1645 3428 
Q 1925 3584 2291 3584 
Q 2894 3584 3203 3211 
Q 3513 2838 3513 2113 
z
" transform="scale(0.015625)"/>
      </defs>
      <use xlink:href="#DejaVuSans-44"/>
      <use xlink:href="#DejaVuSans-69" x="77.001953"/>
      <use xlink:href="#DejaVuSans-73" x="104.785156"/>
      <use xlink:href="#DejaVuSans-74" x="156.884766"/>
      <use xlink:href="#DejaVuSans-72" x="196.09375"/>
      <use xlink:href="#DejaVuSans-69" x="237.207031"/>
      <use xlink:href="#DejaVuSans-62" x="264.990234"/>
      <use xlink:href="#DejaVuSans-75" x="328.466797"/>
      <use xlink:href="#DejaVuSans-69" x="391.845703"/>
      <use xlink:href="#DejaVuSans-e7" x="419.628906"/>
      <use xlink:href="#DejaVuSans-e3" x="474.609375"/>
      <use xlink:href="#DejaVuSans-6f" x="535.888672"/>
      <use xlink:href="#DejaVuSans-20" x="597.070312"/>
      <use xlink:href="#DejaVuSans-64" x="628.857422"/>
      <use xlink:href="#DejaVuSans-65" x="692.333984"/>
      <use xlink:href="#DejaVuSans-20" x="753.857422"/>
      <use xlink:href="#DejaVuSans-50" x="785.644531"/>
      <use xlink:href="#DejaVuSans-6f" x="842.322266"/>
      <use xlink:href="#DejaVuSans-69" x="903.503906"/>
      <use xlink:href="#DejaVuSans-73" x="931.287109"/>
      <use xlink:href="#DejaVuSans-73" x="983.386719"/>
      <use xlink:href="#DejaVuSans-6f" x="1035.486328"/>
      <use xlink:href="#DejaVuSans-6e" x="1096.667969"/>
     </g>
    </g>
    <g id="line2d_15">
     <path d="M 418.495313 93.561094 
L 433.495313 93.561094 
L 448.495313 93.561094 
" style="fill: none; stroke: #000000; stroke-width: 1.5; stroke-linecap: square"/>
    </g>
    <g id="text_15">
     <!-- Distribuição binomial -->
     <g transform="translate(460.495313 98.811094) scale(0.15 -0.15)">
      <defs>
       <path id="DejaVuSans-6d" d="M 3328 2828 
Q 3544 3216 3844 3400 
Q 4144 3584 4550 3584 
Q 5097 3584 5394 3201 
Q 5691 2819 5691 2113 
L 5691 0 
L 5113 0 
L 5113 2094 
Q 5113 2597 4934 2840 
Q 4756 3084 4391 3084 
Q 3944 3084 3684 2787 
Q 3425 2491 3425 1978 
L 3425 0 
L 2847 0 
L 2847 2094 
Q 2847 2600 2669 2842 
Q 2491 3084 2119 3084 
Q 1678 3084 1418 2786 
Q 1159 2488 1159 1978 
L 1159 0 
L 581 0 
L 581 3500 
L 1159 3500 
L 1159 2956 
Q 1356 3278 1631 3431 
Q 1906 3584 2284 3584 
Q 2666 3584 2933 3390 
Q 3200 3197 3328 2828 
z
" transform="scale(0.015625)"/>
       <path id="DejaVuSans-61" d="M 2194 1759 
Q 1497 1759 1228 1600 
Q 959 1441 959 1056 
Q 959 750 1161 570 
Q 1363 391 1709 391 
Q 2188 391 2477 730 
Q 2766 1069 2766 1631 
L 2766 1759 
L 2194 1759 
z
M 3341 1997 
L 3341 0 
L 2766 0 
L 2766 531 
Q 2569 213 2275 61 
Q 1981 -91 1556 -91 
Q 1019 -91 701 211 
Q 384 513 384 1019 
Q 384 1609 779 1909 
Q 1175 2209 1959 2209 
L 2766 2209 
L 2766 2266 
Q 2766 2663 2505 2880 
Q 2244 3097 1772 3097 
Q 1472 3097 1187 3025 
Q 903 2953 641 2809 
L 641 3341 
Q 956 3463 1253 3523 
Q 1550 3584 1831 3584 
Q 2591 3584 2966 3190 
Q 3341 2797 3341 1997 
z
" transform="scale(0.015625)"/>
       <path id="DejaVuSans-6c" d="M 603 4863 
L 1178 4863 
L 1178 0 
L 603 0 
L 603 4863 
z
" transform="scale(0.015625)"/>
      </defs>
      <use xlink:href="#DejaVuSans-44"/>
      <use xlink:href="#DejaVuSans-69" x="77.001953"/>
      <use xlink:href="#DejaVuSans-73" x="104.785156"/>
      <use xlink:href="#DejaVuSans-74" x="156.884766"/>
      <use xlink:href="#DejaVuSans-72" x="196.09375"/>
      <use xlink:href="#DejaVuSans-69" x="237.207031"/>
      <use xlink:href="#DejaVuSans-62" x="264.990234"/>
      <use xlink:href="#DejaVuSans-75" x="328.466797"/>
      <use xlink:href="#DejaVuSans-69" x="391.845703"/>
      <use xlink:href="#DejaVuSans-e7" x="419.628906"/>
      <use xlink:href="#DejaVuSans-e3" x="474.609375"/>
      <use xlink:href="#DejaVuSans-6f" x="535.888672"/>
      <use xlink:href="#DejaVuSans-20" x="597.070312"/>
      <use xlink:href="#DejaVuSans-62" x="628.857422"/>
      <use xlink:href="#DejaVuSans-69" x="692.333984"/>
      <use xlink:href="#DejaVuSans-6e" x="720.117188"/>
      <use xlink:href="#DejaVuSans-6f" x="783.496094"/>
      <use xlink:href="#DejaVuSans-6d" x="844.677734"/>
      <use xlink:href="#DejaVuSans-69" x="942.089844"/>
      <use xlink:href="#DejaVuSans-61" x="969.873047"/>
      <use xlink:href="#DejaVuSans-6c" x="1031.152344"/>
     </g>
    </g>
   </g>
  </g>
 </g>
 <defs>
  <clipPath id="p10d9812898">
   <rect x="90" y="51.84" width="558" height="332.64"/>
  </clipPath>
 </defs>
</svg>
