<?xml version="1.0" encoding="utf-8" standalone="no"?>
<!DOCTYPE svg PUBLIC "-//W3C//DTD SVG 1.1//EN"
  "http://www.w3.org/Graphics/SVG/1.1/DTD/svg11.dtd">
<svg xmlns:xlink="http://www.w3.org/1999/xlink" width="720pt" height="432pt" viewBox="0 0 720 432" xmlns="http://www.w3.org/2000/svg" version="1.1">
 <metadata>
  <rdf:RDF xmlns:dc="http://purl.org/dc/elements/1.1/" xmlns:cc="http://creativecommons.org/ns#" xmlns:rdf="http://www.w3.org/1999/02/22-rdf-syntax-ns#">
   <cc:Work>
    <dc:type rdf:resource="http://purl.org/dc/dcmitype/StillImage"/>
    <dc:date>2026-04-13T19:57:43.075695</dc:date>
    <dc:format>image/svg+xml</dc:format>
    <dc:creator>
     <cc:Agent>
      <dc:title>Matplotlib v3.9.2, https://matplotlib.org/</dc:title>
     </cc:Agent>
    </dc:creator>
   </cc:Work>
  </rdf:RDF>
 </metadata>
 <defs>
  <style type="text/css">*{stroke-linejoin: round; stroke-linecap: butt}</style>
 </defs>
 <g id="figure_1">
  <g id="patch_1">
   <path d="M 0 432 
L 720 432 
L 720 0 
L 0 0 
z
" style="fill: #ffffff"/>
  </g>
  <g id="axes_1">
   <g id="patch_2">
    <path d="M 90 384.48 
L 648 384.48 
L 648 51.84 
L 90 51.84 
z
" style="fill: #ffffff"/>
   </g>
   <g id="patch_3">
    <path d="M -92.523364 384.48 
L -82.093458 384.48 
L -82.093458 384.48 
L -92.523364 384.48 
z
" clip-path="url(#peb7df75bb9)" style="fill: #808080"/>
   </g>
   <g id="patch_4">
    <path d="M -79.485981 384.48 
L -69.056075 384.48 
L -69.056075 384.48 
L -79.485981 384.48 
z
" clip-path="url(#peb7df75bb9)" style="fill: #808080"/>
   </g>
   <g id="patch_5">
    <path d="M -66.448598 384.48 
L -56.018692 384.48 
L -56.018692 384.48 
L -66.448598 384.48 
z
" clip-path="url(#peb7df75bb9)" style="fill: #808080"/>
   </g>
   <g id="patch_6">
    <path d="M -53.411215 384.48 
L -42.981308 384.48 
L -42.981308 384.48 
L -53.411215 384.48 
z
" clip-path="url(#peb7df75bb9)" style="fill: #808080"/>
   </g>
   <g id="patch_7">
    <path d="M -40.373832 384.48 
L -29.943925 384.48 
L -29.943925 384.48 
L -40.373832 384.48 
z
" clip-path="url(#peb7df75bb9)" style="fill: #808080"/>
   </g>
   <g id="patch_8">
    <path d="M -27.336449 384.48 
L -16.906542 384.48 
L -16.906542 384.48 
L -27.336449 384.48 
z
" clip-path="url(#peb7df75bb9)" style="fill: #808080"/>
   </g>
   <g id="patch_9">
    <path d="M -14.299065 384.48 
L -3.869159 384.48 
L -3.869159 384.48 
L -14.299065 384.48 
z
" clip-path="url(#peb7df75bb9)" style="fill: #808080"/>
   </g>
   <g id="patch_10">
    <path d="M -1.261682 384.48 
L 9.168224 384.48 
L 9.168224 384.48 
L -1.261682 384.48 
z
" clip-path="url(#peb7df75bb9)" style="fill: #808080"/>
   </g>
   <g id="patch_11">
    <path d="M 11.775701 384.48 
L 22.205607 384.48 
L 22.205607 384.48 
L 11.775701 384.48 
z
" clip-path="url(#peb7df75bb9)" style="fill: #808080"/>
   </g>
   <g id="patch_12">
    <path d="M 24.813084 384.48 
L 35.242991 384.48 
L 35.242991 384.48 
L 24.813084 384.48 
z
" clip-path="url(#peb7df75bb9)" style="fill: #808080"/>
   </g>
   <g id="patch_13">
    <path d="M 37.850467 384.48 
L 48.280374 384.48 
L 48.280374 384.48 
L 37.850467 384.48 
z
" clip-path="url(#peb7df75bb9)" style="fill: #808080"/>
   </g>
   <g id="patch_14">
    <path d="M 50.88785 384.48 
L 61.317757 384.48 
L 61.317757 384.48 
L 50.88785 384.48 
z
" clip-path="url(#peb7df75bb9)" style="fill: #808080"/>
   </g>
   <g id="patch_15">
    <path d="M 63.925234 384.48 
L 74.35514 384.48 
L 74.35514 384.48 
L 63.925234 384.48 
z
" clip-path="url(#peb7df75bb9)" style="fill: #808080"/>
   </g>
   <g id="patch_16">
    <path d="M 76.962617 384.48 
L 87.392523 384.48 
L 87.392523 384.48 
L 76.962617 384.48 
z
" clip-path="url(#peb7df75bb9)" style="fill: #808080"/>
   </g>
   <g id="patch_17">
    <path d="M 90 384.48 
L 100.429907 384.48 
L 100.429907 384.48 
L 90 384.48 
z
" clip-path="url(#peb7df75bb9)" style="fill: #808080"/>
   </g>
   <g id="patch_18">
    <path d="M 103.037383 384.48 
L 113.46729 384.48 
L 113.46729 384.48 
L 103.037383 384.48 
z
" clip-path="url(#peb7df75bb9)" style="fill: #808080"/>
   </g>
   <g id="patch_19">
    <path d="M 116.074766 384.48 
L 126.504673 384.48 
L 126.504673 384.48 
L 116.074766 384.48 
z
" clip-path="url(#peb7df75bb9)" style="fill: #808080"/>
   </g>
   <g id="patch_20">
    <path d="M 129.11215 384.48 
L 139.542056 384.48 
L 139.542056 377.44 
L 129.11215 377.44 
z
" clip-path="url(#peb7df75bb9)" style="fill: #808080"/>
   </g>
   <g id="patch_21">
    <path d="M 142.149533 384.48 
L 152.579439 384.48 
L 152.579439 377.44 
L 142.149533 377.44 
z
" clip-path="url(#peb7df75bb9)" style="fill: #808080"/>
   </g>
   <g id="patch_22">
    <path d="M 155.186916 384.48 
L 165.616822 384.48 
L 165.616822 370.4 
L 155.186916 370.4 
z
" clip-path="url(#peb7df75bb9)" style="fill: #808080"/>
   </g>
   <g id="patch_23">
    <path d="M 168.224299 384.48 
L 178.654206 384.48 
L 178.654206 352.8 
L 168.224299 352.8 
z
" clip-path="url(#peb7df75bb9)" style="fill: #808080"/>
   </g>
   <g id="patch_24">
    <path d="M 181.261682 384.48 
L 191.691589 384.48 
L 191.691589 328.16 
L 181.261682 328.16 
z
" clip-path="url(#peb7df75bb9)" style="fill: #808080"/>
   </g>
   <g id="patch_25">
    <path d="M 194.299065 384.48 
L 204.728972 384.48 
L 204.728972 324.64 
L 194.299065 324.64 
z
" clip-path="url(#peb7df75bb9)" style="fill: #808080"/>
   </g>
   <g id="patch_26">
    <path d="M 207.336449 384.48 
L 217.766355 384.48 
L 217.766355 268.32 
L 207.336449 268.32 
z
" clip-path="url(#peb7df75bb9)" style="fill: #808080"/>
   </g>
   <g id="patch_27">
    <path d="M 220.373832 384.48 
L 230.803738 384.48 
L 230.803738 240.16 
L 220.373832 240.16 
z
" clip-path="url(#peb7df75bb9)" style="fill: #808080"/>
   </g>
   <g id="patch_28">
    <path d="M 233.411215 384.48 
L 243.841121 384.48 
L 243.841121 215.52 
L 233.411215 215.52 
z
" clip-path="url(#peb7df75bb9)" style="fill: #808080"/>
   </g>
   <g id="patch_29">
    <path d="M 246.448598 384.48 
L 256.878505 384.48 
L 256.878505 159.2 
L 246.448598 159.2 
z
" clip-path="url(#peb7df75bb9)" style="fill: #808080"/>
   </g>
   <g id="patch_30">
    <path d="M 259.485981 384.48 
L 269.915888 384.48 
L 269.915888 166.24 
L 259.485981 166.24 
z
" clip-path="url(#peb7df75bb9)" style="fill: #808080"/>
   </g>
   <g id="patch_31">
    <path d="M 272.523364 384.48 
L 282.953271 384.48 
L 282.953271 116.96 
L 272.523364 116.96 
z
" clip-path="url(#peb7df75bb9)" style="fill: #808080"/>
   </g>
   <g id="patch_32">
    <path d="M 285.560748 384.48 
L 295.990654 384.48 
L 295.990654 85.28 
L 285.560748 85.28 
z
" clip-path="url(#peb7df75bb9)" style="fill: #808080"/>
   </g>
   <g id="patch_33">
    <path d="M 298.598131 384.48 
L 309.028037 384.48 
L 309.028037 138.08 
L 298.598131 138.08 
z
" clip-path="url(#peb7df75bb9)" style="fill: #808080"/>
   </g>
   <g id="patch_34">
    <path d="M 311.635514 384.48 
L 322.065421 384.48 
L 322.065421 67.68 
L 311.635514 67.68 
z
" clip-path="url(#peb7df75bb9)" style="fill: #808080"/>
   </g>
   <g id="patch_35">
    <path d="M 324.672897 384.48 
L 335.102804 384.48 
L 335.102804 145.12 
L 324.672897 145.12 
z
" clip-path="url(#peb7df75bb9)" style="fill: #808080"/>
   </g>
   <g id="patch_36">
    <path d="M 337.71028 384.48 
L 348.140187 384.48 
L 348.140187 145.12 
L 337.71028 145.12 
z
" clip-path="url(#peb7df75bb9)" style="fill: #808080"/>
   </g>
   <g id="patch_37">
    <path d="M 350.747664 384.48 
L 361.17757 384.48 
L 361.17757 166.24 
L 350.747664 166.24 
z
" clip-path="url(#peb7df75bb9)" style="fill: #808080"/>
   </g>
   <g id="patch_38">
    <path d="M 363.785047 384.48 
L 374.214953 384.48 
L 374.214953 190.88 
L 363.785047 190.88 
z
" clip-path="url(#peb7df75bb9)" style="fill: #808080"/>
   </g>
   <g id="patch_39">
    <path d="M 376.82243 384.48 
L 387.252336 384.48 
L 387.252336 233.12 
L 376.82243 233.12 
z
" clip-path="url(#peb7df75bb9)" style="fill: #808080"/>
   </g>
   <g id="patch_40">
    <path d="M 389.859813 384.48 
L 400.28972 384.48 
L 400.28972 289.44 
L 389.859813 289.44 
z
" clip-path="url(#peb7df75bb9)" style="fill: #808080"/>
   </g>
   <g id="patch_41">
    <path d="M 402.897196 384.48 
L 413.327103 384.48 
L 413.327103 314.08 
L 402.897196 314.08 
z
" clip-path="url(#peb7df75bb9)" style="fill: #808080"/>
   </g>
   <g id="patch_42">
    <path d="M 415.934579 384.48 
L 426.364486 384.48 
L 426.364486 349.28 
L 415.934579 349.28 
z
" clip-path="url(#peb7df75bb9)" style="fill: #808080"/>
   </g>
   <g id="patch_43">
    <path d="M 428.971963 384.48 
L 439.401869 384.48 
L 439.401869 345.76 
L 428.971963 345.76 
z
" clip-path="url(#peb7df75bb9)" style="fill: #808080"/>
   </g>
   <g id="patch_44">
    <path d="M 442.009346 384.48 
L 452.439252 384.48 
L 452.439252 359.84 
L 442.009346 359.84 
z
" clip-path="url(#peb7df75bb9)" style="fill: #808080"/>
   </g>
   <g id="patch_45">
    <path d="M 455.046729 384.48 
L 465.476636 384.48 
L 465.476636 370.4 
L 455.046729 370.4 
z
" clip-path="url(#peb7df75bb9)" style="fill: #808080"/>
   </g>
   <g id="patch_46">
    <path d="M 468.084112 384.48 
L 478.514019 384.48 
L 478.514019 377.44 
L 468.084112 377.44 
z
" clip-path="url(#peb7df75bb9)" style="fill: #808080"/>
   </g>
   <g id="patch_47">
    <path d="M 481.121495 384.48 
L 491.551402 384.48 
L 491.551402 380.96 
L 481.121495 380.96 
z
" clip-path="url(#peb7df75bb9)" style="fill: #808080"/>
   </g>
   <g id="patch_48">
    <path d="M 494.158879 384.48 
L 504.588785 384.48 
L 504.588785 380.96 
L 494.158879 380.96 
z
" clip-path="url(#peb7df75bb9)" style="fill: #808080"/>
   </g>
   <g id="patch_49">
    <path d="M 507.196262 384.48 
L 517.626168 384.48 
L 517.626168 380.96 
L 507.196262 380.96 
z
" clip-path="url(#peb7df75bb9)" style="fill: #808080"/>
   </g>
   <g id="patch_50">
    <path d="M 520.233645 384.48 
L 530.663551 384.48 
L 530.663551 380.96 
L 520.233645 380.96 
z
" clip-path="url(#peb7df75bb9)" style="fill: #808080"/>
   </g>
   <g id="patch_51">
    <path d="M 533.271028 384.48 
L 543.700935 384.48 
L 543.700935 384.48 
L 533.271028 384.48 
z
" clip-path="url(#peb7df75bb9)" style="fill: #808080"/>
   </g>
   <g id="patch_52">
    <path d="M 546.308411 384.48 
L 556.738318 384.48 
L 556.738318 384.48 
L 546.308411 384.48 
z
" clip-path="url(#peb7df75bb9)" style="fill: #808080"/>
   </g>
   <g id="patch_53">
    <path d="M 559.345794 384.48 
L 569.775701 384.48 
L 569.775701 384.48 
L 559.345794 384.48 
z
" clip-path="url(#peb7df75bb9)" style="fill: #808080"/>
   </g>
   <g id="patch_54">
    <path d="M 572.383178 384.48 
L 582.813084 384.48 
L 582.813084 384.48 
L 572.383178 384.48 
z
" clip-path="url(#peb7df75bb9)" style="fill: #808080"/>
   </g>
   <g id="patch_55">
    <path d="M 585.420561 384.48 
L 595.850467 384.48 
L 595.850467 384.48 
L 585.420561 384.48 
z
" clip-path="url(#peb7df75bb9)" style="fill: #808080"/>
   </g>
   <g id="patch_56">
    <path d="M 598.457944 384.48 
L 608.88785 384.48 
L 608.88785 384.48 
L 598.457944 384.48 
z
" clip-path="url(#peb7df75bb9)" style="fill: #808080"/>
   </g>
   <g id="patch_57">
    <path d="M 611.495327 384.48 
L 621.925234 384.48 
L 621.925234 384.48 
L 611.495327 384.48 
z
" clip-path="url(#peb7df75bb9)" style="fill: #808080"/>
   </g>
   <g id="patch_58">
    <path d="M 624.53271 384.48 
L 634.962617 384.48 
L 634.962617 384.48 
L 624.53271 384.48 
z
" clip-path="url(#peb7df75bb9)" style="fill: #808080"/>
   </g>
   <g id="patch_59">
    <path d="M 637.570093 384.48 
L 648 384.48 
L 648 384.48 
L 637.570093 384.48 
z
" clip-path="url(#peb7df75bb9)" style="fill: #808080"/>
   </g>
   <g id="patch_60">
    <path d="M 650.607477 384.48 
L 661.037383 384.48 
L 661.037383 384.48 
L 650.607477 384.48 
z
" clip-path="url(#peb7df75bb9)" style="fill: #808080"/>
   </g>
   <g id="patch_61">
    <path d="M 663.64486 384.48 
L 674.074766 384.48 
L 674.074766 384.48 
L 663.64486 384.48 
z
" clip-path="url(#peb7df75bb9)" style="fill: #808080"/>
   </g>
   <g id="patch_62">
    <path d="M 676.682243 384.48 
L 687.11215 384.48 
L 687.11215 384.48 
L 676.682243 384.48 
z
" clip-path="url(#peb7df75bb9)" style="fill: #808080"/>
   </g>
   <g id="patch_63">
    <path d="M 689.719626 384.48 
L 700.149533 384.48 
L 700.149533 384.48 
L 689.719626 384.48 
z
" clip-path="url(#peb7df75bb9)" style="fill: #808080"/>
   </g>
   <g id="patch_64">
    <path d="M 702.757009 384.48 
L 713.186916 384.48 
L 713.186916 384.48 
L 702.757009 384.48 
z
" clip-path="url(#peb7df75bb9)" style="fill: #808080"/>
   </g>
   <g id="patch_65">
    <path d="M 715.794393 384.48 
L 726.224299 384.48 
L 726.224299 384.48 
L 715.794393 384.48 
z
" clip-path="url(#peb7df75bb9)" style="fill: #808080"/>
   </g>
   <g id="patch_66">
    <path d="M 728.831776 384.48 
L 739.261682 384.48 
L 739.261682 384.48 
L 728.831776 384.48 
z
" clip-path="url(#peb7df75bb9)" style="fill: #808080"/>
   </g>
   <g id="patch_67">
    <path d="M 741.869159 384.48 
L 752.299065 384.48 
L 752.299065 384.48 
L 741.869159 384.48 
z
" clip-path="url(#peb7df75bb9)" style="fill: #808080"/>
   </g>
   <g id="patch_68">
    <path d="M 754.906542 384.48 
L 765.336449 384.48 
L 765.336449 384.48 
L 754.906542 384.48 
z
" clip-path="url(#peb7df75bb9)" style="fill: #808080"/>
   </g>
   <g id="patch_69">
    <path d="M 767.943925 384.48 
L 778.373832 384.48 
L 778.373832 384.48 
L 767.943925 384.48 
z
" clip-path="url(#peb7df75bb9)" style="fill: #808080"/>
   </g>
   <g id="patch_70">
    <path d="M 780.981308 384.48 
L 791.411215 384.48 
L 791.411215 384.48 
L 780.981308 384.48 
z
" clip-path="url(#peb7df75bb9)" style="fill: #808080"/>
   </g>
   <g id="patch_71">
    <path d="M 794.018692 384.48 
L 804.448598 384.48 
L 804.448598 384.48 
L 794.018692 384.48 
z
" clip-path="url(#peb7df75bb9)" style="fill: #808080"/>
   </g>
   <g id="patch_72">
    <path d="M 807.056075 384.48 
L 817.485981 384.48 
L 817.485981 384.48 
L 807.056075 384.48 
z
" clip-path="url(#peb7df75bb9)" style="fill: #808080"/>
   </g>
   <g id="patch_73">
    <path d="M 820.093458 384.48 
L 830.523364 384.48 
L 830.523364 384.48 
L 820.093458 384.48 
z
" clip-path="url(#peb7df75bb9)" style="fill: #808080"/>
   </g>
   <g id="patch_74">
    <path d="M 833.130841 384.48 
L 843.560748 384.48 
L 843.560748 384.48 
L 833.130841 384.48 
z
" clip-path="url(#peb7df75bb9)" style="fill: #808080"/>
   </g>
   <g id="patch_75">
    <path d="M 846.168224 384.48 
L 856.598131 384.48 
L 856.598131 384.48 
L 846.168224 384.48 
z
" clip-path="url(#peb7df75bb9)" style="fill: #808080"/>
   </g>
   <g id="patch_76">
    <path d="M 859.205607 384.48 
L 869.635514 384.48 
L 869.635514 384.48 
L 859.205607 384.48 
z
" clip-path="url(#peb7df75bb9)" style="fill: #808080"/>
   </g>
   <g id="patch_77">
    <path d="M 872.242991 384.48 
L 882.672897 384.48 
L 882.672897 384.48 
L 872.242991 384.48 
z
" clip-path="url(#peb7df75bb9)" style="fill: #808080"/>
   </g>
   <g id="patch_78">
    <path d="M 885.280374 384.48 
L 895.71028 384.48 
L 895.71028 384.48 
L 885.280374 384.48 
z
" clip-path="url(#peb7df75bb9)" style="fill: #808080"/>
   </g>
   <g id="patch_79">
    <path d="M 898.317757 384.48 
L 908.747664 384.48 
L 908.747664 384.48 
L 898.317757 384.48 
z
" clip-path="url(#peb7df75bb9)" style="fill: #808080"/>
   </g>
   <g id="patch_80">
    <path d="M 911.35514 384.48 
L 921.785047 384.48 
L 921.785047 384.48 
L 911.35514 384.48 
z
" clip-path="url(#peb7df75bb9)" style="fill: #808080"/>
   </g>
   <g id="patch_81">
    <path d="M 924.392523 384.48 
L 934.82243 384.48 
L 934.82243 384.48 
L 924.392523 384.48 
z
" clip-path="url(#peb7df75bb9)" style="fill: #808080"/>
   </g>
   <g id="patch_82">
    <path d="M 937.429907 384.48 
L 947.859813 384.48 
L 947.859813 384.48 
L 937.429907 384.48 
z
" clip-path="url(#peb7df75bb9)" style="fill: #808080"/>
   </g>
   <g id="patch_83">
    <path d="M 950.46729 384.48 
L 960.897196 384.48 
L 960.897196 384.48 
L 950.46729 384.48 
z
" clip-path="url(#peb7df75bb9)" style="fill: #808080"/>
   </g>
   <g id="patch_84">
    <path d="M 963.504673 384.48 
L 973.934579 384.48 
L 973.934579 384.48 
L 963.504673 384.48 
z
" clip-path="url(#peb7df75bb9)" style="fill: #808080"/>
   </g>
   <g id="patch_85">
    <path d="M 976.542056 384.48 
L 986.971963 384.48 
L 986.971963 384.48 
L 976.542056 384.48 
z
" clip-path="url(#peb7df75bb9)" style="fill: #808080"/>
   </g>
   <g id="patch_86">
    <path d="M 989.579439 384.48 
L 1000.009346 384.48 
L 1000.009346 384.48 
L 989.579439 384.48 
z
" clip-path="url(#peb7df75bb9)" style="fill: #808080"/>
   </g>
   <g id="patch_87">
    <path d="M 1002.616822 384.48 
L 1013.046729 384.48 
L 1013.046729 384.48 
L 1002.616822 384.48 
z
" clip-path="url(#peb7df75bb9)" style="fill: #808080"/>
   </g>
   <g id="patch_88">
    <path d="M 1015.654206 384.48 
L 1026.084112 384.48 
L 1026.084112 384.48 
L 1015.654206 384.48 
z
" clip-path="url(#peb7df75bb9)" style="fill: #808080"/>
   </g>
   <g id="patch_89">
    <path d="M 1028.691589 384.48 
L 1039.121495 384.48 
L 1039.121495 384.48 
L 1028.691589 384.48 
z
" clip-path="url(#peb7df75bb9)" style="fill: #808080"/>
   </g>
   <g id="patch_90">
    <path d="M 1041.728972 384.48 
L 1052.158879 384.48 
L 1052.158879 384.48 
L 1041.728972 384.48 
z
" clip-path="url(#peb7df75bb9)" style="fill: #808080"/>
   </g>
   <g id="patch_91">
    <path d="M 1054.766355 384.48 
L 1065.196262 384.48 
L 1065.196262 384.48 
L 1054.766355 384.48 
z
" clip-path="url(#peb7df75bb9)" style="fill: #808080"/>
   </g>
   <g id="patch_92">
    <path d="M 1067.803738 384.48 
L 1078.233645 384.48 
L 1078.233645 384.48 
L 1067.803738 384.48 
z
" clip-path="url(#peb7df75bb9)" style="fill: #808080"/>
   </g>
   <g id="patch_93">
    <path d="M 1080.841121 384.48 
L 1091.271028 384.48 
L 1091.271028 384.48 
L 1080.841121 384.48 
z
" clip-path="url(#peb7df75bb9)" style="fill: #808080"/>
   </g>
   <g id="patch_94">
    <path d="M 1093.878505 384.48 
L 1104.308411 384.48 
L 1104.308411 384.48 
L 1093.878505 384.48 
z
" clip-path="url(#peb7df75bb9)" style="fill: #808080"/>
   </g>
   <g id="patch_95">
    <path d="M 1106.915888 384.48 
L 1117.345794 384.48 
L 1117.345794 384.48 
L 1106.915888 384.48 
z
" clip-path="url(#peb7df75bb9)" style="fill: #808080"/>
   </g>
   <g id="patch_96">
    <path d="M 1119.953271 384.48 
L 1130.383178 384.48 
L 1130.383178 384.48 
L 1119.953271 384.48 
z
" clip-path="url(#peb7df75bb9)" style="fill: #808080"/>
   </g>
   <g id="patch_97">
    <path d="M 1132.990654 384.48 
L 1143.420561 384.48 
L 1143.420561 384.48 
L 1132.990654 384.48 
z
" clip-path="url(#peb7df75bb9)" style="fill: #808080"/>
   </g>
   <g id="patch_98">
    <path d="M 1146.028037 384.48 
L 1156.457944 384.48 
L 1156.457944 384.48 
L 1146.028037 384.48 
z
" clip-path="url(#peb7df75bb9)" style="fill: #808080"/>
   </g>
   <g id="patch_99">
    <path d="M 1159.065421 384.48 
L 1169.495327 384.48 
L 1169.495327 384.48 
L 1159.065421 384.48 
z
" clip-path="url(#peb7df75bb9)" style="fill: #808080"/>
   </g>
   <g id="patch_100">
    <path d="M 1172.102804 384.48 
L 1182.53271 384.48 
L 1182.53271 384.48 
L 1172.102804 384.48 
z
" clip-path="url(#peb7df75bb9)" style="fill: #808080"/>
   </g>
   <g id="patch_101">
    <path d="M 1185.140187 384.48 
L 1195.570093 384.48 
L 1195.570093 384.48 
L 1185.140187 384.48 
z
" clip-path="url(#peb7df75bb9)" style="fill: #808080"/>
   </g>
   <g id="patch_102">
    <path d="M 1198.17757 384.48 
L 1208.607477 384.48 
L 1208.607477 384.48 
L 1198.17757 384.48 
z
" clip-path="url(#peb7df75bb9)" style="fill: #808080"/>
   </g>
   <g id="matplotlib.axis_1">
    <g id="xtick_1">
     <g id="line2d_1">
      <defs>
       <path id="m735da22b4f" d="M 0 0 
L 0 3.5 
" style="stroke: #000000; stroke-width: 0.8"/>
      </defs>
      <g>
       <use xlink:href="#m735da22b4f" x="108.252336" y="384.48" style="stroke: #000000; stroke-width: 0.8"/>
      </g>
     </g>
     <g id="text_1">
      <!-- 15 -->
      <g transform="translate(101.889836 399.078438) scale(0.1 -0.1)">
       <defs>
        <path id="DejaVuSans-31" d="M 794 531 
L 1825 531 
L 1825 4091 
L 703 3866 
L 703 4441 
L 1819 4666 
L 2450 4666 
L 2450 531 
L 3481 531 
L 3481 0 
L 794 0 
L 794 531 
z
" transform="scale(0.015625)"/>
        <path id="DejaVuSans-35" d="M 691 4666 
L 3169 4666 
L 3169 4134 
L 1269 4134 
L 1269 2991 
Q 1406 3038 1543 3061 
Q 1681 3084 1819 3084 
Q 2600 3084 3056 2656 
Q 3513 2228 3513 1497 
Q 3513 744 3044 326 
Q 2575 -91 1722 -91 
Q 1428 -91 1123 -41 
Q 819 9 494 109 
L 494 744 
Q 775 591 1075 516 
Q 1375 441 1709 441 
Q 2250 441 2565 725 
Q 2881 1009 2881 1497 
Q 2881 1984 2565 2268 
Q 2250 2553 1709 2553 
Q 1456 2553 1204 2497 
Q 953 2441 691 2322 
L 691 4666 
z
" transform="scale(0.015625)"/>
       </defs>
       <use xlink:href="#DejaVuSans-31"/>
       <use xlink:href="#DejaVuSans-35" x="63.623047"/>
      </g>
     </g>
    </g>
    <g id="xtick_2">
     <g id="line2d_2">
      <g>
       <use xlink:href="#m735da22b4f" x="173.439252" y="384.48" style="stroke: #000000; stroke-width: 0.8"/>
      </g>
     </g>
     <g id="text_2">
      <!-- 20 -->
      <g transform="translate(167.076752 399.078438) scale(0.1 -0.1)">
       <defs>
        <path id="DejaVuSans-32" d="M 1228 531 
L 3431 531 
L 3431 0 
L 469 0 
L 469 531 
Q 828 903 1448 1529 
Q 2069 2156 2228 2338 
Q 2531 2678 2651 2914 
Q 2772 3150 2772 3378 
Q 2772 3750 2511 3984 
Q 2250 4219 1831 4219 
Q 1534 4219 1204 4116 
Q 875 4013 500 3803 
L 500 4441 
Q 881 4594 1212 4672 
Q 1544 4750 1819 4750 
Q 2544 4750 2975 4387 
Q 3406 4025 3406 3419 
Q 3406 3131 3298 2873 
Q 3191 2616 2906 2266 
Q 2828 2175 2409 1742 
Q 1991 1309 1228 531 
z
" transform="scale(0.015625)"/>
        <path id="DejaVuSans-30" d="M 2034 4250 
Q 1547 4250 1301 3770 
Q 1056 3291 1056 2328 
Q 1056 1369 1301 889 
Q 1547 409 2034 409 
Q 2525 409 2770 889 
Q 3016 1369 3016 2328 
Q 3016 3291 2770 3770 
Q 2525 4250 2034 4250 
z
M 2034 4750 
Q 2819 4750 3233 4129 
Q 3647 3509 3647 2328 
Q 3647 1150 3233 529 
Q 2819 -91 2034 -91 
Q 1250 -91 836 529 
Q 422 1150 422 2328 
Q 422 3509 836 4129 
Q 1250 4750 2034 4750 
z
" transform="scale(0.015625)"/>
       </defs>
       <use xlink:href="#DejaVuSans-32"/>
       <use xlink:href="#DejaVuSans-30" x="63.623047"/>
      </g>
     </g>
    </g>
    <g id="xtick_3">
     <g id="line2d_3">
      <g>
       <use xlink:href="#m735da22b4f" x="238.626168" y="384.48" style="stroke: #000000; stroke-width: 0.8"/>
      </g>
     </g>
     <g id="text_3">
      <!-- 25 -->
      <g transform="translate(232.263668 399.078438) scale(0.1 -0.1)">
       <use xlink:href="#DejaVuSans-32"/>
       <use xlink:href="#DejaVuSans-35" x="63.623047"/>
      </g>
     </g>
    </g>
    <g id="xtick_4">
     <g id="line2d_4">
      <g>
       <use xlink:href="#m735da22b4f" x="303.813084" y="384.48" style="stroke: #000000; stroke-width: 0.8"/>
      </g>
     </g>
     <g id="text_4">
      <!-- 30 -->
      <g transform="translate(297.450584 399.078438) scale(0.1 -0.1)">
       <defs>
        <path id="DejaVuSans-33" d="M 2597 2516 
Q 3050 2419 3304 2112 
Q 3559 1806 3559 1356 
Q 3559 666 3084 287 
Q 2609 -91 1734 -91 
Q 1441 -91 1130 -33 
Q 819 25 488 141 
L 488 750 
Q 750 597 1062 519 
Q 1375 441 1716 441 
Q 2309 441 2620 675 
Q 2931 909 2931 1356 
Q 2931 1769 2642 2001 
Q 2353 2234 1838 2234 
L 1294 2234 
L 1294 2753 
L 1863 2753 
Q 2328 2753 2575 2939 
Q 2822 3125 2822 3475 
Q 2822 3834 2567 4026 
Q 2313 4219 1838 4219 
Q 1578 4219 1281 4162 
Q 984 4106 628 3988 
L 628 4550 
Q 988 4650 1302 4700 
Q 1616 4750 1894 4750 
Q 2613 4750 3031 4423 
Q 3450 4097 3450 3541 
Q 3450 3153 3228 2886 
Q 3006 2619 2597 2516 
z
" transform="scale(0.015625)"/>
       </defs>
       <use xlink:href="#DejaVuSans-33"/>
       <use xlink:href="#DejaVuSans-30" x="63.623047"/>
      </g>
     </g>
    </g>
    <g id="xtick_5">
     <g id="line2d_5">
      <g>
       <use xlink:href="#m735da22b4f" x="369" y="384.48" style="stroke: #000000; stroke-width: 0.8"/>
      </g>
     </g>
     <g id="text_5">
      <!-- 35 -->
      <g transform="translate(362.6375 399.078438) scale(0.1 -0.1)">
       <use xlink:href="#DejaVuSans-33"/>
       <use xlink:href="#DejaVuSans-35" x="63.623047"/>
      </g>
     </g>
    </g>
    <g id="xtick_6">
     <g id="line2d_6">
      <g>
       <use xlink:href="#m735da22b4f" x="434.186916" y="384.48" style="stroke: #000000; stroke-width: 0.8"/>
      </g>
     </g>
     <g id="text_6">
      <!-- 40 -->
      <g transform="translate(427.824416 399.078438) scale(0.1 -0.1)">
       <defs>
        <path id="DejaVuSans-34" d="M 2419 4116 
L 825 1625 
L 2419 1625 
L 2419 4116 
z
M 2253 4666 
L 3047 4666 
L 3047 1625 
L 3713 1625 
L 3713 1100 
L 3047 1100 
L 3047 0 
L 2419 0 
L 2419 1100 
L 313 1100 
L 313 1709 
L 2253 4666 
z
" transform="scale(0.015625)"/>
       </defs>
       <use xlink:href="#DejaVuSans-34"/>
       <use xlink:href="#DejaVuSans-30" x="63.623047"/>
      </g>
     </g>
    </g>
    <g id="xtick_7">
     <g id="line2d_7">
      <g>
       <use xlink:href="#m735da22b4f" x="499.373832" y="384.48" style="stroke: #000000; stroke-width: 0.8"/>
      </g>
     </g>
     <g id="text_7">
      <!-- 45 -->
      <g transform="translate(493.011332 399.078438) scale(0.1 -0.1)">
       <use xlink:href="#DejaVuSans-34"/>
       <use xlink:href="#DejaVuSans-35" x="63.623047"/>
      </g>
     </g>
    </g>
    <g id="xtick_8">
     <g id="line2d_8">
      <g>
       <use xlink:href="#m735da22b4f" x="564.560748" y="384.48" style="stroke: #000000; stroke-width: 0.8"/>
      </g>
     </g>
     <g id="text_8">
      <!-- 50 -->
      <g transform="translate(558.198248 399.078438) scale(0.1 -0.1)">
       <use xlink:href="#DejaVuSans-35"/>
       <use xlink:href="#DejaVuSans-30" x="63.623047"/>
      </g>
     </g>
    </g>
    <g id="xtick_9">
     <g id="line2d_9">
      <g>
       <use xlink:href="#m735da22b4f" x="629.747664" y="384.48" style="stroke: #000000; stroke-width: 0.8"/>
      </g>
     </g>
     <g id="text_9">
      <!-- 55 -->
      <g transform="translate(623.385164 399.078438) scale(0.1 -0.1)">
       <use xlink:href="#DejaVuSans-35"/>
       <use xlink:href="#DejaVuSans-35" x="63.623047"/>
      </g>
     </g>
    </g>
    <g id="text_10">
     <!-- k -->
     <g transform="translate(363.209375 420.355) scale(0.2 -0.2)">
      <defs>
       <path id="DejaVuSans-6b" d="M 581 4863 
L 1159 4863 
L 1159 1991 
L 2875 3500 
L 3609 3500 
L 1753 1863 
L 3688 0 
L 2938 0 
L 1159 1709 
L 1159 0 
L 581 0 
L 581 4863 
z
" transform="scale(0.015625)"/>
      </defs>
      <use xlink:href="#DejaVuSans-6b"/>
     </g>
    </g>
   </g>
   <g id="matplotlib.axis_2">
    <g id="ytick_1">
     <g id="line2d_10">
      <defs>
       <path id="m8f719bd8fb" d="M 0 0 
L -3.5 0 
" style="stroke: #000000; stroke-width: 0.8"/>
      </defs>
      <g>
       <use xlink:href="#m8f719bd8fb" x="90" y="384.48" style="stroke: #000000; stroke-width: 0.8"/>
      </g>
     </g>
     <g id="text_11">
      <!-- 0.00 -->
      <g transform="translate(60.734375 388.279219) scale(0.1 -0.1)">
       <defs>
        <path id="DejaVuSans-2e" d="M 684 794 
L 1344 794 
L 1344 0 
L 684 0 
L 684 794 
z
" transform="scale(0.015625)"/>
       </defs>
       <use xlink:href="#DejaVuSans-30"/>
       <use xlink:href="#DejaVuSans-2e" x="63.623047"/>
       <use xlink:href="#DejaVuSans-30" x="95.410156"/>
       <use xlink:href="#DejaVuSans-30" x="159.033203"/>
      </g>
     </g>
    </g>
    <g id="ytick_2">
     <g id="line2d_11">
      <g>
       <use xlink:href="#m8f719bd8fb" x="90" y="314.08" style="stroke: #000000; stroke-width: 0.8"/>
      </g>
     </g>
     <g id="text_12">
      <!-- 0.02 -->
      <g transform="translate(60.734375 317.879219) scale(0.1 -0.1)">
       <use xlink:href="#DejaVuSans-30"/>
       <use xlink:href="#DejaVuSans-2e" x="63.623047"/>
       <use xlink:href="#DejaVuSans-30" x="95.410156"/>
       <use xlink:href="#DejaVuSans-32" x="159.033203"/>
      </g>
     </g>
    </g>
    <g id="ytick_3">
     <g id="line2d_12">
      <g>
       <use xlink:href="#m8f719bd8fb" x="90" y="243.68" style="stroke: #000000; stroke-width: 0.8"/>
      </g>
     </g>
     <g id="text_13">
      <!-- 0.04 -->
      <g transform="translate(60.734375 247.479219) scale(0.1 -0.1)">
       <use xlink:href="#DejaVuSans-30"/>
       <use xlink:href="#DejaVuSans-2e" x="63.623047"/>
       <use xlink:href="#DejaVuSans-30" x="95.410156"/>
       <use xlink:href="#DejaVuSans-34" x="159.033203"/>
      </g>
     </g>
    </g>
    <g id="ytick_4">
     <g id="line2d_13">
      <g>
       <use xlink:href="#m8f719bd8fb" x="90" y="173.28" style="stroke: #000000; stroke-width: 0.8"/>
      </g>
     </g>
     <g id="text_14">
      <!-- 0.06 -->
      <g transform="translate(60.734375 177.079219) scale(0.1 -0.1)">
       <defs>
        <path id="DejaVuSans-36" d="M 2113 2584 
Q 1688 2584 1439 2293 
Q 1191 2003 1191 1497 
Q 1191 994 1439 701 
Q 1688 409 2113 409 
Q 2538 409 2786 701 
Q 3034 994 3034 1497 
Q 3034 2003 2786 2293 
Q 2538 2584 2113 2584 
z
M 3366 4563 
L 3366 3988 
Q 3128 4100 2886 4159 
Q 2644 4219 2406 4219 
Q 1781 4219 1451 3797 
Q 1122 3375 1075 2522 
Q 1259 2794 1537 2939 
Q 1816 3084 2150 3084 
Q 2853 3084 3261 2657 
Q 3669 2231 3669 1497 
Q 3669 778 3244 343 
Q 2819 -91 2113 -91 
Q 1303 -91 875 529 
Q 447 1150 447 2328 
Q 447 3434 972 4092 
Q 1497 4750 2381 4750 
Q 2619 4750 2861 4703 
Q 3103 4656 3366 4563 
z
" transform="scale(0.015625)"/>
       </defs>
       <use xlink:href="#DejaVuSans-30"/>
       <use xlink:href="#DejaVuSans-2e" x="63.623047"/>
       <use xlink:href="#DejaVuSans-30" x="95.410156"/>
       <use xlink:href="#DejaVuSans-36" x="159.033203"/>
      </g>
     </g>
    </g>
    <g id="ytick_5">
     <g id="line2d_14">
      <g>
       <use xlink:href="#m8f719bd8fb" x="90" y="102.88" style="stroke: #000000; stroke-width: 0.8"/>
      </g>
     </g>
     <g id="text_15">
      <!-- 0.08 -->
      <g transform="translate(60.734375 106.679219) scale(0.1 -0.1)">
       <defs>
        <path id="DejaVuSans-38" d="M 2034 2216 
Q 1584 2216 1326 1975 
Q 1069 1734 1069 1313 
Q 1069 891 1326 650 
Q 1584 409 2034 409 
Q 2484 409 2743 651 
Q 3003 894 3003 1313 
Q 3003 1734 2745 1975 
Q 2488 2216 2034 2216 
z
M 1403 2484 
Q 997 2584 770 2862 
Q 544 3141 544 3541 
Q 544 4100 942 4425 
Q 1341 4750 2034 4750 
Q 2731 4750 3128 4425 
Q 3525 4100 3525 3541 
Q 3525 3141 3298 2862 
Q 3072 2584 2669 2484 
Q 3125 2378 3379 2068 
Q 3634 1759 3634 1313 
Q 3634 634 3220 271 
Q 2806 -91 2034 -91 
Q 1263 -91 848 271 
Q 434 634 434 1313 
Q 434 1759 690 2068 
Q 947 2378 1403 2484 
z
M 1172 3481 
Q 1172 3119 1398 2916 
Q 1625 2713 2034 2713 
Q 2441 2713 2670 2916 
Q 2900 3119 2900 3481 
Q 2900 3844 2670 4047 
Q 2441 4250 2034 4250 
Q 1625 4250 1398 4047 
Q 1172 3844 1172 3481 
z
" transform="scale(0.015625)"/>
       </defs>
       <use xlink:href="#DejaVuSans-30"/>
       <use xlink:href="#DejaVuSans-2e" x="63.623047"/>
       <use xlink:href="#DejaVuSans-30" x="95.410156"/>
       <use xlink:href="#DejaVuSans-38" x="159.033203"/>
      </g>
     </g>
    </g>
    <g id="text_16">
     <!-- P(k) -->
     <g transform="translate(52.575 237.783437) rotate(-90) scale(0.2 -0.2)">
      <defs>
       <path id="DejaVuSans-50" d="M 1259 4147 
L 1259 2394 
L 2053 2394 
Q 2494 2394 2734 2622 
Q 2975 2850 2975 3272 
Q 2975 3691 2734 3919 
Q 2494 4147 2053 4147 
L 1259 4147 
z
M 628 4666 
L 2053 4666 
Q 2838 4666 3239 4311 
Q 3641 3956 3641 3272 
Q 3641 2581 3239 2228 
Q 2838 1875 2053 1875 
L 1259 1875 
L 1259 0 
L 628 0 
L 628 4666 
z
" transform="scale(0.015625)"/>
       <path id="DejaVuSans-28" d="M 1984 4856 
Q 1566 4138 1362 3434 
Q 1159 2731 1159 2009 
Q 1159 1288 1364 580 
Q 1569 -128 1984 -844 
L 1484 -844 
Q 1016 -109 783 600 
Q 550 1309 550 2009 
Q 550 2706 781 3412 
Q 1013 4119 1484 4856 
L 1984 4856 
z
" transform="scale(0.015625)"/>
       <path id="DejaVuSans-29" d="M 513 4856 
L 1013 4856 
Q 1481 4119 1714 3412 
Q 1947 2706 1947 2009 
Q 1947 1309 1714 600 
Q 1481 -109 1013 -844 
L 513 -844 
Q 928 -128 1133 580 
Q 1338 1288 1338 2009 
Q 1338 2731 1133 3434 
Q 928 4138 513 4856 
z
" transform="scale(0.015625)"/>
      </defs>
      <use xlink:href="#DejaVuSans-50"/>
      <use xlink:href="#DejaVuSans-28" x="60.302734"/>
      <use xlink:href="#DejaVuSans-6b" x="99.316406"/>
      <use xlink:href="#DejaVuSans-29" x="157.226562"/>
     </g>
    </g>
   </g>
   <g id="line2d_15">
    <path d="M -1 384.479967 
L 3.953271 384.479952 
L 16.990654 384.479759 
L 30.028037 384.478944 
L 43.065421 384.47588 
L 56.102804 384.465554 
L 69.140187 384.434081 
L 82.17757 384.346786 
L 95.214953 384.125215 
L 108.252336 383.608242 
L 121.28972 382.495193 
L 134.327103 380.27688 
L 147.364486 376.173835 
L 160.401869 369.116717 
L 173.439252 357.81373 
L 186.476636 340.943232 
L 199.514019 317.478611 
L 212.551402 287.099099 
L 225.588785 250.581261 
L 238.626168 210.029072 
L 251.663551 168.812644 
L 264.700935 131.156439 
L 277.738318 101.429694 
L 290.775701 83.30332 
L 303.813084 79.000796 
L 316.850467 88.854964 
L 329.88785 111.290793 
L 342.925234 143.221999 
L 355.962617 180.728495 
L 369 219.815518 
L 382.037383 257.061056 
L 395.074766 290.022713 
L 408.11215 317.365612 
L 421.149533 338.753714 
L 434.186916 354.594606 
L 447.224299 365.736547 
L 460.261682 373.195676 
L 473.299065 377.956836 
L 486.336449 380.858373 
L 499.373832 382.548466 
L 512.411215 383.490239 
L 525.448598 383.99264 
L 538.485981 384.249374 
L 551.523364 384.375109 
L 564.560748 384.434148 
L 577.598131 384.460734 
L 590.635514 384.47222 
L 603.672897 384.47698 
L 616.71028 384.478874 
L 629.747664 384.479596 
L 642.785047 384.479861 
L 655.82243 384.479954 
L 668.859813 384.479985 
L 681.897196 384.479996 
L 694.934579 384.479999 
L 707.971963 384.48 
L 721 384.48 
" clip-path="url(#peb7df75bb9)" style="fill: none; stroke-dasharray: 5.55,2.4; stroke-dashoffset: 0; stroke: #000000; stroke-width: 1.5"/>
   </g>
   <g id="patch_103">
    <path d="M 90 384.48 
L 90 51.84 
" style="fill: none; stroke: #000000; stroke-width: 0.8; stroke-linejoin: miter; stroke-linecap: square"/>
   </g>
   <g id="patch_104">
    <path d="M 648 384.48 
L 648 51.84 
" style="fill: none; stroke: #000000; stroke-width: 0.8; stroke-linejoin: miter; stroke-linecap: square"/>
   </g>
   <g id="patch_105">
    <path d="M 90 384.48 
L 648 384.48 
" style="fill: none; stroke: #000000; stroke-width: 0.8; stroke-linejoin: miter; stroke-linecap: square"/>
   </g>
   <g id="patch_106">
    <path d="M 90 51.84 
L 648 51.84 
" style="fill: none; stroke: #000000; stroke-width: 0.8; stroke-linejoin: miter; stroke-linecap: square"/>
   </g>
   <g id="legend_1">
    <g id="patch_107">
     <path d="M 488.453906 107.9025 
L 637.5 107.9025 
Q 640.5 107.9025 640.5 104.9025 
L 640.5 62.34 
Q 640.5 59.34 637.5 59.34 
L 488.453906 59.34 
Q 485.453906 59.34 485.453906 62.34 
L 485.453906 104.9025 
Q 485.453906 107.9025 488.453906 107.9025 
z
" style="fill: #ffffff; opacity: 0.8; stroke: #cccccc; stroke-linejoin: miter"/>
    </g>
    <g id="line2d_16">
     <path d="M 491.453906 71.487656 
L 506.453906 71.487656 
L 521.453906 71.487656 
" style="fill: none; stroke-dasharray: 5.55,2.4; stroke-dashoffset: 0; stroke: #000000; stroke-width: 1.5"/>
    </g>
    <g id="text_17">
     <!-- Curva teórica -->
     <g transform="translate(533.453906 76.737656) scale(0.15 -0.15)">
      <defs>
       <path id="DejaVuSans-43" d="M 4122 4306 
L 4122 3641 
Q 3803 3938 3442 4084 
Q 3081 4231 2675 4231 
Q 1875 4231 1450 3742 
Q 1025 3253 1025 2328 
Q 1025 1406 1450 917 
Q 1875 428 2675 428 
Q 3081 428 3442 575 
Q 3803 722 4122 1019 
L 4122 359 
Q 3791 134 3420 21 
Q 3050 -91 2638 -91 
Q 1578 -91 968 557 
Q 359 1206 359 2328 
Q 359 3453 968 4101 
Q 1578 4750 2638 4750 
Q 3056 4750 3426 4639 
Q 3797 4528 4122 4306 
z
" transform="scale(0.015625)"/>
       <path id="DejaVuSans-75" d="M 544 1381 
L 544 3500 
L 1119 3500 
L 1119 1403 
Q 1119 906 1312 657 
Q 1506 409 1894 409 
Q 2359 409 2629 706 
Q 2900 1003 2900 1516 
L 2900 3500 
L 3475 3500 
L 3475 0 
L 2900 0 
L 2900 538 
Q 2691 219 2414 64 
Q 2138 -91 1772 -91 
Q 1169 -91 856 284 
Q 544 659 544 1381 
z
M 1991 3584 
L 1991 3584 
z
" transform="scale(0.015625)"/>
       <path id="DejaVuSans-72" d="M 2631 2963 
Q 2534 3019 2420 3045 
Q 2306 3072 2169 3072 
Q 1681 3072 1420 2755 
Q 1159 2438 1159 1844 
L 1159 0 
L 581 0 
L 581 3500 
L 1159 3500 
L 1159 2956 
Q 1341 3275 1631 3429 
Q 1922 3584 2338 3584 
Q 2397 3584 2469 3576 
Q 2541 3569 2628 3553 
L 2631 2963 
z
" transform="scale(0.015625)"/>
       <path id="DejaVuSans-76" d="M 191 3500 
L 800 3500 
L 1894 563 
L 2988 3500 
L 3597 3500 
L 2284 0 
L 1503 0 
L 191 3500 
z
" transform="scale(0.015625)"/>
       <path id="DejaVuSans-61" d="M 2194 1759 
Q 1497 1759 1228 1600 
Q 959 1441 959 1056 
Q 959 750 1161 570 
Q 1363 391 1709 391 
Q 2188 391 2477 730 
Q 2766 1069 2766 1631 
L 2766 1759 
L 2194 1759 
z
M 3341 1997 
L 3341 0 
L 2766 0 
L 2766 531 
Q 2569 213 2275 61 
Q 1981 -91 1556 -91 
Q 1019 -91 701 211 
Q 384 513 384 1019 
Q 384 1609 779 1909 
Q 1175 2209 1959 2209 
L 2766 2209 
L 2766 2266 
Q 2766 2663 2505 2880 
Q 2244 3097 1772 3097 
Q 1472 3097 1187 3025 
Q 903 2953 641 2809 
L 641 3341 
Q 956 3463 1253 3523 
Q 1550 3584 1831 3584 
Q 2591 3584 2966 3190 
Q 3341 2797 3341 1997 
z
" transform="scale(0.015625)"/>
       <path id="DejaVuSans-20" transform="scale(0.015625)"/>
       <path id="DejaVuSans-74" d="M 1172 4494 
L 1172 3500 
L 2356 3500 
L 2356 3053 
L 1172 3053 
L 1172 1153 
Q 1172 725 1289 603 
Q 1406 481 1766 481 
L 2356 481 
L 2356 0 
L 1766 0 
Q 1100 0 847 248 
Q 594 497 594 1153 
L 594 3053 
L 172 3053 
L 172 3500 
L 594 3500 
L 594 4494 
L 1172 4494 
z
" transform="scale(0.015625)"/>
       <path id="DejaVuSans-65" d="M 3597 1894 
L 3597 1613 
L 953 1613 
Q 991 1019 1311 708 
Q 1631 397 2203 397 
Q 2534 397 2845 478 
Q 3156 559 3463 722 
L 3463 178 
Q 3153 47 2828 -22 
Q 2503 -91 2169 -91 
Q 1331 -91 842 396 
Q 353 884 353 1716 
Q 353 2575 817 3079 
Q 1281 3584 2069 3584 
Q 2775 3584 3186 3129 
Q 3597 2675 3597 1894 
z
M 3022 2063 
Q 3016 2534 2758 2815 
Q 2500 3097 2075 3097 
Q 1594 3097 1305 2825 
Q 1016 2553 972 2059 
L 3022 2063 
z
" transform="scale(0.015625)"/>
       <path id="DejaVuSans-f3" d="M 1959 3097 
Q 1497 3097 1228 2736 
Q 959 2375 959 1747 
Q 959 1119 1226 758 
Q 1494 397 1959 397 
Q 2419 397 2687 759 
Q 2956 1122 2956 1747 
Q 2956 2369 2687 2733 
Q 2419 3097 1959 3097 
z
M 1959 3584 
Q 2709 3584 3137 3096 
Q 3566 2609 3566 1747 
Q 3566 888 3137 398 
Q 2709 -91 1959 -91 
Q 1206 -91 779 398 
Q 353 888 353 1747 
Q 353 2609 779 3096 
Q 1206 3584 1959 3584 
z
M 2394 5119 
L 3016 5119 
L 1997 3944 
L 1519 3944 
L 2394 5119 
z
" transform="scale(0.015625)"/>
       <path id="DejaVuSans-69" d="M 603 3500 
L 1178 3500 
L 1178 0 
L 603 0 
L 603 3500 
z
M 603 4863 
L 1178 4863 
L 1178 4134 
L 603 4134 
L 603 4863 
z
" transform="scale(0.015625)"/>
       <path id="DejaVuSans-63" d="M 3122 3366 
L 3122 2828 
Q 2878 2963 2633 3030 
Q 2388 3097 2138 3097 
Q 1578 3097 1268 2742 
Q 959 2388 959 1747 
Q 959 1106 1268 751 
Q 1578 397 2138 397 
Q 2388 397 2633 464 
Q 2878 531 3122 666 
L 3122 134 
Q 2881 22 2623 -34 
Q 2366 -91 2075 -91 
Q 1284 -91 818 406 
Q 353 903 353 1747 
Q 353 2603 823 3093 
Q 1294 3584 2113 3584 
Q 2378 3584 2631 3529 
Q 2884 3475 3122 3366 
z
" transform="scale(0.015625)"/>
      </defs>
      <use xlink:href="#DejaVuSans-43"/>
      <use xlink:href="#DejaVuSans-75" x="69.824219"/>
      <use xlink:href="#DejaVuSans-72" x="133.203125"/>
      <use xlink:href="#DejaVuSans-76" x="174.316406"/>
      <use xlink:href="#DejaVuSans-61" x="233.496094"/>
      <use xlink:href="#DejaVuSans-20" x="294.775391"/>
      <use xlink:href="#DejaVuSans-74" x="326.5625"/>
      <use xlink:href="#DejaVuSans-65" x="365.771484"/>
      <use xlink:href="#DejaVuSans-f3" x="427.294922"/>
      <use xlink:href="#DejaVuSans-72" x="488.476562"/>
      <use xlink:href="#DejaVuSans-69" x="529.589844"/>
      <use xlink:href="#DejaVuSans-63" x="557.373047"/>
      <use xlink:href="#DejaVuSans-61" x="612.353516"/>
     </g>
    </g>
    <g id="patch_108">
     <path d="M 491.453906 98.782969 
L 521.453906 98.782969 
L 521.453906 88.282969 
L 491.453906 88.282969 
z
" style="fill: #808080"/>
    </g>
    <g id="text_18">
     <!-- Simulação -->
     <g transform="translate(533.453906 98.782969) scale(0.15 -0.15)">
      <defs>
       <path id="DejaVuSans-53" d="M 3425 4513 
L 3425 3897 
Q 3066 4069 2747 4153 
Q 2428 4238 2131 4238 
Q 1616 4238 1336 4038 
Q 1056 3838 1056 3469 
Q 1056 3159 1242 3001 
Q 1428 2844 1947 2747 
L 2328 2669 
Q 3034 2534 3370 2195 
Q 3706 1856 3706 1288 
Q 3706 609 3251 259 
Q 2797 -91 1919 -91 
Q 1588 -91 1214 -16 
Q 841 59 441 206 
L 441 856 
Q 825 641 1194 531 
Q 1563 422 1919 422 
Q 2459 422 2753 634 
Q 3047 847 3047 1241 
Q 3047 1584 2836 1778 
Q 2625 1972 2144 2069 
L 1759 2144 
Q 1053 2284 737 2584 
Q 422 2884 422 3419 
Q 422 4038 858 4394 
Q 1294 4750 2059 4750 
Q 2388 4750 2728 4690 
Q 3069 4631 3425 4513 
z
" transform="scale(0.015625)"/>
       <path id="DejaVuSans-6d" d="M 3328 2828 
Q 3544 3216 3844 3400 
Q 4144 3584 4550 3584 
Q 5097 3584 5394 3201 
Q 5691 2819 5691 2113 
L 5691 0 
L 5113 0 
L 5113 2094 
Q 5113 2597 4934 2840 
Q 4756 3084 4391 3084 
Q 3944 3084 3684 2787 
Q 3425 2491 3425 1978 
L 3425 0 
L 2847 0 
L 2847 2094 
Q 2847 2600 2669 2842 
Q 2491 3084 2119 3084 
Q 1678 3084 1418 2786 
Q 1159 2488 1159 1978 
L 1159 0 
L 581 0 
L 581 3500 
L 1159 3500 
L 1159 2956 
Q 1356 3278 1631 3431 
Q 1906 3584 2284 3584 
Q 2666 3584 2933 3390 
Q 3200 3197 3328 2828 
z
" transform="scale(0.015625)"/>
       <path id="DejaVuSans-6c" d="M 603 4863 
L 1178 4863 
L 1178 0 
L 603 0 
L 603 4863 
z
" transform="scale(0.015625)"/>
       <path id="DejaVuSans-e7" d="M 3122 3366 
L 3122 2828 
Q 2878 2963 2633 3030 
Q 2388 3097 2138 3097 
Q 1578 3097 1268 2742 
Q 959 2388 959 1747 
Q 959 1106 1268 751 
Q 1578 397 2138 397 
Q 2388 397 2633 464 
Q 2878 531 3122 666 
L 3122 134 
Q 2881 22 2623 -34 
Q 2366 -91 2075 -91 
Q 1284 -91 818 406 
Q 353 903 353 1747 
Q 353 2603 823 3093 
Q 1294 3584 2113 3584 
Q 2378 3584 2631 3529 
Q 2884 3475 3122 3366 
z
M 2309 0 
Q 2481 -194 2565 -358 
Q 2650 -522 2650 -672 
Q 2650 -950 2462 -1092 
Q 2275 -1234 1906 -1234 
Q 1763 -1234 1627 -1215 
Q 1491 -1197 1356 -1159 
L 1356 -750 
Q 1463 -803 1578 -826 
Q 1694 -850 1841 -850 
Q 2025 -850 2119 -775 
Q 2213 -700 2213 -556 
Q 2213 -463 2145 -327 
Q 2078 -191 1938 0 
L 2309 0 
z
" transform="scale(0.015625)"/>
       <path id="DejaVuSans-e3" d="M 2194 1759 
Q 1497 1759 1228 1600 
Q 959 1441 959 1056 
Q 959 750 1161 570 
Q 1363 391 1709 391 
Q 2188 391 2477 730 
Q 2766 1069 2766 1631 
L 2766 1759 
L 2194 1759 
z
M 3341 1997 
L 3341 0 
L 2766 0 
L 2766 531 
Q 2569 213 2275 61 
Q 1981 -91 1556 -91 
Q 1019 -91 701 211 
Q 384 513 384 1019 
Q 384 1609 779 1909 
Q 1175 2209 1959 2209 
L 2766 2209 
L 2766 2266 
Q 2766 2663 2505 2880 
Q 2244 3097 1772 3097 
Q 1472 3097 1187 3025 
Q 903 2953 641 2809 
L 641 3341 
Q 956 3463 1253 3523 
Q 1550 3584 1831 3584 
Q 2591 3584 2966 3190 
Q 3341 2797 3341 1997 
z
M 1844 4281 
L 1666 4453 
Q 1597 4516 1545 4545 
Q 1494 4575 1453 4575 
Q 1334 4575 1278 4461 
Q 1222 4347 1216 4091 
L 825 4091 
Q 831 4513 990 4742 
Q 1150 4972 1434 4972 
Q 1553 4972 1653 4928 
Q 1753 4884 1869 4781 
L 2047 4609 
Q 2116 4547 2167 4517 
Q 2219 4488 2259 4488 
Q 2378 4488 2434 4602 
Q 2491 4716 2497 4972 
L 2888 4972 
Q 2881 4550 2722 4320 
Q 2563 4091 2278 4091 
Q 2159 4091 2059 4134 
Q 1959 4178 1844 4281 
z
" transform="scale(0.015625)"/>
       <path id="DejaVuSans-6f" d="M 1959 3097 
Q 1497 3097 1228 2736 
Q 959 2375 959 1747 
Q 959 1119 1226 758 
Q 1494 397 1959 397 
Q 2419 397 2687 759 
Q 2956 1122 2956 1747 
Q 2956 2369 2687 2733 
Q 2419 3097 1959 3097 
z
M 1959 3584 
Q 2709 3584 3137 3096 
Q 3566 2609 3566 1747 
Q 3566 888 3137 398 
Q 2709 -91 1959 -91 
Q 1206 -91 779 398 
Q 353 888 353 1747 
Q 353 2609 779 3096 
Q 1206 3584 1959 3584 
z
" transform="scale(0.015625)"/>
      </defs>
      <use xlink:href="#DejaVuSans-53"/>
      <use xlink:href="#DejaVuSans-69" x="63.476562"/>
      <use xlink:href="#DejaVuSans-6d" x="91.259766"/>
      <use xlink:href="#DejaVuSans-75" x="188.671875"/>
      <use xlink:href="#DejaVuSans-6c" x="252.050781"/>
      <use xlink:href="#DejaVuSans-61" x="279.833984"/>
      <use xlink:href="#DejaVuSans-e7" x="341.113281"/>
      <use xlink:href="#DejaVuSans-e3" x="396.09375"/>
      <use xlink:href="#DejaVuSans-6f" x="457.373047"/>
     </g>
    </g>
   </g>
  </g>
 </g>
 <defs>
  <clipPath id="peb7df75bb9">
   <rect x="90" y="51.84" width="558" height="332.64"/>
  </clipPath>
 </defs>
</svg>
