<?xml version="1.0" encoding="utf-8" standalone="no"?>
<!DOCTYPE svg PUBLIC "-//W3C//DTD SVG 1.1//EN"
  "http://www.w3.org/Graphics/SVG/1.1/DTD/svg11.dtd">
<svg xmlns:xlink="http://www.w3.org/1999/xlink" width="720pt" height="432pt" viewBox="0 0 720 432" xmlns="http://www.w3.org/2000/svg" version="1.1">
 <metadata>
  <rdf:RDF xmlns:dc="http://purl.org/dc/elements/1.1/" xmlns:cc="http://creativecommons.org/ns#" xmlns:rdf="http://www.w3.org/1999/02/22-rdf-syntax-ns#">
   <cc:Work>
    <dc:type rdf:resource="http://purl.org/dc/dcmitype/StillImage"/>
    <dc:date>2026-04-21T00:45:44.813421</dc:date>
    <dc:format>image/svg+xml</dc:format>
    <dc:creator>
     <cc:Agent>
      <dc:title>Matplotlib v3.9.2, https://matplotlib.org/</dc:title>
     </cc:Agent>
    </dc:creator>
   </cc:Work>
  </rdf:RDF>
 </metadata>
 <defs>
  <style type="text/css">*{stroke-linejoin: round; stroke-linecap: butt}</style>
 </defs>
 <g id="figure_1">
  <g id="patch_1">
   <path d="M 0 432 
L 720 432 
L 720 0 
L 0 0 
z
" style="fill: #ffffff"/>
  </g>
  <g id="axes_1">
   <g id="patch_2">
    <path d="M 90 384.48 
L 648 384.48 
L 648 51.84 
L 90 51.84 
z
" style="fill: #ffffff"/>
   </g>
   <g id="matplotlib.axis_1">
    <g id="xtick_1">
     <g id="line2d_1">
      <defs>
       <path id="mfad706fafd" d="M 0 0 
L 0 3.5 
" style="stroke: #000000; stroke-width: 0.8"/>
      </defs>
      <g>
       <use xlink:href="#mfad706fafd" x="90" y="384.48" style="stroke: #000000; stroke-width: 0.8"/>
      </g>
     </g>
     <g id="text_1">
      <!-- 0 -->
      <g transform="translate(86.81875 399.078438) scale(0.1 -0.1)">
       <defs>
        <path id="DejaVuSans-30" d="M 2034 4250 
Q 1547 4250 1301 3770 
Q 1056 3291 1056 2328 
Q 1056 1369 1301 889 
Q 1547 409 2034 409 
Q 2525 409 2770 889 
Q 3016 1369 3016 2328 
Q 3016 3291 2770 3770 
Q 2525 4250 2034 4250 
z
M 2034 4750 
Q 2819 4750 3233 4129 
Q 3647 3509 3647 2328 
Q 3647 1150 3233 529 
Q 2819 -91 2034 -91 
Q 1250 -91 836 529 
Q 422 1150 422 2328 
Q 422 3509 836 4129 
Q 1250 4750 2034 4750 
z
" transform="scale(0.015625)"/>
       </defs>
       <use xlink:href="#DejaVuSans-30"/>
      </g>
     </g>
    </g>
    <g id="xtick_2">
     <g id="line2d_2">
      <g>
       <use xlink:href="#mfad706fafd" x="201.6" y="384.48" style="stroke: #000000; stroke-width: 0.8"/>
      </g>
     </g>
     <g id="text_2">
      <!-- 1 -->
      <g transform="translate(198.41875 399.078438) scale(0.1 -0.1)">
       <defs>
        <path id="DejaVuSans-31" d="M 794 531 
L 1825 531 
L 1825 4091 
L 703 3866 
L 703 4441 
L 1819 4666 
L 2450 4666 
L 2450 531 
L 3481 531 
L 3481 0 
L 794 0 
L 794 531 
z
" transform="scale(0.015625)"/>
       </defs>
       <use xlink:href="#DejaVuSans-31"/>
      </g>
     </g>
    </g>
    <g id="xtick_3">
     <g id="line2d_3">
      <g>
       <use xlink:href="#mfad706fafd" x="313.2" y="384.48" style="stroke: #000000; stroke-width: 0.8"/>
      </g>
     </g>
     <g id="text_3">
      <!-- 2 -->
      <g transform="translate(310.01875 399.078438) scale(0.1 -0.1)">
       <defs>
        <path id="DejaVuSans-32" d="M 1228 531 
L 3431 531 
L 3431 0 
L 469 0 
L 469 531 
Q 828 903 1448 1529 
Q 2069 2156 2228 2338 
Q 2531 2678 2651 2914 
Q 2772 3150 2772 3378 
Q 2772 3750 2511 3984 
Q 2250 4219 1831 4219 
Q 1534 4219 1204 4116 
Q 875 4013 500 3803 
L 500 4441 
Q 881 4594 1212 4672 
Q 1544 4750 1819 4750 
Q 2544 4750 2975 4387 
Q 3406 4025 3406 3419 
Q 3406 3131 3298 2873 
Q 3191 2616 2906 2266 
Q 2828 2175 2409 1742 
Q 1991 1309 1228 531 
z
" transform="scale(0.015625)"/>
       </defs>
       <use xlink:href="#DejaVuSans-32"/>
      </g>
     </g>
    </g>
    <g id="xtick_4">
     <g id="line2d_4">
      <g>
       <use xlink:href="#mfad706fafd" x="424.8" y="384.48" style="stroke: #000000; stroke-width: 0.8"/>
      </g>
     </g>
     <g id="text_4">
      <!-- 3 -->
      <g transform="translate(421.61875 399.078438) scale(0.1 -0.1)">
       <defs>
        <path id="DejaVuSans-33" d="M 2597 2516 
Q 3050 2419 3304 2112 
Q 3559 1806 3559 1356 
Q 3559 666 3084 287 
Q 2609 -91 1734 -91 
Q 1441 -91 1130 -33 
Q 819 25 488 141 
L 488 750 
Q 750 597 1062 519 
Q 1375 441 1716 441 
Q 2309 441 2620 675 
Q 2931 909 2931 1356 
Q 2931 1769 2642 2001 
Q 2353 2234 1838 2234 
L 1294 2234 
L 1294 2753 
L 1863 2753 
Q 2328 2753 2575 2939 
Q 2822 3125 2822 3475 
Q 2822 3834 2567 4026 
Q 2313 4219 1838 4219 
Q 1578 4219 1281 4162 
Q 984 4106 628 3988 
L 628 4550 
Q 988 4650 1302 4700 
Q 1616 4750 1894 4750 
Q 2613 4750 3031 4423 
Q 3450 4097 3450 3541 
Q 3450 3153 3228 2886 
Q 3006 2619 2597 2516 
z
" transform="scale(0.015625)"/>
       </defs>
       <use xlink:href="#DejaVuSans-33"/>
      </g>
     </g>
    </g>
    <g id="xtick_5">
     <g id="line2d_5">
      <g>
       <use xlink:href="#mfad706fafd" x="536.4" y="384.48" style="stroke: #000000; stroke-width: 0.8"/>
      </g>
     </g>
     <g id="text_5">
      <!-- 4 -->
      <g transform="translate(533.21875 399.078438) scale(0.1 -0.1)">
       <defs>
        <path id="DejaVuSans-34" d="M 2419 4116 
L 825 1625 
L 2419 1625 
L 2419 4116 
z
M 2253 4666 
L 3047 4666 
L 3047 1625 
L 3713 1625 
L 3713 1100 
L 3047 1100 
L 3047 0 
L 2419 0 
L 2419 1100 
L 313 1100 
L 313 1709 
L 2253 4666 
z
" transform="scale(0.015625)"/>
       </defs>
       <use xlink:href="#DejaVuSans-34"/>
      </g>
     </g>
    </g>
    <g id="xtick_6">
     <g id="line2d_6">
      <g>
       <use xlink:href="#mfad706fafd" x="648" y="384.48" style="stroke: #000000; stroke-width: 0.8"/>
      </g>
     </g>
     <g id="text_6">
      <!-- 5 -->
      <g transform="translate(644.81875 399.078438) scale(0.1 -0.1)">
       <defs>
        <path id="DejaVuSans-35" d="M 691 4666 
L 3169 4666 
L 3169 4134 
L 1269 4134 
L 1269 2991 
Q 1406 3038 1543 3061 
Q 1681 3084 1819 3084 
Q 2600 3084 3056 2656 
Q 3513 2228 3513 1497 
Q 3513 744 3044 326 
Q 2575 -91 1722 -91 
Q 1428 -91 1123 -41 
Q 819 9 494 109 
L 494 744 
Q 775 591 1075 516 
Q 1375 441 1709 441 
Q 2250 441 2565 725 
Q 2881 1009 2881 1497 
Q 2881 1984 2565 2268 
Q 2250 2553 1709 2553 
Q 1456 2553 1204 2497 
Q 953 2441 691 2322 
L 691 4666 
z
" transform="scale(0.015625)"/>
       </defs>
       <use xlink:href="#DejaVuSans-35"/>
      </g>
     </g>
    </g>
    <g id="text_7">
     <!-- x -->
     <g transform="translate(363.08125 420.355) scale(0.2 -0.2)">
      <defs>
       <path id="DejaVuSans-78" d="M 3513 3500 
L 2247 1797 
L 3578 0 
L 2900 0 
L 1881 1375 
L 863 0 
L 184 0 
L 1544 1831 
L 300 3500 
L 978 3500 
L 1906 2253 
L 2834 3500 
L 3513 3500 
z
" transform="scale(0.015625)"/>
      </defs>
      <use xlink:href="#DejaVuSans-78"/>
     </g>
    </g>
   </g>
   <g id="matplotlib.axis_2">
    <g id="ytick_1">
     <g id="line2d_7">
      <defs>
       <path id="m68ab61cce1" d="M 0 0 
L -3.5 0 
" style="stroke: #000000; stroke-width: 0.8"/>
      </defs>
      <g>
       <use xlink:href="#m68ab61cce1" x="90" y="369.36" style="stroke: #000000; stroke-width: 0.8"/>
      </g>
     </g>
     <g id="text_8">
      <!-- 0.00 -->
      <g transform="translate(60.734375 373.159219) scale(0.1 -0.1)">
       <defs>
        <path id="DejaVuSans-2e" d="M 684 794 
L 1344 794 
L 1344 0 
L 684 0 
L 684 794 
z
" transform="scale(0.015625)"/>
       </defs>
       <use xlink:href="#DejaVuSans-30"/>
       <use xlink:href="#DejaVuSans-2e" x="63.623047"/>
       <use xlink:href="#DejaVuSans-30" x="95.410156"/>
       <use xlink:href="#DejaVuSans-30" x="159.033203"/>
      </g>
     </g>
    </g>
    <g id="ytick_2">
     <g id="line2d_8">
      <g>
       <use xlink:href="#m68ab61cce1" x="90" y="331.56" style="stroke: #000000; stroke-width: 0.8"/>
      </g>
     </g>
     <g id="text_9">
      <!-- 0.25 -->
      <g transform="translate(60.734375 335.359219) scale(0.1 -0.1)">
       <use xlink:href="#DejaVuSans-30"/>
       <use xlink:href="#DejaVuSans-2e" x="63.623047"/>
       <use xlink:href="#DejaVuSans-32" x="95.410156"/>
       <use xlink:href="#DejaVuSans-35" x="159.033203"/>
      </g>
     </g>
    </g>
    <g id="ytick_3">
     <g id="line2d_9">
      <g>
       <use xlink:href="#m68ab61cce1" x="90" y="293.76" style="stroke: #000000; stroke-width: 0.8"/>
      </g>
     </g>
     <g id="text_10">
      <!-- 0.50 -->
      <g transform="translate(60.734375 297.559219) scale(0.1 -0.1)">
       <use xlink:href="#DejaVuSans-30"/>
       <use xlink:href="#DejaVuSans-2e" x="63.623047"/>
       <use xlink:href="#DejaVuSans-35" x="95.410156"/>
       <use xlink:href="#DejaVuSans-30" x="159.033203"/>
      </g>
     </g>
    </g>
    <g id="ytick_4">
     <g id="line2d_10">
      <g>
       <use xlink:href="#m68ab61cce1" x="90" y="255.96" style="stroke: #000000; stroke-width: 0.8"/>
      </g>
     </g>
     <g id="text_11">
      <!-- 0.75 -->
      <g transform="translate(60.734375 259.759219) scale(0.1 -0.1)">
       <defs>
        <path id="DejaVuSans-37" d="M 525 4666 
L 3525 4666 
L 3525 4397 
L 1831 0 
L 1172 0 
L 2766 4134 
L 525 4134 
L 525 4666 
z
" transform="scale(0.015625)"/>
       </defs>
       <use xlink:href="#DejaVuSans-30"/>
       <use xlink:href="#DejaVuSans-2e" x="63.623047"/>
       <use xlink:href="#DejaVuSans-37" x="95.410156"/>
       <use xlink:href="#DejaVuSans-35" x="159.033203"/>
      </g>
     </g>
    </g>
    <g id="ytick_5">
     <g id="line2d_11">
      <g>
       <use xlink:href="#m68ab61cce1" x="90" y="218.16" style="stroke: #000000; stroke-width: 0.8"/>
      </g>
     </g>
     <g id="text_12">
      <!-- 1.00 -->
      <g transform="translate(60.734375 221.959219) scale(0.1 -0.1)">
       <use xlink:href="#DejaVuSans-31"/>
       <use xlink:href="#DejaVuSans-2e" x="63.623047"/>
       <use xlink:href="#DejaVuSans-30" x="95.410156"/>
       <use xlink:href="#DejaVuSans-30" x="159.033203"/>
      </g>
     </g>
    </g>
    <g id="ytick_6">
     <g id="line2d_12">
      <g>
       <use xlink:href="#m68ab61cce1" x="90" y="180.36" style="stroke: #000000; stroke-width: 0.8"/>
      </g>
     </g>
     <g id="text_13">
      <!-- 1.25 -->
      <g transform="translate(60.734375 184.159219) scale(0.1 -0.1)">
       <use xlink:href="#DejaVuSans-31"/>
       <use xlink:href="#DejaVuSans-2e" x="63.623047"/>
       <use xlink:href="#DejaVuSans-32" x="95.410156"/>
       <use xlink:href="#DejaVuSans-35" x="159.033203"/>
      </g>
     </g>
    </g>
    <g id="ytick_7">
     <g id="line2d_13">
      <g>
       <use xlink:href="#m68ab61cce1" x="90" y="142.56" style="stroke: #000000; stroke-width: 0.8"/>
      </g>
     </g>
     <g id="text_14">
      <!-- 1.50 -->
      <g transform="translate(60.734375 146.359219) scale(0.1 -0.1)">
       <use xlink:href="#DejaVuSans-31"/>
       <use xlink:href="#DejaVuSans-2e" x="63.623047"/>
       <use xlink:href="#DejaVuSans-35" x="95.410156"/>
       <use xlink:href="#DejaVuSans-30" x="159.033203"/>
      </g>
     </g>
    </g>
    <g id="ytick_8">
     <g id="line2d_14">
      <g>
       <use xlink:href="#m68ab61cce1" x="90" y="104.76" style="stroke: #000000; stroke-width: 0.8"/>
      </g>
     </g>
     <g id="text_15">
      <!-- 1.75 -->
      <g transform="translate(60.734375 108.559219) scale(0.1 -0.1)">
       <use xlink:href="#DejaVuSans-31"/>
       <use xlink:href="#DejaVuSans-2e" x="63.623047"/>
       <use xlink:href="#DejaVuSans-37" x="95.410156"/>
       <use xlink:href="#DejaVuSans-35" x="159.033203"/>
      </g>
     </g>
    </g>
    <g id="ytick_9">
     <g id="line2d_15">
      <g>
       <use xlink:href="#m68ab61cce1" x="90" y="66.96" style="stroke: #000000; stroke-width: 0.8"/>
      </g>
     </g>
     <g id="text_16">
      <!-- 2.00 -->
      <g transform="translate(60.734375 70.759219) scale(0.1 -0.1)">
       <use xlink:href="#DejaVuSans-32"/>
       <use xlink:href="#DejaVuSans-2e" x="63.623047"/>
       <use xlink:href="#DejaVuSans-30" x="95.410156"/>
       <use xlink:href="#DejaVuSans-30" x="159.033203"/>
      </g>
     </g>
    </g>
    <g id="text_17">
     <!-- f(x) -->
     <g transform="translate(52.575 235.402187) rotate(-90) scale(0.2 -0.2)">
      <defs>
       <path id="DejaVuSans-66" d="M 2375 4863 
L 2375 4384 
L 1825 4384 
Q 1516 4384 1395 4259 
Q 1275 4134 1275 3809 
L 1275 3500 
L 2222 3500 
L 2222 3053 
L 1275 3053 
L 1275 0 
L 697 0 
L 697 3053 
L 147 3053 
L 147 3500 
L 697 3500 
L 697 3744 
Q 697 4328 969 4595 
Q 1241 4863 1831 4863 
L 2375 4863 
z
" transform="scale(0.015625)"/>
       <path id="DejaVuSans-28" d="M 1984 4856 
Q 1566 4138 1362 3434 
Q 1159 2731 1159 2009 
Q 1159 1288 1364 580 
Q 1569 -128 1984 -844 
L 1484 -844 
Q 1016 -109 783 600 
Q 550 1309 550 2009 
Q 550 2706 781 3412 
Q 1013 4119 1484 4856 
L 1984 4856 
z
" transform="scale(0.015625)"/>
       <path id="DejaVuSans-29" d="M 513 4856 
L 1013 4856 
Q 1481 4119 1714 3412 
Q 1947 2706 1947 2009 
Q 1947 1309 1714 600 
Q 1481 -109 1013 -844 
L 513 -844 
Q 928 -128 1133 580 
Q 1338 1288 1338 2009 
Q 1338 2731 1133 3434 
Q 928 4138 513 4856 
z
" transform="scale(0.015625)"/>
      </defs>
      <use xlink:href="#DejaVuSans-66"/>
      <use xlink:href="#DejaVuSans-28" x="35.205078"/>
      <use xlink:href="#DejaVuSans-78" x="74.21875"/>
      <use xlink:href="#DejaVuSans-29" x="133.398438"/>
     </g>
    </g>
   </g>
   <g id="line2d_16">
    <path d="M -1 369.36 
L 0.72 369.36 
L 6.3 369.36 
L 11.88 369.36 
L 17.46 369.36 
L 23.04 369.36 
L 28.62 369.36 
L 34.2 369.36 
L 39.78 369.36 
L 45.36 369.36 
L 50.94 369.36 
L 56.52 369.36 
L 62.1 369.36 
L 67.68 369.36 
L 73.26 369.36 
L 78.84 369.36 
L 84.42 369.36 
L 90 66.96 
L 95.58 95.737165 
L 101.16 121.77582 
L 106.74 145.33657 
L 112.32 166.655218 
L 117.9 185.945129 
L 123.48 203.399361 
L 129.06 219.192604 
L 134.64 233.482921 
L 140.22 246.413335 
L 145.8 258.113257 
L 151.38 268.699784 
L 156.96 278.27887 
L 162.54 286.946386 
L 168.12 294.789078 
L 173.7 301.88544 
L 179.28 308.306493 
L 184.86 314.116502 
L 190.44 319.373616 
L 196.02 324.13045 
L 201.6 328.43461 
L 207.18 332.329176 
L 212.76 335.853125 
L 218.34 339.041726 
L 223.92 341.926891 
L 229.5 344.537496 
L 235.08 346.89967 
L 240.66 349.037053 
L 246.24 350.971037 
L 251.82 352.720978 
L 257.4 354.304391 
L 262.98 355.737121 
L 268.56 357.03351 
L 274.14 358.20653 
L 279.72 359.267923 
L 285.3 360.228311 
L 290.88 361.097306 
L 296.46 361.883606 
L 302.04 362.595079 
L 307.62 363.238846 
L 313.2 363.821351 
L 318.78 364.348423 
L 324.36 364.825338 
L 329.94 365.256868 
L 335.52 365.647332 
L 341.1 366.000639 
L 346.68 366.320325 
L 352.26 366.609588 
L 357.84 366.871324 
L 363.42 367.108153 
L 369 367.322445 
L 374.58 367.516344 
L 380.16 367.691791 
L 385.74 367.850542 
L 391.32 367.994186 
L 396.9 368.12416 
L 402.48 368.241766 
L 408.06 368.34818 
L 413.64 368.444467 
L 419.22 368.531592 
L 424.8 368.610425 
L 430.38 368.681757 
L 435.96 368.7463 
L 441.54 368.804701 
L 447.12 368.857545 
L 452.7 368.90536 
L 458.28 368.948625 
L 463.86 368.987772 
L 469.44 369.023194 
L 475.02 369.055246 
L 480.6 369.084247 
L 486.18 369.110488 
L 491.76 369.134232 
L 497.34 369.155717 
L 502.92 369.175157 
L 508.5 369.192747 
L 514.08 369.208663 
L 519.66 369.223065 
L 525.24 369.236096 
L 530.82 369.247887 
L 536.4 369.258556 
L 541.98 369.26821 
L 547.56 369.276945 
L 553.14 369.284849 
L 558.72 369.292 
L 564.3 369.298471 
L 569.88 369.304326 
L 575.46 369.309624 
L 581.04 369.314418 
L 586.62 369.318756 
L 592.2 369.322681 
L 597.78 369.326232 
L 603.36 369.329446 
L 608.94 369.332353 
L 614.52 369.334984 
L 620.1 369.337365 
L 625.68 369.339519 
L 631.26 369.341468 
L 636.84 369.343231 
L 642.42 369.344827 
" clip-path="url(#p59e8992ab1)" style="fill: none; stroke-dasharray: 5.55,2.4; stroke-dashoffset: 0; stroke: #1f77b4; stroke-width: 1.5"/>
   </g>
   <g id="line2d_17">
    <path d="M -1 369.36 
L 0.72 369.36 
L 6.3 369.36 
L 11.88 369.36 
L 17.46 369.36 
L 23.04 369.36 
L 28.62 369.36 
L 34.2 369.36 
L 39.78 369.36 
L 45.36 369.36 
L 50.94 369.36 
L 56.52 369.36 
L 62.1 369.36 
L 67.68 369.36 
L 73.26 369.36 
L 78.84 369.36 
L 84.42 369.36 
L 90 218.16 
L 95.58 225.534111 
L 101.16 232.548582 
L 106.74 239.220954 
L 112.32 245.56791 
L 117.9 251.605322 
L 123.48 257.348285 
L 129.06 262.811161 
L 134.64 268.007609 
L 140.22 272.950623 
L 145.8 277.652564 
L 151.38 282.125189 
L 156.96 286.379681 
L 162.54 290.426679 
L 168.12 294.276302 
L 173.7 297.938177 
L 179.28 301.421461 
L 184.86 304.734862 
L 190.44 307.886667 
L 196.02 310.884757 
L 201.6 313.736628 
L 207.18 316.449412 
L 212.76 319.029892 
L 218.34 321.48452 
L 223.92 323.819435 
L 229.5 326.040475 
L 235.08 328.153193 
L 240.66 330.162873 
L 246.24 332.074539 
L 251.82 333.892972 
L 257.4 335.62272 
L 262.98 337.268106 
L 268.56 338.833246 
L 274.14 340.322054 
L 279.72 341.738251 
L 285.3 343.08538 
L 290.88 344.366808 
L 296.46 345.58574 
L 302.04 346.745225 
L 307.62 347.84816 
L 313.2 348.897305 
L 318.78 349.895283 
L 324.36 350.844588 
L 329.94 351.747595 
L 335.52 352.606562 
L 341.1 353.423637 
L 346.68 354.200863 
L 352.26 354.940183 
L 357.84 355.643445 
L 363.42 356.31241 
L 369 356.948748 
L 374.58 357.554052 
L 380.16 358.129835 
L 385.74 358.677537 
L 391.32 359.198526 
L 396.9 359.694107 
L 402.48 360.165519 
L 408.06 360.613939 
L 413.64 361.040489 
L 419.22 361.446236 
L 424.8 361.832195 
L 430.38 362.199331 
L 435.96 362.548561 
L 441.54 362.880758 
L 447.12 363.196755 
L 452.7 363.49734 
L 458.28 363.783265 
L 463.86 364.055246 
L 469.44 364.313962 
L 475.02 364.56006 
L 480.6 364.794156 
L 486.18 365.016834 
L 491.76 365.228653 
L 497.34 365.430141 
L 502.92 365.621803 
L 508.5 365.804117 
L 514.08 365.977539 
L 519.66 366.142504 
L 525.24 366.299423 
L 530.82 366.448689 
L 536.4 366.590675 
L 541.98 366.725737 
L 547.56 366.854211 
L 553.14 366.97642 
L 558.72 367.092669 
L 564.3 367.203248 
L 569.88 367.308434 
L 575.46 367.40849 
L 581.04 367.503666 
L 586.62 367.594201 
L 592.2 367.68032 
L 597.78 367.762239 
L 603.36 367.840162 
L 608.94 367.914286 
L 614.52 367.984794 
L 620.1 368.051864 
L 625.68 368.115662 
L 631.26 368.176349 
L 636.84 368.234077 
L 642.42 368.288989 
" clip-path="url(#p59e8992ab1)" style="fill: none; stroke: #ff7f0e; stroke-width: 1.5; stroke-linecap: square"/>
   </g>
   <g id="line2d_18">
    <path d="M -1 369.36 
L 0.72 369.36 
L 6.3 369.36 
L 11.88 369.36 
L 17.46 369.36 
L 23.04 369.36 
L 28.62 369.36 
L 34.2 369.36 
L 39.78 369.36 
L 45.36 369.36 
L 50.94 369.36 
L 56.52 369.36 
L 62.1 369.36 
L 67.68 369.36 
L 73.26 369.36 
L 78.84 369.36 
L 84.42 369.36 
L 90 293.76 
L 95.58 295.626571 
L 101.16 297.447056 
L 106.74 299.222592 
L 112.32 300.954291 
L 117.9 302.643234 
L 123.48 304.290477 
L 129.06 305.897049 
L 134.64 307.463955 
L 140.22 308.992174 
L 145.8 310.482661 
L 151.38 311.936347 
L 156.96 313.354143 
L 162.54 314.736932 
L 168.12 316.08558 
L 173.7 317.400931 
L 179.28 318.683805 
L 184.86 319.935004 
L 190.44 321.155312 
L 196.02 322.34549 
L 201.6 323.506282 
L 207.18 324.638414 
L 212.76 325.742594 
L 218.34 326.819512 
L 223.92 327.86984 
L 229.5 328.894236 
L 235.08 329.893339 
L 240.66 330.867775 
L 246.24 331.818151 
L 251.82 332.745063 
L 257.4 333.649089 
L 262.98 334.530794 
L 268.56 335.39073 
L 274.14 336.229435 
L 279.72 337.047431 
L 285.3 337.845231 
L 290.88 338.623334 
L 296.46 339.382225 
L 302.04 340.122379 
L 307.62 340.844258 
L 313.2 341.548314 
L 318.78 342.234987 
L 324.36 342.904706 
L 329.94 343.55789 
L 335.52 344.194946 
L 341.1 344.816273 
L 346.68 345.42226 
L 352.26 346.013285 
L 357.84 346.589718 
L 363.42 347.151918 
L 369 347.700237 
L 374.58 348.235019 
L 380.16 348.756596 
L 385.74 349.265296 
L 391.32 349.761436 
L 396.9 350.245327 
L 402.48 350.71727 
L 408.06 351.17756 
L 413.64 351.626486 
L 419.22 352.064328 
L 424.8 352.49136 
L 430.38 352.907848 
L 435.96 353.314053 
L 441.54 353.710229 
L 447.12 354.096623 
L 452.7 354.473477 
L 458.28 354.841027 
L 463.86 355.199502 
L 469.44 355.549126 
L 475.02 355.890117 
L 480.6 356.22269 
L 486.18 356.547051 
L 491.76 356.863404 
L 497.34 357.171946 
L 502.92 357.47287 
L 508.5 357.766365 
L 514.08 358.052612 
L 519.66 358.331793 
L 525.24 358.60408 
L 530.82 358.869645 
L 536.4 359.128653 
L 541.98 359.381265 
L 547.56 359.627641 
L 553.14 359.867934 
L 558.72 360.102294 
L 564.3 360.330868 
L 569.88 360.553798 
L 575.46 360.771224 
L 581.04 360.983281 
L 586.62 361.190103 
L 592.2 361.391819 
L 597.78 361.588554 
L 603.36 361.780431 
L 608.94 361.967572 
L 614.52 362.150091 
L 620.1 362.328105 
L 625.68 362.501723 
L 631.26 362.671054 
L 636.84 362.836205 
L 642.42 362.997278 
" clip-path="url(#p59e8992ab1)" style="fill: none; stroke-dasharray: 1.5,2.475; stroke-dashoffset: 0; stroke: #2ca02c; stroke-width: 1.5"/>
   </g>
   <g id="patch_3">
    <path d="M 90 384.48 
L 90 51.84 
" style="fill: none; stroke: #000000; stroke-width: 0.8; stroke-linejoin: miter; stroke-linecap: square"/>
   </g>
   <g id="patch_4">
    <path d="M 648 384.48 
L 648 51.84 
" style="fill: none; stroke: #000000; stroke-width: 0.8; stroke-linejoin: miter; stroke-linecap: square"/>
   </g>
   <g id="patch_5">
    <path d="M 90 384.48 
L 648 384.48 
" style="fill: none; stroke: #000000; stroke-width: 0.8; stroke-linejoin: miter; stroke-linecap: square"/>
   </g>
   <g id="patch_6">
    <path d="M 90 51.84 
L 648 51.84 
" style="fill: none; stroke: #000000; stroke-width: 0.8; stroke-linejoin: miter; stroke-linecap: square"/>
   </g>
   <g id="legend_1">
    <g id="patch_7">
     <path d="M 537.3 129.891562 
L 637.5 129.891562 
Q 640.5 129.891562 640.5 126.891562 
L 640.5 62.34 
Q 640.5 59.34 637.5 59.34 
L 537.3 59.34 
Q 534.3 59.34 534.3 62.34 
L 534.3 126.891562 
Q 534.3 129.891562 537.3 129.891562 
z
" style="fill: #ffffff; opacity: 0.8; stroke: #cccccc; stroke-linejoin: miter"/>
    </g>
    <g id="line2d_19">
     <path d="M 540.3 71.487656 
L 555.3 71.487656 
L 570.3 71.487656 
" style="fill: none; stroke-dasharray: 5.55,2.4; stroke-dashoffset: 0; stroke: #1f77b4; stroke-width: 1.5"/>
    </g>
    <g id="text_18">
     <!-- $\alpha=$0.5 -->
     <g transform="translate(582.3 76.737656) scale(0.15 -0.15)">
      <defs>
       <path id="DejaVuSans-Oblique-3b1" d="M 2619 1628 
L 2622 2350 
Q 2625 3088 2069 3091 
Q 1653 3094 1394 2747 
Q 1069 2319 959 1747 
Q 825 1059 994 731 
Q 1169 397 1547 397 
Q 1966 397 2319 1063 
L 2619 1628 
z
M 2166 3578 
Q 3141 3594 3128 2584 
Q 3128 2584 3616 3500 
L 4128 3500 
L 3119 1603 
L 3109 919 
Q 3109 766 3194 638 
Q 3291 488 3391 488 
L 3669 488 
L 3575 0 
L 3228 0 
Q 2934 0 2722 263 
Q 2622 394 2619 669 
Q 2416 334 2066 50 
Q 1900 -81 1453 -78 
Q 722 -72 456 397 
Q 184 884 353 1747 
Q 534 2675 1009 3097 
Q 1544 3569 2166 3578 
z
" transform="scale(0.015625)"/>
       <path id="DejaVuSans-3d" d="M 678 2906 
L 4684 2906 
L 4684 2381 
L 678 2381 
L 678 2906 
z
M 678 1631 
L 4684 1631 
L 4684 1100 
L 678 1100 
L 678 1631 
z
" transform="scale(0.015625)"/>
      </defs>
      <use xlink:href="#DejaVuSans-Oblique-3b1" transform="translate(0 0.78125)"/>
      <use xlink:href="#DejaVuSans-3d" transform="translate(85.400391 0.78125)"/>
      <use xlink:href="#DejaVuSans-30" transform="translate(188.671875 0.78125)"/>
      <use xlink:href="#DejaVuSans-2e" transform="translate(252.294922 0.78125)"/>
      <use xlink:href="#DejaVuSans-35" transform="translate(284.082031 0.78125)"/>
     </g>
    </g>
    <g id="line2d_20">
     <path d="M 540.3 93.504844 
L 555.3 93.504844 
L 570.3 93.504844 
" style="fill: none; stroke: #ff7f0e; stroke-width: 1.5; stroke-linecap: square"/>
    </g>
    <g id="text_19">
     <!-- $\alpha=$1 -->
     <g transform="translate(582.3 98.754844) scale(0.15 -0.15)">
      <use xlink:href="#DejaVuSans-Oblique-3b1" transform="translate(0 0.09375)"/>
      <use xlink:href="#DejaVuSans-3d" transform="translate(85.400391 0.09375)"/>
      <use xlink:href="#DejaVuSans-31" transform="translate(188.671875 0.09375)"/>
     </g>
    </g>
    <g id="line2d_21">
     <path d="M 540.3 115.522031 
L 555.3 115.522031 
L 570.3 115.522031 
" style="fill: none; stroke-dasharray: 1.5,2.475; stroke-dashoffset: 0; stroke: #2ca02c; stroke-width: 1.5"/>
    </g>
    <g id="text_20">
     <!-- $\alpha=$2 -->
     <g transform="translate(582.3 120.772031) scale(0.15 -0.15)">
      <use xlink:href="#DejaVuSans-Oblique-3b1" transform="translate(0 0.78125)"/>
      <use xlink:href="#DejaVuSans-3d" transform="translate(85.400391 0.78125)"/>
      <use xlink:href="#DejaVuSans-32" transform="translate(188.671875 0.78125)"/>
     </g>
    </g>
   </g>
  </g>
 </g>
 <defs>
  <clipPath id="p59e8992ab1">
   <rect x="90" y="51.84" width="558" height="332.64"/>
  </clipPath>
 </defs>
</svg>
