<?xml version="1.0" encoding="utf-8" standalone="no"?>
<!DOCTYPE svg PUBLIC "-//W3C//DTD SVG 1.1//EN"
  "http://www.w3.org/Graphics/SVG/1.1/DTD/svg11.dtd">
<svg xmlns:xlink="http://www.w3.org/1999/xlink" width="720pt" height="432pt" viewBox="0 0 720 432" xmlns="http://www.w3.org/2000/svg" version="1.1">
 <metadata>
  <rdf:RDF xmlns:dc="http://purl.org/dc/elements/1.1/" xmlns:cc="http://creativecommons.org/ns#" xmlns:rdf="http://www.w3.org/1999/02/22-rdf-syntax-ns#">
   <cc:Work>
    <dc:type rdf:resource="http://purl.org/dc/dcmitype/StillImage"/>
    <dc:date>2026-04-21T01:01:12.793713</dc:date>
    <dc:format>image/svg+xml</dc:format>
    <dc:creator>
     <cc:Agent>
      <dc:title>Matplotlib v3.9.2, https://matplotlib.org/</dc:title>
     </cc:Agent>
    </dc:creator>
   </cc:Work>
  </rdf:RDF>
 </metadata>
 <defs>
  <style type="text/css">*{stroke-linejoin: round; stroke-linecap: butt}</style>
 </defs>
 <g id="figure_1">
  <g id="patch_1">
   <path d="M 0 432 
L 720 432 
L 720 0 
L 0 0 
z
" style="fill: #ffffff"/>
  </g>
  <g id="axes_1">
   <g id="patch_2">
    <path d="M 90 384.48 
L 648 384.48 
L 648 51.84 
L 90 51.84 
z
" style="fill: #ffffff"/>
   </g>
   <g id="matplotlib.axis_1">
    <g id="xtick_1">
     <g id="line2d_1">
      <defs>
       <path id="m0b68887ae4" d="M 0 0 
L 0 3.5 
" style="stroke: #000000; stroke-width: 0.8"/>
      </defs>
      <g>
       <use xlink:href="#m0b68887ae4" x="115.363636" y="384.48" style="stroke: #000000; stroke-width: 0.8"/>
      </g>
     </g>
     <g id="text_1">
      <!-- 0.0 -->
      <g transform="translate(107.412074 399.078438) scale(0.1 -0.1)">
       <defs>
        <path id="DejaVuSans-30" d="M 2034 4250 
Q 1547 4250 1301 3770 
Q 1056 3291 1056 2328 
Q 1056 1369 1301 889 
Q 1547 409 2034 409 
Q 2525 409 2770 889 
Q 3016 1369 3016 2328 
Q 3016 3291 2770 3770 
Q 2525 4250 2034 4250 
z
M 2034 4750 
Q 2819 4750 3233 4129 
Q 3647 3509 3647 2328 
Q 3647 1150 3233 529 
Q 2819 -91 2034 -91 
Q 1250 -91 836 529 
Q 422 1150 422 2328 
Q 422 3509 836 4129 
Q 1250 4750 2034 4750 
z
" transform="scale(0.015625)"/>
        <path id="DejaVuSans-2e" d="M 684 794 
L 1344 794 
L 1344 0 
L 684 0 
L 684 794 
z
" transform="scale(0.015625)"/>
       </defs>
       <use xlink:href="#DejaVuSans-30"/>
       <use xlink:href="#DejaVuSans-2e" x="63.623047"/>
       <use xlink:href="#DejaVuSans-30" x="95.410156"/>
      </g>
     </g>
    </g>
    <g id="xtick_2">
     <g id="line2d_2">
      <g>
       <use xlink:href="#m0b68887ae4" x="178.772727" y="384.48" style="stroke: #000000; stroke-width: 0.8"/>
      </g>
     </g>
     <g id="text_2">
      <!-- 2.5 -->
      <g transform="translate(170.821165 399.078438) scale(0.1 -0.1)">
       <defs>
        <path id="DejaVuSans-32" d="M 1228 531 
L 3431 531 
L 3431 0 
L 469 0 
L 469 531 
Q 828 903 1448 1529 
Q 2069 2156 2228 2338 
Q 2531 2678 2651 2914 
Q 2772 3150 2772 3378 
Q 2772 3750 2511 3984 
Q 2250 4219 1831 4219 
Q 1534 4219 1204 4116 
Q 875 4013 500 3803 
L 500 4441 
Q 881 4594 1212 4672 
Q 1544 4750 1819 4750 
Q 2544 4750 2975 4387 
Q 3406 4025 3406 3419 
Q 3406 3131 3298 2873 
Q 3191 2616 2906 2266 
Q 2828 2175 2409 1742 
Q 1991 1309 1228 531 
z
" transform="scale(0.015625)"/>
        <path id="DejaVuSans-35" d="M 691 4666 
L 3169 4666 
L 3169 4134 
L 1269 4134 
L 1269 2991 
Q 1406 3038 1543 3061 
Q 1681 3084 1819 3084 
Q 2600 3084 3056 2656 
Q 3513 2228 3513 1497 
Q 3513 744 3044 326 
Q 2575 -91 1722 -91 
Q 1428 -91 1123 -41 
Q 819 9 494 109 
L 494 744 
Q 775 591 1075 516 
Q 1375 441 1709 441 
Q 2250 441 2565 725 
Q 2881 1009 2881 1497 
Q 2881 1984 2565 2268 
Q 2250 2553 1709 2553 
Q 1456 2553 1204 2497 
Q 953 2441 691 2322 
L 691 4666 
z
" transform="scale(0.015625)"/>
       </defs>
       <use xlink:href="#DejaVuSans-32"/>
       <use xlink:href="#DejaVuSans-2e" x="63.623047"/>
       <use xlink:href="#DejaVuSans-35" x="95.410156"/>
      </g>
     </g>
    </g>
    <g id="xtick_3">
     <g id="line2d_3">
      <g>
       <use xlink:href="#m0b68887ae4" x="242.181818" y="384.48" style="stroke: #000000; stroke-width: 0.8"/>
      </g>
     </g>
     <g id="text_3">
      <!-- 5.0 -->
      <g transform="translate(234.230256 399.078438) scale(0.1 -0.1)">
       <use xlink:href="#DejaVuSans-35"/>
       <use xlink:href="#DejaVuSans-2e" x="63.623047"/>
       <use xlink:href="#DejaVuSans-30" x="95.410156"/>
      </g>
     </g>
    </g>
    <g id="xtick_4">
     <g id="line2d_4">
      <g>
       <use xlink:href="#m0b68887ae4" x="305.590909" y="384.48" style="stroke: #000000; stroke-width: 0.8"/>
      </g>
     </g>
     <g id="text_4">
      <!-- 7.5 -->
      <g transform="translate(297.639347 399.078438) scale(0.1 -0.1)">
       <defs>
        <path id="DejaVuSans-37" d="M 525 4666 
L 3525 4666 
L 3525 4397 
L 1831 0 
L 1172 0 
L 2766 4134 
L 525 4134 
L 525 4666 
z
" transform="scale(0.015625)"/>
       </defs>
       <use xlink:href="#DejaVuSans-37"/>
       <use xlink:href="#DejaVuSans-2e" x="63.623047"/>
       <use xlink:href="#DejaVuSans-35" x="95.410156"/>
      </g>
     </g>
    </g>
    <g id="xtick_5">
     <g id="line2d_5">
      <g>
       <use xlink:href="#m0b68887ae4" x="369" y="384.48" style="stroke: #000000; stroke-width: 0.8"/>
      </g>
     </g>
     <g id="text_5">
      <!-- 10.0 -->
      <g transform="translate(357.867188 399.078438) scale(0.1 -0.1)">
       <defs>
        <path id="DejaVuSans-31" d="M 794 531 
L 1825 531 
L 1825 4091 
L 703 3866 
L 703 4441 
L 1819 4666 
L 2450 4666 
L 2450 531 
L 3481 531 
L 3481 0 
L 794 0 
L 794 531 
z
" transform="scale(0.015625)"/>
       </defs>
       <use xlink:href="#DejaVuSans-31"/>
       <use xlink:href="#DejaVuSans-30" x="63.623047"/>
       <use xlink:href="#DejaVuSans-2e" x="127.246094"/>
       <use xlink:href="#DejaVuSans-30" x="159.033203"/>
      </g>
     </g>
    </g>
    <g id="xtick_6">
     <g id="line2d_6">
      <g>
       <use xlink:href="#m0b68887ae4" x="432.409091" y="384.48" style="stroke: #000000; stroke-width: 0.8"/>
      </g>
     </g>
     <g id="text_6">
      <!-- 12.5 -->
      <g transform="translate(421.276278 399.078438) scale(0.1 -0.1)">
       <use xlink:href="#DejaVuSans-31"/>
       <use xlink:href="#DejaVuSans-32" x="63.623047"/>
       <use xlink:href="#DejaVuSans-2e" x="127.246094"/>
       <use xlink:href="#DejaVuSans-35" x="159.033203"/>
      </g>
     </g>
    </g>
    <g id="xtick_7">
     <g id="line2d_7">
      <g>
       <use xlink:href="#m0b68887ae4" x="495.818182" y="384.48" style="stroke: #000000; stroke-width: 0.8"/>
      </g>
     </g>
     <g id="text_7">
      <!-- 15.0 -->
      <g transform="translate(484.685369 399.078438) scale(0.1 -0.1)">
       <use xlink:href="#DejaVuSans-31"/>
       <use xlink:href="#DejaVuSans-35" x="63.623047"/>
       <use xlink:href="#DejaVuSans-2e" x="127.246094"/>
       <use xlink:href="#DejaVuSans-30" x="159.033203"/>
      </g>
     </g>
    </g>
    <g id="xtick_8">
     <g id="line2d_8">
      <g>
       <use xlink:href="#m0b68887ae4" x="559.227273" y="384.48" style="stroke: #000000; stroke-width: 0.8"/>
      </g>
     </g>
     <g id="text_8">
      <!-- 17.5 -->
      <g transform="translate(548.09446 399.078438) scale(0.1 -0.1)">
       <use xlink:href="#DejaVuSans-31"/>
       <use xlink:href="#DejaVuSans-37" x="63.623047"/>
       <use xlink:href="#DejaVuSans-2e" x="127.246094"/>
       <use xlink:href="#DejaVuSans-35" x="159.033203"/>
      </g>
     </g>
    </g>
    <g id="xtick_9">
     <g id="line2d_9">
      <g>
       <use xlink:href="#m0b68887ae4" x="622.636364" y="384.48" style="stroke: #000000; stroke-width: 0.8"/>
      </g>
     </g>
     <g id="text_9">
      <!-- 20.0 -->
      <g transform="translate(611.503551 399.078438) scale(0.1 -0.1)">
       <use xlink:href="#DejaVuSans-32"/>
       <use xlink:href="#DejaVuSans-30" x="63.623047"/>
       <use xlink:href="#DejaVuSans-2e" x="127.246094"/>
       <use xlink:href="#DejaVuSans-30" x="159.033203"/>
      </g>
     </g>
    </g>
    <g id="text_10">
     <!-- x -->
     <g transform="translate(363.08125 420.355) scale(0.2 -0.2)">
      <defs>
       <path id="DejaVuSans-78" d="M 3513 3500 
L 2247 1797 
L 3578 0 
L 2900 0 
L 1881 1375 
L 863 0 
L 184 0 
L 1544 1831 
L 300 3500 
L 978 3500 
L 1906 2253 
L 2834 3500 
L 3513 3500 
z
" transform="scale(0.015625)"/>
      </defs>
      <use xlink:href="#DejaVuSans-78"/>
     </g>
    </g>
   </g>
   <g id="matplotlib.axis_2">
    <g id="ytick_1">
     <g id="line2d_10">
      <defs>
       <path id="m0440ff45b6" d="M 0 0 
L -3.5 0 
" style="stroke: #000000; stroke-width: 0.8"/>
      </defs>
      <g>
       <use xlink:href="#m0440ff45b6" x="90" y="369.36" style="stroke: #000000; stroke-width: 0.8"/>
      </g>
     </g>
     <g id="text_11">
      <!-- 0.0 -->
      <g transform="translate(67.096875 373.159219) scale(0.1 -0.1)">
       <use xlink:href="#DejaVuSans-30"/>
       <use xlink:href="#DejaVuSans-2e" x="63.623047"/>
       <use xlink:href="#DejaVuSans-30" x="95.410156"/>
      </g>
     </g>
    </g>
    <g id="ytick_2">
     <g id="line2d_11">
      <g>
       <use xlink:href="#m0440ff45b6" x="90" y="308.88" style="stroke: #000000; stroke-width: 0.8"/>
      </g>
     </g>
     <g id="text_12">
      <!-- 0.1 -->
      <g transform="translate(67.096875 312.679219) scale(0.1 -0.1)">
       <use xlink:href="#DejaVuSans-30"/>
       <use xlink:href="#DejaVuSans-2e" x="63.623047"/>
       <use xlink:href="#DejaVuSans-31" x="95.410156"/>
      </g>
     </g>
    </g>
    <g id="ytick_3">
     <g id="line2d_12">
      <g>
       <use xlink:href="#m0440ff45b6" x="90" y="248.4" style="stroke: #000000; stroke-width: 0.8"/>
      </g>
     </g>
     <g id="text_13">
      <!-- 0.2 -->
      <g transform="translate(67.096875 252.199219) scale(0.1 -0.1)">
       <use xlink:href="#DejaVuSans-30"/>
       <use xlink:href="#DejaVuSans-2e" x="63.623047"/>
       <use xlink:href="#DejaVuSans-32" x="95.410156"/>
      </g>
     </g>
    </g>
    <g id="ytick_4">
     <g id="line2d_13">
      <g>
       <use xlink:href="#m0440ff45b6" x="90" y="187.92" style="stroke: #000000; stroke-width: 0.8"/>
      </g>
     </g>
     <g id="text_14">
      <!-- 0.3 -->
      <g transform="translate(67.096875 191.719219) scale(0.1 -0.1)">
       <defs>
        <path id="DejaVuSans-33" d="M 2597 2516 
Q 3050 2419 3304 2112 
Q 3559 1806 3559 1356 
Q 3559 666 3084 287 
Q 2609 -91 1734 -91 
Q 1441 -91 1130 -33 
Q 819 25 488 141 
L 488 750 
Q 750 597 1062 519 
Q 1375 441 1716 441 
Q 2309 441 2620 675 
Q 2931 909 2931 1356 
Q 2931 1769 2642 2001 
Q 2353 2234 1838 2234 
L 1294 2234 
L 1294 2753 
L 1863 2753 
Q 2328 2753 2575 2939 
Q 2822 3125 2822 3475 
Q 2822 3834 2567 4026 
Q 2313 4219 1838 4219 
Q 1578 4219 1281 4162 
Q 984 4106 628 3988 
L 628 4550 
Q 988 4650 1302 4700 
Q 1616 4750 1894 4750 
Q 2613 4750 3031 4423 
Q 3450 4097 3450 3541 
Q 3450 3153 3228 2886 
Q 3006 2619 2597 2516 
z
" transform="scale(0.015625)"/>
       </defs>
       <use xlink:href="#DejaVuSans-30"/>
       <use xlink:href="#DejaVuSans-2e" x="63.623047"/>
       <use xlink:href="#DejaVuSans-33" x="95.410156"/>
      </g>
     </g>
    </g>
    <g id="ytick_5">
     <g id="line2d_14">
      <g>
       <use xlink:href="#m0440ff45b6" x="90" y="127.44" style="stroke: #000000; stroke-width: 0.8"/>
      </g>
     </g>
     <g id="text_15">
      <!-- 0.4 -->
      <g transform="translate(67.096875 131.239219) scale(0.1 -0.1)">
       <defs>
        <path id="DejaVuSans-34" d="M 2419 4116 
L 825 1625 
L 2419 1625 
L 2419 4116 
z
M 2253 4666 
L 3047 4666 
L 3047 1625 
L 3713 1625 
L 3713 1100 
L 3047 1100 
L 3047 0 
L 2419 0 
L 2419 1100 
L 313 1100 
L 313 1709 
L 2253 4666 
z
" transform="scale(0.015625)"/>
       </defs>
       <use xlink:href="#DejaVuSans-30"/>
       <use xlink:href="#DejaVuSans-2e" x="63.623047"/>
       <use xlink:href="#DejaVuSans-34" x="95.410156"/>
      </g>
     </g>
    </g>
    <g id="ytick_6">
     <g id="line2d_15">
      <g>
       <use xlink:href="#m0440ff45b6" x="90" y="66.96" style="stroke: #000000; stroke-width: 0.8"/>
      </g>
     </g>
     <g id="text_16">
      <!-- 0.5 -->
      <g transform="translate(67.096875 70.759219) scale(0.1 -0.1)">
       <use xlink:href="#DejaVuSans-30"/>
       <use xlink:href="#DejaVuSans-2e" x="63.623047"/>
       <use xlink:href="#DejaVuSans-35" x="95.410156"/>
      </g>
     </g>
    </g>
    <g id="text_17">
     <!-- f(x) -->
     <g transform="translate(58.9375 235.402187) rotate(-90) scale(0.2 -0.2)">
      <defs>
       <path id="DejaVuSans-66" d="M 2375 4863 
L 2375 4384 
L 1825 4384 
Q 1516 4384 1395 4259 
Q 1275 4134 1275 3809 
L 1275 3500 
L 2222 3500 
L 2222 3053 
L 1275 3053 
L 1275 0 
L 697 0 
L 697 3053 
L 147 3053 
L 147 3500 
L 697 3500 
L 697 3744 
Q 697 4328 969 4595 
Q 1241 4863 1831 4863 
L 2375 4863 
z
" transform="scale(0.015625)"/>
       <path id="DejaVuSans-28" d="M 1984 4856 
Q 1566 4138 1362 3434 
Q 1159 2731 1159 2009 
Q 1159 1288 1364 580 
Q 1569 -128 1984 -844 
L 1484 -844 
Q 1016 -109 783 600 
Q 550 1309 550 2009 
Q 550 2706 781 3412 
Q 1013 4119 1484 4856 
L 1984 4856 
z
" transform="scale(0.015625)"/>
       <path id="DejaVuSans-29" d="M 513 4856 
L 1013 4856 
Q 1481 4119 1714 3412 
Q 1947 2706 1947 2009 
Q 1947 1309 1714 600 
Q 1481 -109 1013 -844 
L 513 -844 
Q 928 -128 1133 580 
Q 1338 1288 1338 2009 
Q 1338 2731 1133 3434 
Q 928 4138 513 4856 
z
" transform="scale(0.015625)"/>
      </defs>
      <use xlink:href="#DejaVuSans-66"/>
      <use xlink:href="#DejaVuSans-28" x="35.205078"/>
      <use xlink:href="#DejaVuSans-78" x="74.21875"/>
      <use xlink:href="#DejaVuSans-29" x="133.398438"/>
     </g>
    </g>
   </g>
   <g id="line2d_16">
    <path d="M 115.363636 66.96 
L 118.9181 87.423865 
L 122.472563 106.502909 
L 126.027027 124.290845 
L 129.581491 140.875045 
L 133.135954 156.336967 
L 136.690418 170.752558 
L 140.244881 184.192624 
L 143.799345 196.72318 
L 147.353808 208.405774 
L 150.908272 219.29779 
L 154.462735 229.452726 
L 158.017199 238.920463 
L 161.571663 247.747503 
L 165.126126 255.977205 
L 168.68059 263.64999 
L 172.235053 270.803546 
L 175.789517 277.47301 
L 179.34398 283.691141 
L 182.898444 289.488482 
L 186.452907 294.893509 
L 190.007371 299.932769 
L 193.561835 304.631014 
L 197.624079 309.6124 
L 201.686323 314.21043 
L 205.748567 318.454607 
L 209.810811 322.372163 
L 213.873055 325.988233 
L 217.935299 329.326019 
L 222.505324 332.774992 
L 227.075348 335.926833 
L 231.645373 338.807138 
L 236.215397 341.439302 
L 241.293202 344.098837 
L 246.371007 346.505042 
L 251.956593 348.888003 
L 257.542179 351.022506 
L 263.635545 353.098055 
L 269.728911 354.938681 
L 276.330057 356.698353 
L 283.438984 358.354036 
L 291.055692 359.888501 
L 299.18018 361.290214 
L 307.812449 362.552964 
L 317.460278 363.73193 
L 328.123669 364.798934 
L 339.802621 365.736914 
L 353.004914 366.567141 
L 368.238329 367.29162 
L 386.010647 367.902948 
L 407.337428 368.403051 
L 433.742015 368.79137 
L 469.28665 369.077825 
L 522.095823 369.260368 
L 622.636364 369.346271 
L 622.636364 369.346271 
" clip-path="url(#p2a7e8898b4)" style="fill: none; stroke: #1f77b4; stroke-width: 1.5; stroke-linecap: square"/>
   </g>
   <g id="line2d_17">
    <path d="M 115.363636 369.36 
L 116.379197 369.264438 
L 116.886978 369.050137 
L 117.394758 368.654337 
L 117.902539 368.035847 
L 118.410319 367.161671 
L 118.9181 366.006147 
L 119.933661 362.780407 
L 120.949222 358.27154 
L 121.964783 352.465517 
L 122.980344 345.404222 
L 124.503686 332.649819 
L 126.027027 317.663709 
L 128.058149 295.04699 
L 131.104832 257.931856 
L 135.167076 208.299038 
L 137.705979 180.034699 
L 139.737101 159.940237 
L 141.260442 146.60012 
L 142.783784 134.861418 
L 144.307125 124.782781 
L 145.830467 116.384955 
L 146.846028 111.715627 
L 147.861589 107.778408 
L 148.87715 104.558326 
L 149.892711 102.036388 
L 150.908272 100.190179 
L 151.923833 98.994422 
L 152.431613 98.631909 
L 152.939394 98.421494 
L 153.447174 98.359437 
L 153.954955 98.441906 
L 154.462735 98.664995 
L 155.478296 99.517095 
L 156.493857 100.883394 
L 157.509419 102.731031 
L 158.52498 105.026932 
L 160.048321 109.239111 
L 161.571663 114.275608 
L 163.095004 120.029296 
L 165.126126 128.639123 
L 167.665029 140.588794 
L 170.711712 156.136941 
L 175.789517 183.449518 
L 181.882883 215.966535 
L 185.437346 233.870372 
L 188.99181 250.605898 
L 192.038493 263.887208 
L 195.085176 276.126165 
L 197.624079 285.515652 
L 200.162981 294.174807 
L 202.701884 302.12082 
L 205.240786 309.37937 
L 207.779689 315.982338 
L 210.318591 321.965892 
L 212.857494 327.368887 
L 215.396396 332.231575 
L 217.935299 336.594551 
L 220.474201 340.497948 
L 223.013104 343.980801 
L 225.552007 347.08059 
L 228.090909 349.832908 
L 230.629812 352.271247 
L 233.168714 354.426868 
L 235.707617 356.328748 
L 238.7543 358.313494 
L 241.800983 360.013067 
L 244.847666 361.464918 
L 248.402129 362.889829 
L 251.956593 364.068917 
L 256.018837 365.166142 
L 260.588862 366.140637 
L 265.666667 366.968583 
L 271.252252 367.64243 
L 277.853399 368.20418 
L 285.977887 368.654932 
L 296.133497 368.983487 
L 310.351351 369.205998 
L 334.217035 369.326835 
L 401.751843 369.359638 
L 622.636364 369.36 
L 622.636364 369.36 
" clip-path="url(#p2a7e8898b4)" style="fill: none; stroke-dasharray: 5.55,2.4; stroke-dashoffset: 0; stroke: #ff7f0e; stroke-width: 1.5"/>
   </g>
   <g id="line2d_18">
    <path d="M 115.363636 369.36 
L 128.058149 369.26404 
L 132.628174 368.987152 
L 136.182637 368.533592 
L 139.22932 367.909236 
L 141.768223 367.184037 
L 144.307125 366.24444 
L 146.846028 365.068123 
L 149.38493 363.637445 
L 151.923833 361.939973 
L 154.462735 359.968743 
L 157.001638 357.72232 
L 159.540541 355.204653 
L 162.587224 351.838492 
L 165.633907 348.119477 
L 169.18837 343.378964 
L 172.742834 338.267383 
L 177.312858 331.269826 
L 183.406224 321.474637 
L 194.577396 303.439434 
L 199.14742 296.487042 
L 203.209664 290.687941 
L 206.764128 285.974519 
L 210.318591 281.645002 
L 213.365274 278.26703 
L 216.411957 275.215231 
L 219.45864 272.502643 
L 221.997543 270.507681 
L 224.536446 268.75727 
L 227.075348 267.252428 
L 229.614251 265.992452 
L 232.153153 264.975051 
L 234.692056 264.196485 
L 237.230958 263.651705 
L 239.769861 263.334492 
L 242.308763 263.2376 
L 244.847666 263.352889 
L 247.386568 263.671456 
L 249.925471 264.183764 
L 252.972154 265.04009 
L 256.018837 266.142796 
L 259.06552 267.473201 
L 262.619984 269.287756 
L 266.174447 271.355999 
L 270.236691 273.991691 
L 274.806716 277.251042 
L 279.884521 281.16726 
L 285.977887 286.170376 
L 294.102375 293.156881 
L 314.413595 310.758816 
L 322.030303 316.996419 
L 328.63145 322.123887 
L 334.724816 326.59274 
L 340.818182 330.787967 
L 346.911548 334.698538 
L 352.497133 338.029549 
L 358.082719 341.11892 
L 363.668305 343.970995 
L 369.25389 346.592729 
L 375.347256 349.200686 
L 381.440622 351.558878 
L 387.533989 353.682389 
L 394.135135 355.73652 
L 400.736282 357.554665 
L 407.845209 359.272467 
L 414.954136 360.765741 
L 422.570844 362.143834 
L 430.695332 363.391375 
L 439.835381 364.558045 
L 449.48321 365.559453 
L 460.146601 366.439352 
L 472.333333 367.210997 
L 486.043407 367.848804 
L 502.292383 368.373142 
L 522.095823 368.779832 
L 547.992629 369.075446 
L 585.568387 369.26191 
L 622.636364 369.326758 
L 622.636364 369.326758 
" clip-path="url(#p2a7e8898b4)" style="fill: none; stroke-dasharray: 9.6,2.4,1.5,2.4; stroke-dashoffset: 0; stroke: #2ca02c; stroke-width: 1.5"/>
   </g>
   <g id="line2d_19">
    <path d="M 115.363636 369.36 
L 165.633907 369.251612 
L 175.281736 369.000245 
L 182.390663 368.614394 
L 188.484029 368.076867 
L 194.069615 367.36311 
L 199.14742 366.490684 
L 203.717445 365.495308 
L 208.287469 364.278637 
L 212.857494 362.822974 
L 217.427518 361.115157 
L 221.997543 359.147307 
L 226.567568 356.917364 
L 231.137592 354.429384 
L 235.707617 351.693604 
L 240.785422 348.383183 
L 246.371007 344.448267 
L 252.464373 339.863842 
L 260.081081 333.823344 
L 284.962326 313.800748 
L 291.055692 309.327274 
L 296.133497 305.855088 
L 301.211302 302.657631 
L 305.781327 300.042699 
L 310.351351 297.697823 
L 314.413595 295.853304 
L 318.475839 294.243464 
L 322.538084 292.874269 
L 326.600328 291.749183 
L 330.662572 290.86928 
L 334.724816 290.233373 
L 338.78706 289.838173 
L 342.849304 289.678461 
L 346.911548 289.747274 
L 350.973792 290.036099 
L 355.036036 290.535078 
L 359.606061 291.333883 
L 364.176085 292.367616 
L 368.74611 293.618012 
L 373.823915 295.238195 
L 379.4095 297.269902 
L 385.502867 299.743017 
L 392.104013 302.671732 
L 399.720721 306.299938 
L 409.36855 311.153414 
L 445.928747 329.815701 
L 455.068796 334.107694 
L 463.701065 337.921517 
L 471.825553 341.275597 
L 479.950041 344.38889 
L 488.074529 347.256093 
L 496.199017 349.877597 
L 504.323505 352.258401 
L 512.447993 354.407107 
L 520.572482 356.335018 
L 529.20475 358.156295 
L 538.344799 359.848573 
L 547.484848 361.319109 
L 557.132678 362.65476 
L 567.796069 363.901741 
L 578.96724 364.983661 
L 591.153972 365.941306 
L 604.864046 366.788755 
L 620.097461 367.50181 
L 622.636364 367.601149 
L 622.636364 367.601149 
" clip-path="url(#p2a7e8898b4)" style="fill: none; stroke-dasharray: 1.5,2.475; stroke-dashoffset: 0; stroke: #d62728; stroke-width: 1.5"/>
   </g>
   <g id="patch_3">
    <path d="M 90 384.48 
L 90 51.84 
" style="fill: none; stroke: #000000; stroke-width: 0.8; stroke-linejoin: miter; stroke-linecap: square"/>
   </g>
   <g id="patch_4">
    <path d="M 648 384.48 
L 648 51.84 
" style="fill: none; stroke: #000000; stroke-width: 0.8; stroke-linejoin: miter; stroke-linecap: square"/>
   </g>
   <g id="patch_5">
    <path d="M 90 384.48 
L 648 384.48 
" style="fill: none; stroke: #000000; stroke-width: 0.8; stroke-linejoin: miter; stroke-linecap: square"/>
   </g>
   <g id="patch_6">
    <path d="M 90 51.84 
L 648 51.84 
" style="fill: none; stroke: #000000; stroke-width: 0.8; stroke-linejoin: miter; stroke-linecap: square"/>
   </g>
   <g id="legend_1">
    <g id="patch_7">
     <path d="M 481.35 151.90875 
L 637.5 151.90875 
Q 640.5 151.90875 640.5 148.90875 
L 640.5 62.34 
Q 640.5 59.34 637.5 59.34 
L 481.35 59.34 
Q 478.35 59.34 478.35 62.34 
L 478.35 148.90875 
Q 478.35 151.90875 481.35 151.90875 
z
" style="fill: #ffffff; opacity: 0.8; stroke: #cccccc; stroke-linejoin: miter"/>
    </g>
    <g id="line2d_20">
     <path d="M 484.35 71.487656 
L 499.35 71.487656 
L 514.35 71.487656 
" style="fill: none; stroke: #1f77b4; stroke-width: 1.5; stroke-linecap: square"/>
    </g>
    <g id="text_18">
     <!-- $\alpha=$1, $\lambda=$0.5 -->
     <g transform="translate(526.35 76.737656) scale(0.15 -0.15)">
      <defs>
       <path id="DejaVuSans-Oblique-3b1" d="M 2619 1628 
L 2622 2350 
Q 2625 3088 2069 3091 
Q 1653 3094 1394 2747 
Q 1069 2319 959 1747 
Q 825 1059 994 731 
Q 1169 397 1547 397 
Q 1966 397 2319 1063 
L 2619 1628 
z
M 2166 3578 
Q 3141 3594 3128 2584 
Q 3128 2584 3616 3500 
L 4128 3500 
L 3119 1603 
L 3109 919 
Q 3109 766 3194 638 
Q 3291 488 3391 488 
L 3669 488 
L 3575 0 
L 3228 0 
Q 2934 0 2722 263 
Q 2622 394 2619 669 
Q 2416 334 2066 50 
Q 1900 -81 1453 -78 
Q 722 -72 456 397 
Q 184 884 353 1747 
Q 534 2675 1009 3097 
Q 1544 3569 2166 3578 
z
" transform="scale(0.015625)"/>
       <path id="DejaVuSans-3d" d="M 678 2906 
L 4684 2906 
L 4684 2381 
L 678 2381 
L 678 2906 
z
M 678 1631 
L 4684 1631 
L 4684 1100 
L 678 1100 
L 678 1631 
z
" transform="scale(0.015625)"/>
       <path id="DejaVuSans-2c" d="M 750 794 
L 1409 794 
L 1409 256 
L 897 -744 
L 494 -744 
L 750 256 
L 750 794 
z
" transform="scale(0.015625)"/>
       <path id="DejaVuSans-20" transform="scale(0.015625)"/>
       <path id="DejaVuSans-Oblique-3bb" d="M 2350 4316 
L 3125 0 
L 2516 0 
L 2038 2588 
L 328 0 
L -281 0 
L 1903 3356 
L 1794 3975 
Q 1725 4369 1391 4369 
L 1091 4369 
L 1184 4863 
L 1550 4856 
Q 2253 4847 2350 4316 
z
" transform="scale(0.015625)"/>
      </defs>
      <use xlink:href="#DejaVuSans-Oblique-3b1" transform="translate(0 0.015625)"/>
      <use xlink:href="#DejaVuSans-3d" transform="translate(85.400391 0.015625)"/>
      <use xlink:href="#DejaVuSans-31" transform="translate(188.671875 0.015625)"/>
      <use xlink:href="#DejaVuSans-2c" transform="translate(252.294922 0.015625)"/>
      <use xlink:href="#DejaVuSans-20" transform="translate(284.082031 0.015625)"/>
      <use xlink:href="#DejaVuSans-Oblique-3bb" transform="translate(315.869141 0.015625)"/>
      <use xlink:href="#DejaVuSans-3d" transform="translate(394.53125 0.015625)"/>
      <use xlink:href="#DejaVuSans-30" transform="translate(497.802734 0.015625)"/>
      <use xlink:href="#DejaVuSans-2e" transform="translate(561.425781 0.015625)"/>
      <use xlink:href="#DejaVuSans-35" transform="translate(593.212891 0.015625)"/>
     </g>
    </g>
    <g id="line2d_21">
     <path d="M 484.35 93.504844 
L 499.35 93.504844 
L 514.35 93.504844 
" style="fill: none; stroke-dasharray: 5.55,2.4; stroke-dashoffset: 0; stroke: #ff7f0e; stroke-width: 1.5"/>
    </g>
    <g id="text_19">
     <!-- $\alpha=$4, $\lambda=$2.0 -->
     <g transform="translate(526.35 98.754844) scale(0.15 -0.15)">
      <use xlink:href="#DejaVuSans-Oblique-3b1" transform="translate(0 0.015625)"/>
      <use xlink:href="#DejaVuSans-3d" transform="translate(85.400391 0.015625)"/>
      <use xlink:href="#DejaVuSans-34" transform="translate(188.671875 0.015625)"/>
      <use xlink:href="#DejaVuSans-2c" transform="translate(252.294922 0.015625)"/>
      <use xlink:href="#DejaVuSans-20" transform="translate(284.082031 0.015625)"/>
      <use xlink:href="#DejaVuSans-Oblique-3bb" transform="translate(315.869141 0.015625)"/>
      <use xlink:href="#DejaVuSans-3d" transform="translate(394.53125 0.015625)"/>
      <use xlink:href="#DejaVuSans-32" transform="translate(497.802734 0.015625)"/>
      <use xlink:href="#DejaVuSans-2e" transform="translate(561.425781 0.015625)"/>
      <use xlink:href="#DejaVuSans-30" transform="translate(593.212891 0.015625)"/>
     </g>
    </g>
    <g id="line2d_22">
     <path d="M 484.35 115.522031 
L 499.35 115.522031 
L 514.35 115.522031 
" style="fill: none; stroke-dasharray: 9.6,2.4,1.5,2.4; stroke-dashoffset: 0; stroke: #2ca02c; stroke-width: 1.5"/>
    </g>
    <g id="text_20">
     <!-- $\alpha=$6, $\lambda=$1.0 -->
     <g transform="translate(526.35 120.772031) scale(0.15 -0.15)">
      <defs>
       <path id="DejaVuSans-36" d="M 2113 2584 
Q 1688 2584 1439 2293 
Q 1191 2003 1191 1497 
Q 1191 994 1439 701 
Q 1688 409 2113 409 
Q 2538 409 2786 701 
Q 3034 994 3034 1497 
Q 3034 2003 2786 2293 
Q 2538 2584 2113 2584 
z
M 3366 4563 
L 3366 3988 
Q 3128 4100 2886 4159 
Q 2644 4219 2406 4219 
Q 1781 4219 1451 3797 
Q 1122 3375 1075 2522 
Q 1259 2794 1537 2939 
Q 1816 3084 2150 3084 
Q 2853 3084 3261 2657 
Q 3669 2231 3669 1497 
Q 3669 778 3244 343 
Q 2819 -91 2113 -91 
Q 1303 -91 875 529 
Q 447 1150 447 2328 
Q 447 3434 972 4092 
Q 1497 4750 2381 4750 
Q 2619 4750 2861 4703 
Q 3103 4656 3366 4563 
z
" transform="scale(0.015625)"/>
      </defs>
      <use xlink:href="#DejaVuSans-Oblique-3b1" transform="translate(0 0.015625)"/>
      <use xlink:href="#DejaVuSans-3d" transform="translate(85.400391 0.015625)"/>
      <use xlink:href="#DejaVuSans-36" transform="translate(188.671875 0.015625)"/>
      <use xlink:href="#DejaVuSans-2c" transform="translate(252.294922 0.015625)"/>
      <use xlink:href="#DejaVuSans-20" transform="translate(284.082031 0.015625)"/>
      <use xlink:href="#DejaVuSans-Oblique-3bb" transform="translate(315.869141 0.015625)"/>
      <use xlink:href="#DejaVuSans-3d" transform="translate(394.53125 0.015625)"/>
      <use xlink:href="#DejaVuSans-31" transform="translate(497.802734 0.015625)"/>
      <use xlink:href="#DejaVuSans-2e" transform="translate(561.425781 0.015625)"/>
      <use xlink:href="#DejaVuSans-30" transform="translate(593.212891 0.015625)"/>
     </g>
    </g>
    <g id="line2d_23">
     <path d="M 484.35 137.539219 
L 499.35 137.539219 
L 514.35 137.539219 
" style="fill: none; stroke-dasharray: 1.5,2.475; stroke-dashoffset: 0; stroke: #d62728; stroke-width: 1.5"/>
    </g>
    <g id="text_21">
     <!-- $\alpha=$10, $\lambda=$1.0 -->
     <g transform="translate(526.35 142.789219) scale(0.15 -0.15)">
      <use xlink:href="#DejaVuSans-Oblique-3b1" transform="translate(0 0.015625)"/>
      <use xlink:href="#DejaVuSans-3d" transform="translate(85.400391 0.015625)"/>
      <use xlink:href="#DejaVuSans-31" transform="translate(188.671875 0.015625)"/>
      <use xlink:href="#DejaVuSans-30" transform="translate(252.294922 0.015625)"/>
      <use xlink:href="#DejaVuSans-2c" transform="translate(315.917969 0.015625)"/>
      <use xlink:href="#DejaVuSans-20" transform="translate(347.705078 0.015625)"/>
      <use xlink:href="#DejaVuSans-Oblique-3bb" transform="translate(379.492188 0.015625)"/>
      <use xlink:href="#DejaVuSans-3d" transform="translate(458.154297 0.015625)"/>
      <use xlink:href="#DejaVuSans-31" transform="translate(561.425781 0.015625)"/>
      <use xlink:href="#DejaVuSans-2e" transform="translate(625.048828 0.015625)"/>
      <use xlink:href="#DejaVuSans-30" transform="translate(656.835938 0.015625)"/>
     </g>
    </g>
   </g>
  </g>
 </g>
 <defs>
  <clipPath id="p2a7e8898b4">
   <rect x="90" y="51.84" width="558" height="332.64"/>
  </clipPath>
 </defs>
</svg>
